<svg id="Grupo_222" data-name="Grupo 222" xmlns="http://www.w3.org/2000/svg" width="49.835" height="59.338" viewBox="0 0 49.835 59.338">
  <path id="Caminho_249" data-name="Caminho 249" d="M301.537,113.574a24.919,24.919,0,0,1,0,35.239,25.235,25.235,0,0,1-3.517,2.93l2.915,6.529a5.216,5.216,0,0,1-4.762,7.342H271.662a5.216,5.216,0,0,1-4.762-7.342l2.915-6.529a25.306,25.306,0,0,1-3.517-2.93,24.918,24.918,0,0,1,35.239-35.239Zm3.821,17.62a21.44,21.44,0,0,0-9.675-17.915,11.1,11.1,0,0,1-2.992,5.795,15.269,15.269,0,0,1,5.945,12.12,14.719,14.719,0,1,1-29.437,0,15.269,15.269,0,0,1,5.944-12.12,11.094,11.094,0,0,1-2.994-5.793,21.437,21.437,0,1,0,33.209,17.913Zm-7.727,30.151a1.705,1.705,0,0,0,.129-1.655l-2.754-6.169a25.027,25.027,0,0,1-22.176,0l-2.754,6.169a1.738,1.738,0,0,0,1.586,2.448h24.512a1.707,1.707,0,0,0,1.458-.793Zm-2.472-30.151a11.931,11.931,0,0,0-4.67-9.427,3.336,3.336,0,0,1-.351-5.055,7.58,7.58,0,0,0,2.235-5.219,21.425,21.425,0,0,0-16.914,0,7.57,7.57,0,0,0,2.232,5.214l.016.017a3.341,3.341,0,0,1-.366,5.045,11.931,11.931,0,0,0-4.667,9.424,11.242,11.242,0,1,0,22.484,0Zm0,0" transform="translate(-259 -106.276)" fill="#fff"/>
  <path id="Caminho_250" data-name="Caminho 250" d="M385.374,226.276A6.374,6.374,0,1,1,379,232.65a6.381,6.381,0,0,1,6.374-6.374Zm2.9,6.374a2.9,2.9,0,1,0-2.9,2.9,2.9,2.9,0,0,0,2.9-2.9Zm0,0" transform="translate(-360.457 -207.733)" fill="#fff"/>
</svg>
