<svg xmlns="http://www.w3.org/2000/svg" width="41.184" height="60.489" viewBox="0 0 41.184 60.489">
  <g id="Grupo_225" data-name="Grupo 225" transform="translate(-970 -3067.014)">
    <g id="Grupo_193" data-name="Grupo 193" transform="translate(970 3067.014)">
      <path id="Caminho_227" data-name="Caminho 227" d="M133.344,29.259h0c0-.129-.064-.193-.129-.322a.063.063,0,0,0-.064-.064.889.889,0,0,0-.193-.257l-12.87-12.87c-.064-.064-.193-.129-.257-.193a.063.063,0,0,1-.064-.064c-.129-.064-.193-.064-.322-.129H99.882a7.745,7.745,0,0,0-7.722,7.722V68.127a7.745,7.745,0,0,0,7.722,7.722h12.87a1.291,1.291,0,0,0,1.287-1.287V61.692a5.163,5.163,0,0,1,5.148-5.148h12.87a1.291,1.291,0,0,0,1.287-1.287v-26Zm-4.376-1.03h-3.346a5.163,5.163,0,0,1-5.148-5.148V19.736Zm-9.781,25.74a7.745,7.745,0,0,0-7.722,7.722V73.274H99.882a5.163,5.163,0,0,1-5.148-5.148V23.082a5.163,5.163,0,0,1,5.148-5.148H117.9v5.148a7.745,7.745,0,0,0,7.722,7.722h5.148V53.97Z" transform="translate(-92.16 -15.36)" fill="#fff"/>
      <path id="Caminho_228" data-name="Caminho 228" d="M308.991,374.146a1.244,1.244,0,0,0-1.8,0l-6.178,6.178-1.351-1.351a1.274,1.274,0,0,0-1.8,1.8l2.252,2.252a1.244,1.244,0,0,0,1.8,0l7.078-7.078A1.244,1.244,0,0,0,308.991,374.146Z" transform="translate(-271.668 -328.716)" fill="#fff"/>
      <path id="Caminho_229" data-name="Caminho 229" d="M170.387,171.534h-25.74a1.287,1.287,0,0,1,0-2.574h25.74a1.287,1.287,0,1,1,0,2.574Z" transform="translate(-136.925 -149.655)" fill="#fff"/>
      <path id="Caminho_230" data-name="Caminho 230" d="M170.387,222.734h-25.74a1.287,1.287,0,0,1,0-2.574h25.74a1.287,1.287,0,1,1,0,2.574Z" transform="translate(-136.925 -194.42)" fill="#fff"/>
      <path id="Caminho_231" data-name="Caminho 231" d="M170.387,273.934h-25.74a1.287,1.287,0,0,1,0-2.574h25.74a1.287,1.287,0,1,1,0,2.574Z" transform="translate(-136.925 -239.185)" fill="#fff"/>
      <path id="Caminho_232" data-name="Caminho 232" d="M157.517,69.134h-12.87a1.287,1.287,0,0,1,0-2.574h12.87a1.287,1.287,0,0,1,0,2.574Z" transform="translate(-136.925 -60.125)" fill="#fff"/>
    </g>
  </g>
</svg>
