<svg xmlns="http://www.w3.org/2000/svg" width="49.705" height="49.705" viewBox="0 0 49.705 49.705">
  <path id="Caminho_251" data-name="Caminho 251" d="M276.1,152.775h-3.507V131.73a1.6,1.6,0,0,0-2.737-1.134l-7.986,7.985-2.474-2.474a1.6,1.6,0,0,0-2.268,0l-6.081,6.082L240.057,131.2a1.6,1.6,0,0,0-2.267,0l-6.583,6.583V117.162l11.644,11.644a1.6,1.6,0,0,0,2.267,0l1.522-1.522,2.975,2.975a1.6,1.6,0,0,0,2.267,0l15.151-15.151,2.355,2.355v8.555a1.6,1.6,0,0,0,3.207,0V116.8a1.6,1.6,0,0,0-.47-1.134l-3.958-3.958a1.6,1.6,0,0,0-2.268,0l-15.151,15.15-2.975-2.975a1.6,1.6,0,0,0-2.267,0l-1.522,1.522-12.777-12.777v-4.747a1.6,1.6,0,1,0-3.207,0v46.5a1.6,1.6,0,0,0,1.6,1.6h46.5a1.6,1.6,0,1,0,0-3.207Zm-44.9-10.459,7.716-7.716,10.992,10.992a1.6,1.6,0,0,0,2.268,0l6.081-6.081,2.474,2.473a1.6,1.6,0,0,0,2.268,0l6.382-6.382v17.174H231.207Zm0,0" transform="translate(-228 -106.276)" fill="#fff"/>
</svg>
