<svg xmlns="http://www.w3.org/2000/svg" xmlns:xlink="http://www.w3.org/1999/xlink" width="62" height="41" viewBox="0 0 62 41">
  <defs>
    <clipPath id="clip-path">
      <rect id="Retângulo_83" data-name="Retângulo 83" width="62" height="41" transform="translate(0 0.401)" fill="#fff"/>
    </clipPath>
  </defs>
  <g id="Grupo_228" data-name="Grupo 228" transform="translate(-228 -171.01)">
    <g id="Grupo_227" data-name="Grupo 227" transform="translate(228.001 170.609)">
      <g id="Grupo_226" data-name="Grupo 226" transform="translate(0 0)" clip-path="url(#clip-path)">
        <path id="Caminho_252" data-name="Caminho 252" d="M284.317,170.518H234.034A6.041,6.041,0,0,0,228,176.552v20.364a6.041,6.041,0,0,0,6.034,6.034h9.446l-1.828,6.495a2.013,2.013,0,0,0,2.938,2.288l15.3-8.783h24.431a6.041,6.041,0,0,0,6.034-6.034V176.552a6.041,6.041,0,0,0-6.034-6.034Zm2.011,26.4a2.014,2.014,0,0,1-2.011,2.011c-27.148,0-25.3-.114-25.969.268l-11.49,6.6,1.213-4.309a2.013,2.013,0,0,0-1.936-2.557h-12.1a2.014,2.014,0,0,1-2.011-2.011V176.552a2.014,2.014,0,0,1,2.011-2.011h50.283a2.014,2.014,0,0,1,2.011,2.011Zm-21.1-9.686-1.828,1.328.7,2.149A2.013,2.013,0,0,1,261,192.957l-1.829-1.328c-1.945,1.413-2.188,1.713-3.011,1.713a2.012,2.012,0,0,1-1.912-2.633l.7-2.149-1.828-1.328a2.013,2.013,0,0,1,1.182-3.639h2.26l.7-2.149a2.013,2.013,0,0,1,3.826,0l.7,2.149h2.261a2.013,2.013,0,0,1,1.182,3.639Zm16.342,0-1.829,1.328.7,2.149a2.013,2.013,0,0,1-3.1,2.249l-1.828-1.328-1.829,1.328a2.013,2.013,0,0,1-3.095-2.249l.7-2.149-1.829-1.329a2.013,2.013,0,0,1,1.182-3.638h2.26l.7-2.149a2.013,2.013,0,0,1,3.826,0l.7,2.149h2.26a2.013,2.013,0,0,1,1.182,3.639Zm-32.684,0-1.829,1.328.7,2.149a2.013,2.013,0,0,1-3.1,2.249l-1.828-1.328-1.828,1.328a2.014,2.014,0,0,1-3.1-2.249l.7-2.149-1.829-1.329a2.013,2.013,0,0,1,1.182-3.638h2.26l.7-2.149a2.013,2.013,0,0,1,3.826,0l.7,2.149h2.26a2.013,2.013,0,0,1,1.182,3.639Zm0,0" transform="translate(-228 -170.645)" fill="#fff"/>
      </g>
    </g>
  </g>
</svg>
