<svg xmlns="http://www.w3.org/2000/svg" width="1841.311" height="1003.559" viewBox="0 0 1841.311 1003.559">
  <g id="Grupo_62" data-name="Grupo 62" transform="translate(-82.82 -6509.699)">
    <g id="Bolas_Funcionalidades_" data-name="Bolas (Funcionalidades)" transform="translate(82.82 6509.699)">
      <g id="Grupo_61" data-name="Grupo 61" transform="translate(1379.059)">
        <path id="Caminho_70" data-name="Caminho 70" d="M304.4,464.458a30.877,30.877,0,0,0-21.955-8.975,31.759,31.759,0,0,0-8.36,1.087,31.355,31.355,0,0,0-7.46,3.079,30.162,30.162,0,0,0-6.277,4.809,31.559,31.559,0,0,0-7.956,30.456,31.442,31.442,0,0,0,3.125,7.461,30.644,30.644,0,0,0,18.568,14.21,31.77,31.77,0,0,0,8.36,1.087,30.906,30.906,0,0,0,15.678-4.189,30.7,30.7,0,0,0,11.108-11.108,31.387,31.387,0,0,0,4.239-15.82,30.57,30.57,0,0,0-2.441-12.246A31.274,31.274,0,0,0,304.4,464.458ZM294.735,492.4a13.877,13.877,0,0,1-2.652,4.712,12.566,12.566,0,0,1-4.216,3.152,13.041,13.041,0,0,1-5.565,1.156,13.6,13.6,0,0,1-5.708-1.156,12.931,12.931,0,0,1-4.308-3.152,14.076,14.076,0,0,1-2.748-4.712,17.872,17.872,0,0,1,0-11.631,15.168,15.168,0,0,1,2.748-4.831,12.874,12.874,0,0,1,4.308-3.29,13.068,13.068,0,0,1,5.708-1.207,12.4,12.4,0,0,1,9.782,4.5,14.953,14.953,0,0,1,2.652,4.831,18.8,18.8,0,0,1,0,11.631Z" transform="translate(-251.276 -455.483)" fill="#f27b9e"/>
        <path id="Caminho_71" data-name="Caminho 71" d="M300.618,463.819a28.68,28.68,0,0,0-20.392-8.336,29.5,29.5,0,0,0-7.765,1.01,29.125,29.125,0,0,0-6.93,2.86,28.018,28.018,0,0,0-5.83,4.466,29.313,29.313,0,0,0-7.39,28.289,29.2,29.2,0,0,0,2.9,6.93,28.464,28.464,0,0,0,17.247,13.2,29.51,29.51,0,0,0,7.765,1.01,28.707,28.707,0,0,0,14.563-3.891,28.517,28.517,0,0,0,10.318-10.318,29.153,29.153,0,0,0,3.938-14.694,28.4,28.4,0,0,0-2.267-11.374A29.05,29.05,0,0,0,300.618,463.819Zm-8.975,25.958a12.888,12.888,0,0,1-2.463,4.377,11.672,11.672,0,0,1-3.916,2.928,12.114,12.114,0,0,1-5.169,1.074,12.628,12.628,0,0,1-5.3-1.074,12.011,12.011,0,0,1-4-2.928,13.072,13.072,0,0,1-2.553-4.377,16.6,16.6,0,0,1,0-10.8,14.089,14.089,0,0,1,2.553-4.488,11.956,11.956,0,0,1,4-3.056,12.137,12.137,0,0,1,5.3-1.121,11.517,11.517,0,0,1,9.086,4.177,13.889,13.889,0,0,1,2.463,4.488,17.46,17.46,0,0,1,0,10.8Z" transform="translate(-102.669 -356.652)" fill="#f27b9e"/>
        <path id="Caminho_72" data-name="Caminho 72" d="M337.172,469.995a49.928,49.928,0,0,0-35.5-14.512,51.355,51.355,0,0,0-13.517,1.758,50.7,50.7,0,0,0-12.063,4.978,48.77,48.77,0,0,0-10.149,7.775,51.03,51.03,0,0,0-12.864,49.247,50.834,50.834,0,0,0,5.052,12.063,49.551,49.551,0,0,0,30.024,22.977,51.366,51.366,0,0,0,13.517,1.758,49.975,49.975,0,0,0,25.351-6.773A49.642,49.642,0,0,0,344.985,531.3a50.752,50.752,0,0,0,6.855-25.581,49.431,49.431,0,0,0-3.947-19.8A50.571,50.571,0,0,0,337.172,469.995Zm-15.624,45.189a22.439,22.439,0,0,1-4.288,7.619,20.322,20.322,0,0,1-6.818,5.1,21.088,21.088,0,0,1-9,1.869,21.983,21.983,0,0,1-9.229-1.869,20.912,20.912,0,0,1-6.966-5.1,22.76,22.76,0,0,1-4.444-7.619,28.9,28.9,0,0,1,0-18.807,24.527,24.527,0,0,1,4.444-7.812,20.815,20.815,0,0,1,6.966-5.32,21.13,21.13,0,0,1,9.229-1.951,20.049,20.049,0,0,1,15.817,7.271,24.179,24.179,0,0,1,4.288,7.812,30.4,30.4,0,0,1,0,18.807Z" transform="translate(-21.142 -424.213)" fill="#f27b9e"/>
        <path id="Caminho_73" data-name="Caminho 73" d="M307.622,465a32.751,32.751,0,0,0-23.287-9.519,33.686,33.686,0,0,0-8.867,1.154,33.257,33.257,0,0,0-7.913,3.265A31.991,31.991,0,0,0,260.9,465a33.475,33.475,0,0,0-8.439,32.3,33.345,33.345,0,0,0,3.314,7.913,32.505,32.505,0,0,0,19.7,15.072,33.7,33.7,0,0,0,8.867,1.153A32.781,32.781,0,0,0,300.965,517a32.566,32.566,0,0,0,11.782-11.782,33.292,33.292,0,0,0,4.5-16.78,32.426,32.426,0,0,0-2.589-12.989A33.174,33.174,0,0,0,307.622,465Zm-10.249,29.643a14.719,14.719,0,0,1-2.813,5,13.329,13.329,0,0,1-4.472,3.343,13.831,13.831,0,0,1-5.9,1.226,14.419,14.419,0,0,1-6.054-1.226,13.716,13.716,0,0,1-4.57-3.343,14.929,14.929,0,0,1-2.915-5,18.958,18.958,0,0,1,0-12.337,16.088,16.088,0,0,1,2.915-5.124,13.654,13.654,0,0,1,4.57-3.49,13.861,13.861,0,0,1,6.054-1.28,13.151,13.151,0,0,1,10.376,4.769,15.86,15.86,0,0,1,2.813,5.124,19.94,19.94,0,0,1,0,12.337Z" transform="translate(89.281 -300.887)" fill="#f27b9e"/>
        <path id="Caminho_78" data-name="Caminho 78" d="M307.622,465a32.751,32.751,0,0,0-23.287-9.519,33.686,33.686,0,0,0-8.867,1.154,33.257,33.257,0,0,0-7.913,3.265A31.991,31.991,0,0,0,260.9,465a33.475,33.475,0,0,0-8.439,32.3,33.345,33.345,0,0,0,3.314,7.913,32.505,32.505,0,0,0,19.7,15.072,33.7,33.7,0,0,0,8.867,1.153A32.781,32.781,0,0,0,300.965,517a32.566,32.566,0,0,0,11.782-11.782,33.292,33.292,0,0,0,4.5-16.78,32.426,32.426,0,0,0-2.589-12.989A33.174,33.174,0,0,0,307.622,465Zm-10.249,29.643a14.719,14.719,0,0,1-2.813,5,13.329,13.329,0,0,1-4.472,3.343,13.831,13.831,0,0,1-5.9,1.226,14.419,14.419,0,0,1-6.054-1.226,13.716,13.716,0,0,1-4.57-3.343,14.929,14.929,0,0,1-2.915-5,18.958,18.958,0,0,1,0-12.337,16.088,16.088,0,0,1,2.915-5.124,13.654,13.654,0,0,1,4.57-3.49,13.861,13.861,0,0,1,6.054-1.28,13.151,13.151,0,0,1,10.376,4.769,15.86,15.86,0,0,1,2.813,5.124,19.94,19.94,0,0,1,0,12.337Z" transform="translate(145.008 -407.182)" fill="#f27b9e"/>
      </g>
      <g id="Grupo_63" data-name="Grupo 63" transform="translate(0 783)">
        <path id="Caminho_70-2" data-name="Caminho 70" d="M260.347,508.7a30.876,30.876,0,0,0,21.955,8.975,31.758,31.758,0,0,0,8.36-1.087,31.356,31.356,0,0,0,7.46-3.079A30.164,30.164,0,0,0,304.4,508.7a31.559,31.559,0,0,0,7.956-30.456,31.442,31.442,0,0,0-3.125-7.461,30.644,30.644,0,0,0-18.568-14.21,31.77,31.77,0,0,0-8.36-1.087,30.906,30.906,0,0,0-15.678,4.189,30.7,30.7,0,0,0-11.108,11.108,31.387,31.387,0,0,0-4.239,15.82,30.57,30.57,0,0,0,2.441,12.246A31.274,31.274,0,0,0,260.347,508.7Zm9.663-27.946a13.877,13.877,0,0,1,2.652-4.712,12.566,12.566,0,0,1,4.216-3.152,13.041,13.041,0,0,1,5.565-1.156,13.6,13.6,0,0,1,5.708,1.156,12.931,12.931,0,0,1,4.308,3.152,14.076,14.076,0,0,1,2.749,4.712,17.872,17.872,0,0,1,0,11.631,15.167,15.167,0,0,1-2.749,4.831,12.874,12.874,0,0,1-4.308,3.29,13.068,13.068,0,0,1-5.708,1.207,12.4,12.4,0,0,1-9.782-4.5,14.953,14.953,0,0,1-2.652-4.831,18.8,18.8,0,0,1,0-11.631Z" transform="translate(148.783 -297.112)" fill="#f27b9e"/>
        <path id="Caminho_71-2" data-name="Caminho 71" d="M259.7,504.91a28.68,28.68,0,0,0,20.392,8.336,29.5,29.5,0,0,0,7.765-1.01,29.124,29.124,0,0,0,6.93-2.859,28.018,28.018,0,0,0,5.83-4.466,29.313,29.313,0,0,0,7.39-28.289,29.2,29.2,0,0,0-2.9-6.93,28.464,28.464,0,0,0-17.247-13.2,29.51,29.51,0,0,0-7.765-1.01,28.707,28.707,0,0,0-14.562,3.891,28.518,28.518,0,0,0-10.318,10.318,29.153,29.153,0,0,0-3.938,14.694,28.4,28.4,0,0,0,2.267,11.374A29.05,29.05,0,0,0,259.7,504.91Zm8.975-25.958a12.889,12.889,0,0,1,2.463-4.377,11.673,11.673,0,0,1,3.916-2.928,12.114,12.114,0,0,1,5.169-1.074,12.628,12.628,0,0,1,5.3,1.074,12.011,12.011,0,0,1,4,2.928,13.072,13.072,0,0,1,2.553,4.377,16.6,16.6,0,0,1,0,10.8,14.088,14.088,0,0,1-2.553,4.488,11.956,11.956,0,0,1-4,3.056,12.138,12.138,0,0,1-5.3,1.121,11.517,11.517,0,0,1-9.086-4.177,13.889,13.889,0,0,1-2.463-4.488,17.46,17.46,0,0,1,0-10.8Z" transform="translate(4.601 -391.518)" fill="#f27b9e"/>
        <path id="Caminho_72-2" data-name="Caminho 72" d="M265.944,541.528a49.928,49.928,0,0,0,35.5,14.512,51.356,51.356,0,0,0,13.517-1.758,50.7,50.7,0,0,0,12.063-4.978,48.768,48.768,0,0,0,10.149-7.775,51.03,51.03,0,0,0,12.864-49.247,50.833,50.833,0,0,0-5.052-12.063,49.551,49.551,0,0,0-30.024-22.977,51.366,51.366,0,0,0-13.517-1.758,49.975,49.975,0,0,0-25.351,6.773,49.643,49.643,0,0,0-17.962,17.961,50.752,50.752,0,0,0-6.855,25.581,49.431,49.431,0,0,0,3.947,19.8A50.571,50.571,0,0,0,265.944,541.528Zm15.624-45.188a22.439,22.439,0,0,1,4.288-7.619,20.322,20.322,0,0,1,6.818-5.1,21.088,21.088,0,0,1,9-1.869,21.983,21.983,0,0,1,9.229,1.869,20.912,20.912,0,0,1,6.966,5.1,22.76,22.76,0,0,1,4.444,7.619,28.9,28.9,0,0,1,0,18.807,24.527,24.527,0,0,1-4.444,7.812,20.816,20.816,0,0,1-6.966,5.32,21.13,21.13,0,0,1-9.229,1.951,20.049,20.049,0,0,1-15.817-7.271,24.179,24.179,0,0,1-4.288-7.812,30.4,30.4,0,0,1,0-18.807Z" transform="translate(-119.722 -366.751)" fill="#f27b9e"/>
        <path id="Caminho_73-2" data-name="Caminho 73" d="M260.9,511.926a32.751,32.751,0,0,0,23.287,9.519,33.685,33.685,0,0,0,8.867-1.154,33.255,33.255,0,0,0,7.913-3.265,31.99,31.99,0,0,0,6.658-5.1,33.475,33.475,0,0,0,8.439-32.3,33.346,33.346,0,0,0-3.314-7.913,32.505,32.505,0,0,0-19.7-15.072,33.7,33.7,0,0,0-8.867-1.153,32.781,32.781,0,0,0-16.63,4.443,32.565,32.565,0,0,0-11.782,11.782,33.292,33.292,0,0,0-4.5,16.78,32.426,32.426,0,0,0,2.589,12.989A33.174,33.174,0,0,0,260.9,511.926Zm10.249-29.643a14.718,14.718,0,0,1,2.813-5,13.329,13.329,0,0,1,4.472-3.343,13.832,13.832,0,0,1,5.9-1.226,14.419,14.419,0,0,1,6.054,1.226,13.716,13.716,0,0,1,4.57,3.343,14.93,14.93,0,0,1,2.915,5,18.957,18.957,0,0,1,0,12.337,16.088,16.088,0,0,1-2.915,5.124,13.655,13.655,0,0,1-4.57,3.49,13.861,13.861,0,0,1-6.054,1.28,13.151,13.151,0,0,1-10.376-4.769,15.86,15.86,0,0,1-2.813-5.124,19.939,19.939,0,0,1,0-12.337Z" transform="translate(-195.549 -455.483)" fill="#f27b9e"/>
        <path id="Caminho_78-2" data-name="Caminho 78" d="M260.9,511.926a32.751,32.751,0,0,0,23.287,9.519,33.685,33.685,0,0,0,8.867-1.154,33.255,33.255,0,0,0,7.913-3.265,31.99,31.99,0,0,0,6.658-5.1,33.475,33.475,0,0,0,8.439-32.3,33.346,33.346,0,0,0-3.314-7.913,32.505,32.505,0,0,0-19.7-15.072,33.7,33.7,0,0,0-8.867-1.153,32.781,32.781,0,0,0-16.63,4.443,32.565,32.565,0,0,0-11.782,11.782,33.292,33.292,0,0,0-4.5,16.78,32.426,32.426,0,0,0,2.589,12.989A33.174,33.174,0,0,0,260.9,511.926Zm10.249-29.643a14.718,14.718,0,0,1,2.813-5,13.329,13.329,0,0,1,4.472-3.343,13.832,13.832,0,0,1,5.9-1.226,14.419,14.419,0,0,1,6.054,1.226,13.716,13.716,0,0,1,4.57,3.343,14.93,14.93,0,0,1,2.915,5,18.957,18.957,0,0,1,0,12.337,16.088,16.088,0,0,1-2.915,5.124,13.655,13.655,0,0,1-4.57,3.49,13.861,13.861,0,0,1-6.054,1.28,13.151,13.151,0,0,1-10.376-4.769,15.86,15.86,0,0,1-2.813-5.124,19.939,19.939,0,0,1,0-12.337Z" transform="translate(-251.276 -349.188)" fill="#f27b9e"/>
      </g>
    </g>
  </g>
</svg>
