<svg xmlns="http://www.w3.org/2000/svg" width="196.68" height="226.947" viewBox="0 0 196.68 226.947">
  <g id="Grupo_84" data-name="Grupo 84" transform="translate(1.282 10.276)">
    <g id="Grupo_83" data-name="Grupo 83" transform="translate(0)">
      <path id="Caminho_95" data-name="Caminho 95" d="M398.54,480.363a85.6,85.6,0,0,0-60.862-24.88A88.04,88.04,0,0,0,314.5,458.5a86.913,86.913,0,0,0-20.682,8.534,83.612,83.612,0,0,0-17.4,13.33,87.489,87.489,0,0,0-22.055,84.431,87.16,87.16,0,0,0,8.662,20.682A84.952,84.952,0,0,0,314.5,624.867a88.073,88.073,0,0,0,23.174,3.014,85.675,85.675,0,0,0,43.462-11.612,85.111,85.111,0,0,0,30.794-30.794,87.01,87.01,0,0,0,11.753-43.856,84.746,84.746,0,0,0-6.767-33.948A86.694,86.694,0,0,0,398.54,480.363Zm-26.786,77.473A38.468,38.468,0,0,1,364.4,570.9a34.839,34.839,0,0,1-11.689,8.738,36.153,36.153,0,0,1-15.428,3.205,37.688,37.688,0,0,1-15.823-3.205,35.848,35.848,0,0,1-11.943-8.738,39.017,39.017,0,0,1-7.619-13.063,49.547,49.547,0,0,1,0-32.243,42.049,42.049,0,0,1,7.619-13.393,35.686,35.686,0,0,1,11.943-9.12,36.228,36.228,0,0,1,15.823-3.345A34.372,34.372,0,0,1,364.4,512.2a41.455,41.455,0,0,1,7.352,13.393,52.112,52.112,0,0,1,0,32.243Z" transform="translate(-228.288 -420.556)" fill="#ffeff4"/>
      <path id="Caminho_96" data-name="Caminho 96" d="M398.54,480.363a85.6,85.6,0,0,0-60.862-24.88A88.04,88.04,0,0,0,314.5,458.5a86.913,86.913,0,0,0-20.682,8.534,83.612,83.612,0,0,0-17.4,13.33,87.489,87.489,0,0,0-22.055,84.431,87.16,87.16,0,0,0,8.662,20.682A84.952,84.952,0,0,0,314.5,624.867a88.073,88.073,0,0,0,23.174,3.014,85.675,85.675,0,0,0,43.462-11.612,85.111,85.111,0,0,0,30.794-30.794,87.01,87.01,0,0,0,11.753-43.856,84.746,84.746,0,0,0-6.767-33.948A86.694,86.694,0,0,0,398.54,480.363Z" transform="translate(-244.887 -433.465)" fill="none" stroke="#9eebc2" stroke-width="4"/>
      <text id="_2." data-name="2." transform="translate(26.718 58.724)" fill="#eb3c70" font-size="64" font-family="SegoeUI-Bold, Segoe UI" font-weight="700"><tspan x="-27.078" y="0">2.</tspan></text>
    </g>
    <g id="Grupo_365" data-name="Grupo 365" transform="translate(89.36 103.796)">
      <path id="Caminho_625" data-name="Caminho 625" d="M279.625,152.206v93.485a4.238,4.238,0,0,0,4.238,4.238h74.575a4.239,4.239,0,0,0,4.238-4.238V152.206Zm0,0" transform="translate(-277.972 -138.705)" fill="#dfebfa"/>
      <path id="Caminho_626" data-name="Caminho 626" d="M286.9,245.691V152.206h-7.275v93.485a4.238,4.238,0,0,0,4.238,4.238h7.275a4.238,4.238,0,0,1-4.238-4.238Zm0,0" transform="translate(-277.972 -138.705)" fill="#aeecff"/>
      <path id="Caminho_627" data-name="Caminho 627" d="M386.523,111.913H319.4V124.2h71.358v-8.047a4.239,4.239,0,0,0-4.238-4.238Zm0,0" transform="translate(-306.057 -110.256)" fill="#aeecff"/>
      <path id="Caminho_628" data-name="Caminho 628" d="M291.758,111.913h-7.9a4.238,4.238,0,0,0-4.238,4.238V124.2h12.133Zm0,0" transform="translate(-277.972 -110.256)" fill="#f45687"/>
      <path id="Caminho_629" data-name="Caminho 629" d="M291.138,111.913h-7.275a4.238,4.238,0,0,0-4.238,4.238V124.2H286.9v-8.047a4.238,4.238,0,0,1,4.238-4.238Zm0,0" transform="translate(-277.972 -110.256)" fill="#eb3c70"/>
      <path id="Caminho_636" data-name="Caminho 636" d="M329.4,309.749h-16.36a2.258,2.258,0,0,0-2.258,2.258V324.8a2.258,2.258,0,0,0,2.258,2.26H329.4a2.259,2.259,0,0,0,2.26-2.26V312.007a2.259,2.259,0,0,0-2.26-2.258Zm0,0" transform="translate(-299.967 -249.939)" fill="#9eebc2"/>
      <path id="Caminho_637" data-name="Caminho 637" d="M329.4,393.94h-16.36a2.258,2.258,0,0,0-2.258,2.26v12.794a2.258,2.258,0,0,0,2.258,2.259H329.4a2.259,2.259,0,0,0,2.26-2.259V396.2a2.259,2.259,0,0,0-2.26-2.26Zm0,0" transform="translate(-299.967 -309.383)" fill="#9eebc2"/>
      <path id="Caminho_638" data-name="Caminho 638" d="M399.009,127.174h-54.64a1.653,1.653,0,0,0,0,3.307h54.64a1.653,1.653,0,1,0,0-3.307Zm0,0" transform="translate(-322.517 -121.031)"/>
      <path id="Caminho_639" data-name="Caminho 639" d="M329.338,308.024a3.917,3.917,0,0,0-3.913-3.912h-16.36a3.916,3.916,0,0,0-3.912,3.912v12.794a3.917,3.917,0,0,0,3.912,3.913h16.36a3.918,3.918,0,0,0,3.913-3.913Zm-3.307,12.794a.607.607,0,0,1-.606.606h-16.36a.606.606,0,0,1-.6-.606V308.024a.605.605,0,0,1,.6-.605h16.36a.606.606,0,0,1,.606.605Zm0,0" transform="translate(-295.996 -245.959)"/>
      <path id="Caminho_640" data-name="Caminho 640" d="M325.425,388.3h-16.36a3.917,3.917,0,0,0-3.912,3.913v12.794a3.917,3.917,0,0,0,3.912,3.913h16.36a3.918,3.918,0,0,0,3.913-3.913V392.216a3.918,3.918,0,0,0-3.913-3.913Zm.606,16.708a.606.606,0,0,1-.606.605h-16.36a.605.605,0,0,1-.6-.605V392.216a.606.606,0,0,1,.6-.606h16.36a.607.607,0,0,1,.606.606Zm0,0" transform="translate(-295.996 -305.403)"/>
      <path id="Caminho_641" data-name="Caminho 641" d="M438.8,311.362H404.278a1.653,1.653,0,1,0,0,3.307H438.8a1.653,1.653,0,0,0,0-3.307Zm0,0" transform="translate(-364.817 -251.078)"/>
      <path id="Caminho_642" data-name="Caminho 642" d="M438.8,333.561H404.278a1.653,1.653,0,1,0,0,3.307H438.8a1.653,1.653,0,0,0,0-3.307Zm0,0" transform="translate(-364.817 -266.752)"/>
      <path id="Caminho_643" data-name="Caminho 643" d="M438.8,355.76H404.278a1.653,1.653,0,1,0,0,3.307H438.8a1.653,1.653,0,1,0,0-3.307Zm0,0" transform="translate(-364.817 -282.426)"/>
      <path id="Caminho_644" data-name="Caminho 644" d="M438.8,395.553H404.278a1.653,1.653,0,1,0,0,3.307H438.8a1.653,1.653,0,0,0,0-3.307Zm0,0" transform="translate(-364.817 -310.522)"/>
      <path id="Caminho_645" data-name="Caminho 645" d="M438.8,417.753H404.278a1.653,1.653,0,1,0,0,3.307H438.8a1.653,1.653,0,0,0,0-3.307Zm0,0" transform="translate(-364.817 -326.196)"/>
      <path id="Caminho_646" data-name="Caminho 646" d="M438.8,439.956H404.278a1.653,1.653,0,1,0,0,3.307H438.8a1.653,1.653,0,0,0,0-3.307Zm0,0" transform="translate(-364.817 -341.873)"/>
      <path id="Caminho_647" data-name="Caminho 647" d="M336.48,327.243l-2.83,2.83-1.491-1.49a1.653,1.653,0,1,0-2.338,2.338l2.659,2.66a1.655,1.655,0,0,0,2.339,0l4-4a1.653,1.653,0,1,0-2.338-2.338Zm0,0" transform="translate(-313.07 -261.949)"/>
      <path id="Caminho_648" data-name="Caminho 648" d="M336.48,411.434l-2.83,2.832-1.491-1.491a1.653,1.653,0,1,0-2.338,2.339l2.659,2.659a1.654,1.654,0,0,0,2.339,0l4-4a1.653,1.653,0,1,0-2.338-2.339Zm0,0" transform="translate(-313.07 -321.393)"/>
      <g id="Grupo_380" data-name="Grupo 380">
        <path id="Caminho_630" data-name="Caminho 630" d="M383.915,176.717a15.392,15.392,0,0,0-9.544,27.47v-3.909a5.031,5.031,0,0,1,4.775-5.227h9.536a5.032,5.032,0,0,1,4.777,5.227v3.909a15.392,15.392,0,0,0-9.544-27.47Zm0,0" transform="translate(-340.736 -156.011)" fill="#aeecff"/>
        <path id="Caminho_631" data-name="Caminho 631" d="M375.409,192.112a15.4,15.4,0,0,1,11.951-15,15.392,15.392,0,0,0-12.989,27.079v-3.909A5.44,5.44,0,0,1,376,196.354a15.4,15.4,0,0,1-.594-4.242Zm0,0" transform="translate(-340.736 -156.011)" fill="#83d3f2"/>
        <path id="Caminho_632" data-name="Caminho 632" d="M413,205.1a5.629,5.629,0,1,1-5.628-5.629A5.629,5.629,0,0,1,413,205.1Zm0,0" transform="translate(-364.193 -172.074)" fill="#ffcebe"/>
        <path id="Caminho_633" data-name="Caminho 633" d="M406.6,205.1a5.629,5.629,0,0,1,3.2-5.081,5.628,5.628,0,1,0,0,10.162,5.629,5.629,0,0,1-3.2-5.081Zm0,0" transform="translate(-364.196 -172.074)" fill="#ffb1a0"/>
        <path id="Caminho_634" data-name="Caminho 634" d="M402.17,237.764h-9.835a4.94,4.94,0,0,0-4.925,4.926v4.361a15.388,15.388,0,0,0,19.685,0V242.69a4.94,4.94,0,0,0-4.926-4.926Zm0,0" transform="translate(-354.074 -199.114)" fill="#f45687"/>
        <path id="Caminho_635" data-name="Caminho 635" d="M392.261,242.249a4.941,4.941,0,0,1,2.9-4.485h-2.822a4.94,4.94,0,0,0-4.926,4.926v4.361a15.373,15.373,0,0,0,4.85,2.727Zm0,0" transform="translate(-354.074 -199.114)" fill="#eb3c70"/>
        <path id="Caminho_649" data-name="Caminho 649" d="M379.944,206.347a17.051,17.051,0,0,0,4.271-33.558,1.654,1.654,0,0,0-.827,3.2,13.731,13.731,0,0,1,8.051,20.821v-.039a6.589,6.589,0,0,0-5.462-6.483,7.282,7.282,0,1,0-12.069,0,6.59,6.59,0,0,0-5.462,6.483v.039a13.733,13.733,0,0,1,8.051-20.821,1.653,1.653,0,0,0-.825-3.2,17.051,17.051,0,0,0,4.271,33.558Zm0-24.1a3.975,3.975,0,1,1-3.975,3.975,3.979,3.979,0,0,1,3.975-3.975Zm-8.189,14.529a3.276,3.276,0,0,1,3.272-3.272h9.835a3.276,3.276,0,0,1,3.271,3.272v3.553a13.709,13.709,0,0,1-16.378,0Zm0,0" transform="translate(-336.765 -153.201)"/>
      </g>
      <path id="Caminho_650" data-name="Caminho 650" d="M274,112.167V213.259a5.9,5.9,0,0,0,5.891,5.891h74.575a5.9,5.9,0,0,0,5.892-5.891V166.571a1.653,1.653,0,1,0-3.307,0v46.688a2.589,2.589,0,0,1-2.586,2.585H279.891a2.588,2.588,0,0,1-2.585-2.585V121.868h79.744v36.987a1.653,1.653,0,1,0,3.307,0V112.167a5.9,5.9,0,0,0-5.892-5.892H279.891A5.9,5.9,0,0,0,274,112.167Zm15.44-2.585h65.026a2.588,2.588,0,0,1,2.585,2.585v6.393H289.44Zm-3.307,8.978h-8.827v-6.393a2.588,2.588,0,0,1,2.585-2.585h6.242Zm0,0" transform="translate(-274 -106.276)"/>
    </g>
  </g>
</svg>
