<svg xmlns="http://www.w3.org/2000/svg" width="195.514" height="217.602" viewBox="0 0 195.514 217.602">
  <g id="Grupo_86" data-name="Grupo 86" transform="translate(0.69 10.276)">
    <g id="Grupo_83" data-name="Grupo 83" transform="translate(0)">
      <path id="Caminho_95" data-name="Caminho 95" d="M398.54,480.363a85.6,85.6,0,0,0-60.862-24.88A88.04,88.04,0,0,0,314.5,458.5a86.913,86.913,0,0,0-20.682,8.534,83.612,83.612,0,0,0-17.4,13.33,87.489,87.489,0,0,0-22.055,84.431,87.16,87.16,0,0,0,8.662,20.682A84.952,84.952,0,0,0,314.5,624.867a88.073,88.073,0,0,0,23.174,3.014,85.675,85.675,0,0,0,43.462-11.612,85.111,85.111,0,0,0,30.794-30.794,87.01,87.01,0,0,0,11.753-43.856,84.746,84.746,0,0,0-6.767-33.948A86.694,86.694,0,0,0,398.54,480.363Zm-26.786,77.473A38.468,38.468,0,0,1,364.4,570.9a34.839,34.839,0,0,1-11.689,8.738,36.153,36.153,0,0,1-15.428,3.205,37.688,37.688,0,0,1-15.823-3.205,35.848,35.848,0,0,1-11.943-8.738,39.017,39.017,0,0,1-7.619-13.063,49.547,49.547,0,0,1,0-32.243,42.049,42.049,0,0,1,7.619-13.393,35.686,35.686,0,0,1,11.943-9.12,36.228,36.228,0,0,1,15.823-3.345A34.372,34.372,0,0,1,364.4,512.2a41.455,41.455,0,0,1,7.352,13.393,52.112,52.112,0,0,1,0,32.243Z" transform="translate(-228.863 -420.556)" fill="#ffeff4"/>
      <path id="Caminho_96" data-name="Caminho 96" d="M398.54,480.363a85.6,85.6,0,0,0-60.862-24.88A88.04,88.04,0,0,0,314.5,458.5a86.913,86.913,0,0,0-20.682,8.534,83.612,83.612,0,0,0-17.4,13.33,87.489,87.489,0,0,0-22.055,84.431,87.16,87.16,0,0,0,8.662,20.682A84.952,84.952,0,0,0,314.5,624.867a88.073,88.073,0,0,0,23.174,3.014,85.675,85.675,0,0,0,43.462-11.612,85.111,85.111,0,0,0,30.794-30.794,87.01,87.01,0,0,0,11.753-43.856,84.746,84.746,0,0,0-6.767-33.948A86.694,86.694,0,0,0,398.54,480.363Z" transform="translate(-245.461 -433.465)" fill="none" stroke="#9eebc2" stroke-width="4"/>
      <text id="_3." data-name="3." transform="translate(27.31 59.724)" fill="#eb3c70" font-size="65" font-family="SegoeUI-Bold, Segoe UI" font-weight="700"><tspan x="-27.501" y="0">3.</tspan></text>
    </g>
  </g>
</svg>
