<svg xmlns="http://www.w3.org/2000/svg" width="50.973" height="57.592" viewBox="0 0 50.973 57.592">
  <g id="Grupo_204" data-name="Grupo 204" transform="translate(-251 -106.276)">
    <path id="Caminho_177" data-name="Caminho 177" d="M391.712,327.839c-7.779-.019-7.4-.03-7.842.168L380,329.732a3.185,3.185,0,0,0-1.886,2.908c0,.358,0,.659,0,.915a1.043,1.043,0,0,1-2.082.082c-.006-.105,0-.056,0-1.926a3.183,3.183,0,0,1,1.885-2.908l3.865-1.725c.5-.223.027-.162,9.338-.162a1.84,1.84,0,0,1,.757.162.4.4,0,0,1-.162.761Zm0,0" transform="translate(-106.277 -187.543)" fill="#fff"/>
    <path id="Caminho_180" data-name="Caminho 180" d="M296.4,106.276H261.1a5.58,5.58,0,0,0-5.573,5.573v5A4.648,4.648,0,0,0,251,121.487v1.626a4.649,4.649,0,0,0,4.528,4.642V142.39A4.649,4.649,0,0,0,251,147.031v1.626a4.649,4.649,0,0,0,4.528,4.642v5a5.58,5.58,0,0,0,5.573,5.573h35.3a5.58,5.58,0,0,0,5.573-5.573V111.849a5.58,5.58,0,0,0-5.573-5.573Zm-41.684,16.836v-1.626a.93.93,0,0,1,.929-.929h3.484a.93.93,0,0,1,.929.929v1.626a.931.931,0,0,1-.929.929h-3.484a.93.93,0,0,1-.929-.929Zm0,25.545v-1.626a.93.93,0,0,1,.929-.929h3.484a.931.931,0,0,1,.929.929v1.626a.93.93,0,0,1-.929.929h-3.484a.93.93,0,0,1-.929-.929Zm43.542,9.637a1.86,1.86,0,0,1-1.858,1.858H261.1a1.86,1.86,0,0,1-1.858-1.858v-5a4.649,4.649,0,0,0,4.529-4.641v-1.626a4.649,4.649,0,0,0-4.529-4.642V127.754a4.649,4.649,0,0,0,4.529-4.642v-1.626a4.649,4.649,0,0,0-4.529-4.641v-5a1.86,1.86,0,0,1,1.858-1.858h35.3a1.86,1.86,0,0,1,1.858,1.858ZM280.58,135.627a8.162,8.162,0,1,0-8.162-8.162,8.171,8.171,0,0,0,8.162,8.162Zm0-12.608a4.446,4.446,0,1,1-4.446,4.446,4.451,4.451,0,0,1,4.446-4.446Zm12.626,21.149v3.653a1.858,1.858,0,1,1-3.715,0v-3.653a1.327,1.327,0,0,0-.785-1.21l-3.865-1.725H276.26l-3.865,1.725a1.327,1.327,0,0,0-.785,1.21v3.653a1.858,1.858,0,1,1-3.715,0v-3.653a5.046,5.046,0,0,1,2.985-4.6c4.588-2.049,4.455-2.049,4.984-2.049,10.152,0,9.626-.064,10.131.162l4.226,1.887a5.047,5.047,0,0,1,2.985,4.6Zm0,0" fill="#fff"/>
  </g>
</svg>
