<svg xmlns="http://www.w3.org/2000/svg" width="44.367" height="58.235" viewBox="0 0 44.367 58.235">
  <path id="Caminho_243" data-name="Caminho 243" d="M312.458,106.276H279.364a5.639,5.639,0,0,0-5.633,5.633c0,41.89-.046,39.361.1,39.79a1.89,1.89,0,0,0,.45.73c.117.118,11.522,11.536,11.688,11.664.742.572-.4.39,26.492.39a5.639,5.639,0,0,0,5.633-5.633V111.909a5.64,5.64,0,0,0-5.633-5.633Zm-27.226,51.8-5.09-5.091h5.09Zm29.1.777a1.88,1.88,0,0,1-1.878,1.878H288.987v-9.623a1.878,1.878,0,0,0-1.878-1.878h-9.623V111.909a1.88,1.88,0,0,1,1.878-1.878h33.094a1.88,1.88,0,0,1,1.878,1.878Zm-5.985-14.669a1.878,1.878,0,0,1-1.878,1.877H285.232a1.878,1.878,0,1,1,0-3.755h21.241a1.878,1.878,0,0,1,1.878,1.878Zm0,9.623a1.878,1.878,0,0,1-1.878,1.878H294.386a1.878,1.878,0,1,1,0-3.756h12.087a1.878,1.878,0,0,1,1.878,1.878ZM295.834,126a6.32,6.32,0,1,0-6.32-6.32,6.327,6.327,0,0,0,6.32,6.32Zm0-8.884a2.565,2.565,0,1,1-2.565,2.565,2.567,2.567,0,0,1,2.565-2.565ZM286.326,135.2v-2.575a4.125,4.125,0,0,1,2.441-3.762l2.978-1.33c.5-.223.149-.163,7.37-.163.528,0,.51.049,3.743,1.493a4.124,4.124,0,0,1,2.441,3.762V135.2a1.878,1.878,0,1,1-3.755,0v-2.575a.366.366,0,0,0-.217-.333l-2.612-1.166h-5.8L290.3,132.29a.365.365,0,0,0-.216.333V135.2a1.878,1.878,0,1,1-3.755,0Zm0,0" transform="translate(-273.724 -106.276)" fill="#fff"/>
</svg>
