<svg xmlns="http://www.w3.org/2000/svg" width="44.736" height="57.78" viewBox="0 0 44.736 57.78">
  <path id="Caminho_237" data-name="Caminho 237" d="M316.657,150.6c.1-.355.076,2.369.076-42.461a1.864,1.864,0,0,0-1.864-1.864H273.864A1.864,1.864,0,0,0,272,108.14v54.052a1.864,1.864,0,0,0,1.864,1.864h28.888a1.87,1.87,0,0,0,1.035-.312c.229-.153,12.413-12.347,12.542-12.51a1.82,1.82,0,0,0,.328-.633ZM275.728,110h37.278v38.21H302.754a1.864,1.864,0,0,0-1.864,1.864v10.251H275.728Zm28.89,47.689v-5.751h5.751Zm-17.707-27.409a1.739,1.739,0,0,0-1.172-1.643l-2.6-.9a5.465,5.465,0,0,1,.044-10.348v-1.736a1.864,1.864,0,0,1,3.728,0v1.736a5.474,5.474,0,0,1,3.728,5.18,1.864,1.864,0,1,1-3.728,0,1.74,1.74,0,0,0-1.738-1.738h-.252a1.738,1.738,0,0,0-.567,3.382l2.6.9a5.465,5.465,0,0,1-.043,10.348V137.2a1.864,1.864,0,0,1-3.728,0v-1.736a5.475,5.475,0,0,1-3.728-5.181,1.864,1.864,0,0,1,3.728,0,1.74,1.74,0,0,0,1.738,1.738h.252a1.739,1.739,0,0,0,1.738-1.737Zm8.737-11.309a1.864,1.864,0,0,1,1.864-1.864h9.9a1.864,1.864,0,1,1,0,3.728h-9.9a1.864,1.864,0,0,1-1.864-1.864Zm0,9.32a1.864,1.864,0,0,1,1.864-1.864h9.9a1.864,1.864,0,0,1,0,3.728h-9.9a1.864,1.864,0,0,1-1.864-1.864Zm0,9.319a1.864,1.864,0,0,1,1.864-1.864h9.9a1.864,1.864,0,0,1,0,3.728h-9.9a1.864,1.864,0,0,1-1.864-1.864Zm2.446,9.32a1.864,1.864,0,0,1-1.864,1.864H281.2a1.864,1.864,0,0,1,0-3.728H296.23a1.864,1.864,0,0,1,1.864,1.864Zm0,0" transform="translate(-272 -106.276)" fill="#fff"/>
</svg>
