<svg xmlns="http://www.w3.org/2000/svg" width="62" height="56.5" viewBox="0 0 62 56.5">
  <g id="Grupo_229" data-name="Grupo 229" transform="translate(-228 -123.276)">
    <path id="Caminho_253" data-name="Caminho 253" d="M284,123.276H234a6.007,6.007,0,0,0-6,6v34a6.007,6.007,0,0,0,6,6h16.593l-1.548,6.5h-4.67a2,2,0,0,0,0,4h29.25a2,2,0,1,0,0-4h-4.67l-1.548-6.5H284a6.007,6.007,0,0,0,6-6v-34a6.007,6.007,0,0,0-6-6Zm-50,4h50a2,2,0,0,1,2,2v28.937H272.625v-1.362a5.426,5.426,0,0,0-3.211-4.95c-5.678-2.535-4.415-2.2-6.933-2.2a2,2,0,0,0-1.942,1.522,1.566,1.566,0,0,1-3.037,0,2,2,0,0,0-1.942-1.522c-1.682,0-1.9-.045-2.392.174l-4.542,2.028a5.426,5.426,0,0,0-3.211,4.95v1.362H232V129.276a2,2,0,0,1,2-2Zm34.625,30.938H249.416v-1.362a1.422,1.422,0,0,1,.841-1.3l4.019-1.795a5.572,5.572,0,0,0,9.487,0l4.019,1.795a1.422,1.422,0,0,1,.842,1.3Zm-3.782,17.563H253.157l1.548-6.5H263.3ZM284,165.276H234a2,2,0,0,1-2-2v-1.062h54v1.062a2,2,0,0,1-2,2Zm-24.947-17.6a8.775,8.775,0,1,0-8.775-8.775,8.785,8.785,0,0,0,8.775,8.775Zm0-13.55a4.775,4.775,0,1,1-4.775,4.775,4.78,4.78,0,0,1,4.775-4.775Zm0,0" fill="#fff"/>
  </g>
</svg>
