<svg xmlns="http://www.w3.org/2000/svg" width="997.047" height="603.477" viewBox="0 0 997.047 603.477">
  <g id="Grupo_2677" data-name="Grupo 2677" transform="translate(-63.191 -48.611)">
    <g id="Grupo_2518" data-name="Grupo 2518" transform="translate(63.191 48.611)">
      <g id="Grupo_2486" data-name="Grupo 2486" transform="translate(375.627)">
        <path id="Caminho_1338" data-name="Caminho 1338" d="M324.052,71.184a11.7,11.7,0,0,0,6.971-10.822c.025-6.462-4.864-11.723-10.925-11.752s-10.992,5.188-11.017,11.65a11.678,11.678,0,0,0,6.99,10.923c-16.884,2.543-16.118,20.893-16.118,20.893l39.924.184S340.788,73.712,324.052,71.184Z" transform="translate(-299.949 -48.611)" fill="#e0e0e0"/>
      </g>
      <g id="Grupo_2487" data-name="Grupo 2487" transform="translate(908.102 119.993)">
        <path id="Caminho_1339" data-name="Caminho 1339" d="M654.1,162.42l-18.529-19.933,6-5.577,12.792,13.76,26.861-26.427,5.746,5.839Z" transform="translate(-635.568 -124.242)" fill="#f5f5f5"/>
      </g>
      <path id="Caminho_1340" data-name="Caminho 1340" d="M492.28,223.541c0-13.62-14.311-22.248-28.9-15.421a16.57,16.57,0,0,0-7.677,7.358c-3.671,7.111-2.051,15.231,1.279,21.974l11.355,28.78a4.893,4.893,0,0,0,9.118-.038l11.133-28.931C492.442,228.453,492.28,223.541,492.28,223.541Zm-13.708,11.853c-9.808,5.7-19.749-4.839-14.373-15.242a8.189,8.189,0,0,1,3.114-3.3c9.81-5.7,19.751,4.839,14.372,15.243A8.165,8.165,0,0,1,478.573,235.394Z" transform="translate(165.806 43.546)" fill="#ebebeb"/>
      <g id="Grupo_2499" data-name="Grupo 2499" transform="translate(797.971 251.207)">
        <g id="Grupo_2488" data-name="Grupo 2488">
          <path id="Caminho_1341" data-name="Caminho 1341" d="M595,420.545c-30.578-27.923-32.324-72.189-25.677-110.849,1.111-6.456,1.325-13.39,5.226-18.65s11.726-8.145,17.235-4.6c4.568,2.935,5.929,8.829,8.025,13.838a38.621,38.621,0,0,0,13.419,16.643c3.892,2.718,8.886,4.737,13.325,3.056,6.089-2.307,7.814-9.94,8.655-16.4q2.351-18.041,4.7-36.086c.842-6.456,1.721-13.041,4.591-18.885s8.136-10.909,14.587-11.774,13.654,3.73,14.1,10.222c.187,2.7-.73,5.355-.914,8.055s.676,5.838,3.149,6.94c2.5,1.114,5.367-.357,7.581-1.974,7.635-5.586,13.357-13.344,18.775-21.1S712.517,223.257,719.607,217s16.325-10.727,25.753-9.965,18.618,7.834,19.743,17.227c1.128,9.418-5.509,17.9-12.362,24.458a146.218,146.218,0,0,1-34.272,24.4c-2.258,1.16-4.7,2.413-5.818,4.691-2.005,4.1,1.537,8.943,5.643,10.949,4.653,2.267,10,2.5,15.017,3.787s10.231,4.268,11.509,9.284c1.774,6.963-4.756,13.1-10.871,16.873a126.464,126.464,0,0,1-39.859,15.984c-5.044,1.077-10.308,1.9-14.641,4.7s-7.463,8.275-5.745,13.138,7.534,7.151,12.694,6.921,10.036-2.308,15.079-3.436c9.437-2.11,20.947.1,25.651,8.544,3.091,5.553,2.464,12.61-.268,18.35s-7.315,10.374-12.085,14.576c-16.67,14.688-36.928,25.572-58.732,29.838s-41.367,3.544-61.045-6.771" transform="translate(-566.153 -206.947)" fill="#ebebeb"/>
        </g>
        <g id="Grupo_2490" data-name="Grupo 2490" transform="translate(31.274 7.169)">
          <g id="Grupo_2489" data-name="Grupo 2489">
            <path id="Caminho_1342" data-name="Caminho 1342" d="M585.865,433.629c3.54-15.185,2.643-19.868,11.155-38.647,8.477-18.8,19.5-38.642,31.752-59.007q4.624-7.618,9.13-15.044c3-4.933,5.984-9.819,9.2-14.422a291,291,0,0,1,20.011-25.4c6.763-7.772,13.47-14.906,19.791-21.534s12.356-12.67,18.085-17.956a233.519,233.519,0,0,1,28.88-22.94c3.614-2.437,6.476-4.238,8.432-5.437l2.232-1.347c.506-.3.777-.432.777-.432s-.235.189-.723.516l-2.181,1.431c-1.918,1.252-4.749,3.1-8.321,5.585a243.868,243.868,0,0,0-28.621,23.133c-5.686,5.307-11.668,11.379-17.971,18.01-6.287,6.648-12.962,13.792-19.694,21.568a292.5,292.5,0,0,0-19.9,25.35c-3.194,4.585-6.148,9.44-9.158,14.385s-6.042,9.962-9.123,15.039c-12.242,20.352-23.268,40.141-31.769,58.875-8.536,18.712-7.689,23.314-11.3,38.432" transform="translate(-585.865 -211.465)" fill="#e0e0e0"/>
          </g>
        </g>
        <g id="Grupo_2492" data-name="Grupo 2492" transform="translate(92.412 29.889)">
          <g id="Grupo_2491" data-name="Grupo 2491">
            <path id="Caminho_1343" data-name="Caminho 1343" d="M624.759,298.048a15.715,15.715,0,0,1-.219-2.84c-.084-1.829-.127-4.48-.138-7.752-.025-6.548.238-15.589.552-25.559s.419-19,.251-25.531c-.073-3.267-.165-5.91-.255-7.734a15.711,15.711,0,0,1-.025-2.846,15.968,15.968,0,0,1,.406,2.818c.209,1.821.406,4.466.569,7.738.348,6.543.352,15.6.038,25.585-.327,9.883-.62,18.826-.841,25.539-.071,3.129-.129,5.732-.173,7.741A15.916,15.916,0,0,1,624.759,298.048Z" transform="translate(-624.4 -225.786)" fill="#e0e0e0"/>
          </g>
        </g>
        <g id="Grupo_2494" data-name="Grupo 2494" transform="translate(92.77 96.643)">
          <g id="Grupo_2493" data-name="Grupo 2493">
            <path id="Caminho_1344" data-name="Caminho 1344" d="M710.747,269.418a3.017,3.017,0,0,1-.884.022l-2.516-.13c-2.183-.122-5.337-.3-9.245-.4-7.8-.26-18.6-.227-30.508.336-11.91.585-22.661,1.579-30.416,2.534-3.879.451-7.009.9-9.174,1.2l-2.5.336a3.027,3.027,0,0,1-.882.052,2.945,2.945,0,0,1,.849-.248c.676-.141,1.488-.314,2.467-.517,2.146-.42,5.267-.979,9.146-1.518,7.747-1.131,18.52-2.239,30.458-2.826,11.934-.565,22.765-.487,30.585-.048,3.911.187,7.07.474,9.245.716l2.5.313A2.978,2.978,0,0,1,710.747,269.418Z" transform="translate(-624.626 -267.861)" fill="#e0e0e0"/>
          </g>
        </g>
        <g id="Grupo_2496" data-name="Grupo 2496" transform="translate(15.759 77.551)">
          <g id="Grupo_2495" data-name="Grupo 2495">
            <path id="Caminho_1345" data-name="Caminho 1345" d="M603.9,367.534a5.281,5.281,0,0,1-.414-1.1c-.262-.833-.595-1.893-1.007-3.2-.866-2.783-2.02-6.84-3.381-11.87-2.734-10.059-6.083-24.066-9.58-39.572s-6.738-29.527-9.3-39.619c-1.276-4.952-2.319-9-3.076-11.944-.34-1.328-.614-2.405-.83-3.249a5.344,5.344,0,0,1-.225-1.153,5.254,5.254,0,0,1,.416,1.1c.262.831.595,1.893,1.007,3.2.865,2.783,2.016,6.841,3.379,11.871,2.735,10.06,6.083,24.068,9.581,39.578s6.738,29.519,9.3,39.614c1.276,4.948,2.32,9,3.076,11.942.34,1.329.614,2.407.828,3.251A5.22,5.22,0,0,1,603.9,367.534Z" transform="translate(-576.086 -255.827)" fill="#e0e0e0"/>
          </g>
        </g>
        <g id="Grupo_2498" data-name="Grupo 2498" transform="translate(43.575 169.075)">
          <g id="Grupo_2497" data-name="Grupo 2497">
            <path id="Caminho_1346" data-name="Caminho 1346" d="M710.1,313.529a5.778,5.778,0,0,1-1.172.276l-3.392.6c-3.07.528-7.3,1.257-12.484,2.145-10.535,1.825-25.06,4.522-41.1,7.541s-30.6,5.612-41.172,7.262c-5.288.828-9.57,1.456-12.538,1.836l-3.421.425a5.611,5.611,0,0,1-1.2.079,5.654,5.654,0,0,1,1.174-.276c.877-.157,2-.359,3.39-.6l12.483-2.145c10.538-1.823,25.063-4.523,41.107-7.542s30.593-5.612,41.166-7.26c5.288-.827,9.572-1.456,12.54-1.837l3.419-.424A5.368,5.368,0,0,1,710.1,313.529Z" transform="translate(-593.618 -313.515)" fill="#e0e0e0"/>
          </g>
        </g>
      </g>
      <g id="Grupo_2507" data-name="Grupo 2507" transform="translate(0 267.669)">
        <path id="Caminho_1347" data-name="Caminho 1347" d="M66.439,219.752s9.451-10.754,31,12.989,31.193,38.191,31.193,38.191,5.285,4.766,8.225-.089,5.461-17.041,12.729-16.947c7.536.1,11.963,7.276,13.749,19.107s6.652,37.611,7.1,39.94c.439,2.286,2.621,5.239,5.155,2.253s15.021-27.814,26.448-21.182,10.987,40.409,11.011,44.1,1.1,4.98,2.965,5.388,5.28-8.334,9.121-15.25,9.508-14.261,15.78-9.883,14.182,27.482,2.194,71.764l-6.9,20.157-20.928,4.465c-45.367,6.824-67.409-3.687-71.039-10.42s4.319-11.518,11.631-14.541,16.386-5.407,16.2-7.309-1.345-3.119-5.012-3.565-37.273-3.889-42.548-16,20.822-21.667,24.079-23.841.574-4.679-1.647-5.38c-2.262-.712-27.311-8.505-38.859-11.639s-18.171-8.355-17.4-15.853c.743-7.231,13.138-8.336,18.3-10.7s1.033-8.16,1.033-8.16-13.246-11.242-34.357-35.374-9.007-32.431-9.007-32.431" transform="translate(-63.191 -217.323)" fill="#ebebeb"/>
        <g id="Grupo_2500" data-name="Grupo 2500" transform="translate(22.579 23.66)">
          <path id="Caminho_1348" data-name="Caminho 1348" d="M77.423,232.236a2.992,2.992,0,0,1,.417.413c.29.314.673.733,1.161,1.264l4.4,4.915,16.121,18.141,53.421,59.643c20.914,23.257,39.748,44.4,53.252,59.817l15.924,18.313c1.837,2.151,3.275,3.835,4.287,5.018.46.554.823.988,1.1,1.318a3.181,3.181,0,0,1,.354.468,2.991,2.991,0,0,1-.417-.413c-.29-.316-.673-.735-1.161-1.264-1.038-1.16-2.515-2.81-4.4-4.915L205.76,376.815c-13.614-15.317-32.516-36.394-53.43-59.651s-39.738-44.391-53.243-59.808c-6.7-7.706-12.132-13.954-15.926-18.315-1.836-2.151-3.275-3.835-4.285-5.018l-1.1-1.318A3.131,3.131,0,0,1,77.423,232.236Z" transform="translate(-77.423 -232.236)" fill="#e0e0e0"/>
        </g>
        <g id="Grupo_2501" data-name="Grupo 2501" transform="translate(83.234 53.764)">
          <path id="Caminho_1349" data-name="Caminho 1349" d="M115.972,251.21a43.583,43.583,0,0,1,.282,5.723c.119,3.755.268,8.528.433,13.806.179,5.393.306,10.281.29,13.824-.011,1.772-.051,3.2-.109,4.195a5.572,5.572,0,0,1-.182,1.534,53.007,53.007,0,0,1-.292-5.719c-.146-3.755-.328-8.528-.533-13.808-.178-5.394-.241-10.286-.19-13.827.03-1.771.07-3.2.13-4.192A5.63,5.63,0,0,1,115.972,251.21Z" transform="translate(-115.653 -251.21)" fill="#e0e0e0"/>
        </g>
        <g id="Grupo_2502" data-name="Grupo 2502" transform="translate(37.405 92.877)">
          <path id="Caminho_1350" data-name="Caminho 1350" d="M131.841,276.71c0,.228-10.1.268-22.542.09s-22.535-.508-22.532-.736,10.094-.268,22.543-.09S131.844,276.482,131.841,276.71Z" transform="translate(-86.767 -275.863)" fill="#e0e0e0"/>
        </g>
        <g id="Grupo_2503" data-name="Grupo 2503" transform="translate(82.459 133)">
          <path id="Caminho_1351" data-name="Caminho 1351" d="M154,301.167a5.846,5.846,0,0,1-1.45.619c-.949.352-2.337.816-4.058,1.366-3.449,1.085-8.255,2.467-13.635,3.708s-10.3,2.139-13.876,2.675c-1.788.271-3.24.457-4.246.563a5.762,5.762,0,0,1-1.574.079,47.4,47.4,0,0,1,5.719-1.218c3.544-.682,8.431-1.653,13.79-2.9s10.171-2.524,13.655-3.465A46.552,46.552,0,0,1,154,301.167Z" transform="translate(-115.165 -301.153)" fill="#e0e0e0"/>
        </g>
        <g id="Grupo_2504" data-name="Grupo 2504" transform="translate(120.858 97.084)">
          <path id="Caminho_1352" data-name="Caminho 1352" d="M148.735,278.515a34.867,34.867,0,0,1-1.087,5.3c-.774,3.246-1.9,7.717-3.187,12.642s-2.505,9.373-3.424,12.583a35.032,35.032,0,0,1-1.652,5.15,34.861,34.861,0,0,1,1.087-5.3c.773-3.246,1.9-7.717,3.189-12.643s2.5-9.372,3.422-12.581A35.025,35.025,0,0,1,148.735,278.515Z" transform="translate(-139.368 -278.515)" fill="#e0e0e0"/>
        </g>
        <g id="Grupo_2505" data-name="Grupo 2505" transform="translate(156.471 127.415)">
          <path id="Caminho_1353" data-name="Caminho 1353" d="M174.247,297.633a8.192,8.192,0,0,1-.333,1.836c-.327,1.331-.728,2.976-1.2,4.921-1.052,4.146-2.559,9.859-4.274,16.154s-3.313,11.986-4.507,16.094l-1.458,4.852a8.212,8.212,0,0,1-.643,1.75,7.984,7.984,0,0,1,.332-1.834q.49-2,1.2-4.921c1.052-4.146,2.559-9.859,4.276-16.157s3.311-11.985,4.506-16.091c.576-1.918,1.065-3.54,1.458-4.853A8.039,8.039,0,0,1,174.247,297.633Z" transform="translate(-161.815 -297.633)" fill="#e0e0e0"/>
        </g>
        <g id="Grupo_2506" data-name="Grupo 2506" transform="translate(106.891 171.836)">
          <path id="Caminho_1354" data-name="Caminho 1354" d="M180.147,325.644a9.305,9.305,0,0,1-1.882.665c-1.225.381-3.011.885-5.224,1.483-4.428,1.184-10.582,2.7-17.441,4.087s-13.114,2.421-17.655,3.056c-2.27.32-4.112.546-5.388.677a9.122,9.122,0,0,1-1.993.122,9.424,9.424,0,0,1,1.947-.439l5.342-.938c4.512-.781,10.738-1.891,17.582-3.287s13-2.807,17.465-3.846L178.183,326A9.167,9.167,0,0,1,180.147,325.644Z" transform="translate(-130.564 -325.631)" fill="#e0e0e0"/>
        </g>
      </g>
      <g id="Grupo_2517" data-name="Grupo 2517" transform="translate(242.761 21.826)">
        <g id="Grupo_2516" data-name="Grupo 2516">
          <g id="Grupo_2511" data-name="Grupo 2511">
            <g id="Grupo_2510" data-name="Grupo 2510">
              <g id="Grupo_2509" data-name="Grupo 2509">
                <g id="Grupo_2508" data-name="Grupo 2508">
                  <path id="Caminho_1355" data-name="Caminho 1355" d="M249.677,82.352h-3.966l-8.658-12.064V62.37s-6.132-.378-5.41,9.99-.059,7.73-.059,7.73-13.019.049-14.1,1.18c-.787.822-1.142,13.755-1.279,20.769a7.594,7.594,0,0,0,5.382,7.649,5.69,5.69,0,0,0,1.4.189c3.246,0,19.838-2.64,19.838-2.64h6.852Z" transform="translate(-216.203 -62.368)" fill="#e63c70"/>
                </g>
              </g>
            </g>
          </g>
          <g id="Grupo_2515" data-name="Grupo 2515" transform="translate(35.598 17.811)">
            <g id="Grupo_2514" data-name="Grupo 2514">
              <g id="Grupo_2513" data-name="Grupo 2513">
                <g id="Grupo_2512" data-name="Grupo 2512">
                  <path id="Caminho_1356" data-name="Caminho 1356" d="M247.874,73.594l-2.44,27.133H238.64V74.14Z" transform="translate(-238.64 -73.594)" fill="#e63c70"/>
                </g>
              </g>
            </g>
          </g>
        </g>
      </g>
    </g>
    <g id="Grupo_2520" data-name="Grupo 2520" transform="translate(73.603 303.53)">
      <g id="Grupo_2519" data-name="Grupo 2519">
        <path id="Caminho_1357" data-name="Caminho 1357" d="M138.131,261.235a4.648,4.648,0,0,0,2.245-.793,4.24,4.24,0,0,0,1.594-2.339,6.917,6.917,0,0,0,.148-1.844q0-1.014.013-2.151c.056-6.124.136-14.907.235-25.742q.045-4.077.1-8.529.026-2.225.052-4.538a12.845,12.845,0,0,0-.065-2.256,3.847,3.847,0,0,0-1-1.905,3.625,3.625,0,0,0-1.91-1.03,19.081,19.081,0,0,0-2.386-.06q-2.477,0-5.031.011l-10.5.017-46.751.036a3.793,3.793,0,0,0-3.69,3.486q-.052,3.056-.1,6.069-.09,6.057-.176,11.926c-.121,7.818-.236,15.361-.346,22.548q-.021,1.347-.043,2.676a3.982,3.982,0,0,0,.566,2.324,3.63,3.63,0,0,0,1.783,1.491,6.325,6.325,0,0,0,2.407.243l9.9.021,17.777.049,25.74.129,7,.078,1.821.041a3.372,3.372,0,0,1,.619.041,3.435,3.435,0,0,1-.619.043l-1.821.041-7,.078-25.74.133-17.777.051-9.9.022a6.986,6.986,0,0,1-2.672-.282,4.385,4.385,0,0,1-2.153-1.785,4.757,4.757,0,0,1-.687-2.729q.017-1.33.035-2.676c.1-7.187.194-14.729.3-22.548q.081-5.864.165-11.928.05-3.041.1-6.13a4.621,4.621,0,0,1,4.512-4.238l46.751.029,10.5.017,5.031.01a18.641,18.641,0,0,1,2.516.082,4.318,4.318,0,0,1,2.272,1.238,4.514,4.514,0,0,1,1.169,2.25,13.1,13.1,0,0,1,.065,2.4q-.038,2.313-.076,4.538-.079,4.448-.149,8.529c-.209,10.831-.379,19.613-.5,25.737q-.026,1.138-.049,2.151a6.968,6.968,0,0,1-.2,1.9,4.386,4.386,0,0,1-1.736,2.41,4,4,0,0,1-1.717.646A2.267,2.267,0,0,1,138.131,261.235Z" transform="translate(-69.754 -209.287)" fill="#455a64"/>
      </g>
      <path id="Caminho_1358" data-name="Caminho 1358" d="M97.963,224.972l8.665,5.259-8.852,5.194-8.852,5.194.186-10.453.186-10.453Z" transform="translate(-58.509 -203.171)" fill="#455a64"/>
    </g>
    <g id="Grupo_2521" data-name="Grupo 2521" transform="translate(882.62 142.79)">
      <path id="Caminho_1359" data-name="Caminho 1359" d="M612.661,138.86a16.007,16.007,0,0,0,9.538-14.809c.036-8.842-6.656-16.042-14.948-16.08s-15.04,7.1-15.077,15.942a15.979,15.979,0,0,0,9.567,14.947c-23.1,3.481-22.056,28.591-22.056,28.591l54.633.251S635.563,142.321,612.661,138.86Z" transform="translate(-579.677 -107.972)" fill="#e63c70"/>
    </g>
    <g id="Grupo_2525" data-name="Grupo 2525" transform="translate(502.763 116.771)">
      <g id="Grupo_2523" data-name="Grupo 2523">
        <rect id="Retângulo_219" data-name="Retângulo 219" width="88.99" height="59.982" transform="translate(0.494 8.765) rotate(-5.419)" fill="#fff"/>
        <g id="Grupo_2522" data-name="Grupo 2522">
          <path id="Caminho_1360" data-name="Caminho 1360" d="M435.006,151.646s-.06-.386-.141-1.1q-.121-1.128-.338-3.167c-.286-2.8-.7-6.855-1.225-12.028-1.028-10.389-2.5-25.266-4.29-43.384l.36.3-88.578,8.485c-.087.1.7-.849.366-.441l0,.016,0,.032,0,.062.013.124.024.251.046.5.1.995.189,1.986q.188,1.985.374,3.954l.739,7.822q.733,7.763,1.442,15.267c.939,10,1.842,19.6,2.7,28.7l-.412-.341,63.774-5.862,18.266-1.631,4.875-.417,1.268-.1a3.684,3.684,0,0,1,.446-.021,2.611,2.611,0,0,1-.4.06l-1.22.138-4.791.5-18.163,1.826-63.985,6.257-.376.036-.036-.378-2.748-28.7q-.714-7.5-1.455-15.267-.369-3.881-.744-7.822-.188-1.97-.376-3.954l-.187-1.986-.1-.995-.048-.5-.024-.249-.011-.125-.006-.062,0-.032,0-.016c-.333.4.452-.558.379-.458L429.308,91.6l.332-.032.03.328c1.655,18.218,3.014,33.176,3.963,43.622.452,5.148.806,9.183,1.05,11.969q.167,2.006.259,3.113C435,151.3,435.006,151.646,435.006,151.646Z" transform="translate(-340.254 -91.572)" fill="#455a64"/>
        </g>
      </g>
      <g id="Grupo_2524" data-name="Grupo 2524" transform="translate(0.493 0.359)">
        <path id="Caminho_1361" data-name="Caminho 1361" d="M429.158,91.8a5.8,5.8,0,0,1-.685.884l-2.088,2.432-7.812,8.872-26.21,29.31-.233.26-.3-.189-2.359-1.5L354.8,109.621,344.34,102.8c-1.173-.785-2.11-1.414-2.821-1.891a6.407,6.407,0,0,1-.954-.706,6.317,6.317,0,0,1,1.042.566c.733.444,1.7,1.028,2.9,1.759,2.58,1.606,6.181,3.847,10.6,6.6l34.809,22.04c.808.516,1.61,1.028,2.359,1.5l-.528.073c10.344-11.42,19.629-21.667,26.4-29.14l8-8.7c.912-.968,1.644-1.742,2.2-2.331A5.852,5.852,0,0,1,429.158,91.8Z" transform="translate(-340.565 -91.798)" fill="#455a64"/>
      </g>
    </g>
    <g id="Grupo_2528" data-name="Grupo 2528" transform="translate(347.171 164.41)">
      <g id="Grupo_2526" data-name="Grupo 2526">
        <path id="Caminho_1362" data-name="Caminho 1362" d="M289.9,145.58a39.978,39.978,0,0,0-.895-5.735,22.67,22.67,0,0,0-2.646-6.224,23.462,23.462,0,0,0-5.977-6.608,23.277,23.277,0,0,0-22.059-3.287,23.316,23.316,0,0,0-10.795,8.115,23.158,23.158,0,0,0,0,27.479,23.349,23.349,0,0,0,10.8,8.117,23.425,23.425,0,0,0,28.037-9.9A22.709,22.709,0,0,0,289,151.315a39.909,39.909,0,0,0,.895-5.735,1.326,1.326,0,0,1,.024.384l-.016,1.128a10.876,10.876,0,0,1-.146,1.831,16.7,16.7,0,0,1-.446,2.47,22.369,22.369,0,0,1-2.559,6.383,23.877,23.877,0,0,1-16.078,11.374,24.023,24.023,0,0,1-12.616-1,24.029,24.029,0,0,1-11.188-8.353,23.9,23.9,0,0,1,0-28.439,24.025,24.025,0,0,1,11.187-8.352,24.016,24.016,0,0,1,12.615-1,23.869,23.869,0,0,1,16.078,11.372,22.3,22.3,0,0,1,2.561,6.383,16.7,16.7,0,0,1,.446,2.47,11.046,11.046,0,0,1,.146,1.831l.016,1.128A1.326,1.326,0,0,1,289.9,145.58Z" transform="translate(-242.184 -121.599)" fill="#263238"/>
      </g>
      <g id="Grupo_2527" data-name="Grupo 2527" transform="translate(42.572 38.68)">
        <path id="Caminho_1363" data-name="Caminho 1363" d="M305.937,170.762c-.127.19-8.5-5.2-18.688-12.045s-18.358-12.545-18.231-12.734,8.494,5.2,18.691,12.047S306.064,170.574,305.937,170.762Z" transform="translate(-269.017 -145.979)" fill="#263238"/>
      </g>
    </g>
    <g id="Grupo_2529" data-name="Grupo 2529" transform="translate(478.27 233.319)">
      <path id="Caminho_1364" data-name="Caminho 1364" d="M343.345,203.21l-18.529-19.933,6-5.577,12.792,13.76,26.861-26.427,5.746,5.839Z" transform="translate(-324.816 -165.033)" fill="#e63c70"/>
    </g>
    <g id="Grupo_2535" data-name="Grupo 2535" transform="translate(902.842 252.061)">
      <g id="Grupo_2530" data-name="Grupo 2530">
        <path id="Caminho_1365" data-name="Caminho 1365" d="M706.252,177.192s.3-.011.9.006l1.109.038c.439.04.946.125,1.523.2a20.213,20.213,0,0,1,9.277,4.068,20.8,20.8,0,0,1,7.8,13.879,48.018,48.018,0,0,1,.154,4.936q.007,2.542.014,5.245.014,5.4.029,11.429t.027,12.619q0,3.3.011,6.732a24.3,24.3,0,0,1-.7,7.019,20.761,20.761,0,0,1-15.666,15.072,36.369,36.369,0,0,1-8.012.5l-70.82.048.289-.119L616.2,274.855l-.7.706V258.579l.412.412a39.23,39.23,0,0,1-5.253-.194,20.813,20.813,0,0,1-5.094-1.322,20.9,20.9,0,0,1-12.726-15.285,26.5,26.5,0,0,1-.411-5.031q0-2.477,0-4.934.007-9.824.011-19.267,0-4.717.008-9.33a71.954,71.954,0,0,1,.284-9.156A20.843,20.843,0,0,1,610.2,177.108a62.221,62.221,0,0,1,8.16-.252l29.58.051,42.7.129,11.579.076,3.008.04c.677.014,1.025.041,1.025.041s-.347.029-1.025.041l-3.008.04-11.579.076-42.7.13-29.58.049a62.161,62.161,0,0,0-8.055.267,20.049,20.049,0,0,0-16.828,16.794,71.952,71.952,0,0,0-.26,9.04q0,4.612.006,9.33,0,9.436.011,19.267c.073,3.271-.219,6.611.4,9.806a20.093,20.093,0,0,0,12.237,14.68,20.013,20.013,0,0,0,4.893,1.268,38.578,38.578,0,0,0,5.148.186l.413,0v16.4l-.7-.292,15.988-15.981.121-.119h.168l70.82.046a35.864,35.864,0,0,0,7.863-.466A20.1,20.1,0,0,0,725.77,243.2a23.717,23.717,0,0,0,.7-6.855q.007-3.434.013-6.732.012-6.592.025-12.619t.029-11.429q.007-2.7.014-5.245a47.743,47.743,0,0,0-.12-4.888,20.458,20.458,0,0,0-16.676-17.845c-.571-.089-1.073-.186-1.507-.238l-1.1-.075C706.555,177.234,706.252,177.192,706.252,177.192Z" transform="translate(-592.424 -176.845)" fill="#263238"/>
      </g>
      <g id="Grupo_2534" data-name="Grupo 2534" transform="translate(41.374 38.646)">
        <g id="Grupo_2531" data-name="Grupo 2531" transform="translate(0 0.206)">
          <path id="Caminho_1366" data-name="Caminho 1366" d="M628.032,206.248c-.071,0-.087-.406-.3-1.074a4.568,4.568,0,0,0-1.679-2.318,4.288,4.288,0,0,0-4-.531,4.188,4.188,0,0,0,0,7.847,4.288,4.288,0,0,0,4-.533,4.568,4.568,0,0,0,1.679-2.318c.211-.668.227-1.076.3-1.072a1.971,1.971,0,0,1,.013,1.152,4.541,4.541,0,0,1-1.636,2.7,4.83,4.83,0,0,1-4.618.784,4.916,4.916,0,0,1,0-9.278,4.825,4.825,0,0,1,4.618.782,4.541,4.541,0,0,1,1.636,2.7A1.98,1.98,0,0,1,628.032,206.248Z" transform="translate(-618.502 -201.334)" fill="#263238"/>
        </g>
        <g id="Grupo_2532" data-name="Grupo 2532" transform="translate(21.034)">
          <path id="Caminho_1367" data-name="Caminho 1367" d="M641.291,206.117c-.072,0-.087-.4-.3-1.074a4.564,4.564,0,0,0-1.679-2.316,4.287,4.287,0,0,0-4-.533,4.188,4.188,0,0,0,0,7.847,4.287,4.287,0,0,0,4-.533,4.564,4.564,0,0,0,1.679-2.316c.211-.67.227-1.076.3-1.074a1.971,1.971,0,0,1,.013,1.152,4.536,4.536,0,0,1-1.636,2.7,4.826,4.826,0,0,1-4.619.784,4.916,4.916,0,0,1,0-9.278,4.826,4.826,0,0,1,4.619.784,4.536,4.536,0,0,1,1.636,2.7A1.971,1.971,0,0,1,641.291,206.117Z" transform="translate(-631.76 -201.204)" fill="#263238"/>
        </g>
        <g id="Grupo_2533" data-name="Grupo 2533" transform="translate(42.069)">
          <path id="Caminho_1368" data-name="Caminho 1368" d="M654.548,206.117c-.071,0-.087-.4-.3-1.074a4.559,4.559,0,0,0-1.68-2.316,4.284,4.284,0,0,0-4-.533,4.188,4.188,0,0,0,0,7.847,4.287,4.287,0,0,0,4-.533,4.564,4.564,0,0,0,1.679-2.316c.211-.67.227-1.076.3-1.074a1.969,1.969,0,0,1,.013,1.152,4.536,4.536,0,0,1-1.636,2.7,4.826,4.826,0,0,1-4.618.784,4.916,4.916,0,0,1,0-9.278,4.825,4.825,0,0,1,4.618.784,4.536,4.536,0,0,1,1.636,2.7A1.969,1.969,0,0,1,654.548,206.117Z" transform="translate(-645.018 -201.204)" fill="#263238"/>
        </g>
      </g>
    </g>
    <g id="Grupo_2549" data-name="Grupo 2549" transform="translate(121.19 114.967)">
      <g id="Grupo_2536" data-name="Grupo 2536">
        <path id="Caminho_1369" data-name="Caminho 1369" d="M249.6,209.18l.011,0h0s.076.179.2.524c.124.365.3.873.52,1.536.454,1.376,1.115,3.379,1.977,6,1.721,5.291,4.242,13.04,7.481,23l.1.314-.327-.06c-8.831-1.617-19.63-3.594-31.97-5.854l-.221-.04v-.227l.43.216a79.632,79.632,0,0,1-36.986,15.261,80.806,80.806,0,0,1-11.339.755c-3.86-.235-7.823-.208-11.78-.987a85.048,85.048,0,0,1-11.958-2.675l-5.908-2.156a22.426,22.426,0,0,1-2.916-1.266l-2.891-1.39a82.132,82.132,0,0,1-21.352-15.475A78.784,78.784,0,0,1,106.978,203.8,79.948,79.948,0,0,1,182.831,90.524,79.749,79.749,0,0,1,259.57,165.4,75.914,75.914,0,0,1,257.4,189.8a77.66,77.66,0,0,1-5.266,14.593c-.777,1.6-1.4,2.807-1.842,3.57l-.692,1.212.606-1.211c.43-.83,1.03-2.036,1.777-3.641a80.376,80.376,0,0,0,5.1-14.6,76.145,76.145,0,0,0,2.024-24.3,79.5,79.5,0,0,0-123.387-60.872,79.259,79.259,0,0,0-28.012,98.911A78.1,78.1,0,0,0,123.227,226.1a81.538,81.538,0,0,0,21.13,15.353q1.435.695,2.862,1.382a22.092,22.092,0,0,0,2.886,1.258l5.851,2.147a84.592,84.592,0,0,0,11.847,2.672c3.919.781,7.847.758,11.675,1a79.3,79.3,0,0,0,48-15.764l.43-.322v.539l-.219-.265,31.945,6-.224.254-7.3-23.057c-.82-2.63-1.45-4.645-1.882-6.029-.2-.669-.359-1.182-.47-1.55-.1-.351-.146-.541-.146-.541h0Z" transform="translate(-99.748 -90.435)" fill="#263238"/>
      </g>
      <g id="Grupo_2540" data-name="Grupo 2540" transform="translate(33.906 51.828)">
        <g id="Grupo_2539" data-name="Grupo 2539">
          <g id="Grupo_2538" data-name="Grupo 2538">
            <g id="Grupo_2537" data-name="Grupo 2537">
              <path id="Caminho_1370" data-name="Caminho 1370" d="M208.63,123.878c.017.8-19.561,1.869-43.722,2.394s-43.771.308-43.789-.489,19.557-1.867,43.727-2.394S208.612,123.081,208.63,123.878Z" transform="translate(-121.119 -123.102)" fill="#e63c70"/>
            </g>
          </g>
        </g>
      </g>
      <g id="Grupo_2544" data-name="Grupo 2544" transform="translate(36.001 80.94)">
        <g id="Grupo_2543" data-name="Grupo 2543">
          <g id="Grupo_2542" data-name="Grupo 2542">
            <g id="Grupo_2541" data-name="Grupo 2541">
              <path id="Caminho_1371" data-name="Caminho 1371" d="M211.408,142.22c.017.8-19.886,1.877-44.45,2.412s-44.5.324-44.518-.473,19.883-1.875,44.455-2.412S211.39,141.424,211.408,142.22Z" transform="translate(-122.439 -141.452)" fill="#e63c70"/>
            </g>
          </g>
        </g>
      </g>
      <g id="Grupo_2548" data-name="Grupo 2548" transform="translate(35.877 110.463)">
        <g id="Grupo_2547" data-name="Grupo 2547">
          <g id="Grupo_2546" data-name="Grupo 2546">
            <g id="Grupo_2545" data-name="Grupo 2545">
              <path id="Caminho_1372" data-name="Caminho 1372" d="M211.33,160.828c.017.8-19.887,1.877-44.45,2.412s-44.5.324-44.518-.473,19.883-1.875,44.455-2.412S211.312,160.032,211.33,160.828Z" transform="translate(-122.361 -160.06)" fill="#e63c70"/>
            </g>
          </g>
        </g>
      </g>
    </g>
    <g id="Grupo_2560" data-name="Grupo 2560" transform="translate(661.393 85.964)">
      <g id="Grupo_2557" data-name="Grupo 2557" transform="translate(34.134 34.729)">
        <g id="Grupo_2550" data-name="Grupo 2550">
          <path id="Caminho_1373" data-name="Caminho 1373" d="M551.642,140.479a12.6,12.6,0,0,1-.32-2.819,23.057,23.057,0,0,0-.378-3.386,33.143,33.143,0,0,0-.889-4.549,42.658,42.658,0,0,0-4.725-11.7,43.811,43.811,0,0,0-10.882-12.535,43.37,43.37,0,0,0-40.872-7.025,40.661,40.661,0,0,0-11.055,5.64,39.494,39.494,0,0,0-9.33,8.959,43.014,43.014,0,0,0-1.242,50.99,39.563,39.563,0,0,0,8.886,9.4,40.613,40.613,0,0,0,10.771,6.17A43.693,43.693,0,0,0,544.25,162.6a42.623,42.623,0,0,0,5.285-11.46,33.293,33.293,0,0,0,1.109-4.5,23.078,23.078,0,0,0,.541-3.362,12.566,12.566,0,0,1,.457-2.8,12.333,12.333,0,0,1,.033,2.843,19.947,19.947,0,0,1-.316,3.438,30.917,30.917,0,0,1-.909,4.634,41.748,41.748,0,0,1-5.047,11.931A44.946,44.946,0,0,1,514.6,184.144a45.348,45.348,0,0,1-23.809-2.426,42.651,42.651,0,0,1-11.383-6.425,41.651,41.651,0,0,1-9.415-9.873A45.2,45.2,0,0,1,471.3,111.6a41.6,41.6,0,0,1,9.881-9.4,42.674,42.674,0,0,1,11.68-5.865,45.356,45.356,0,0,1,23.9-1.268,44.948,44.948,0,0,1,29.76,22.288,41.711,41.711,0,0,1,4.461,12.162,30.735,30.735,0,0,1,.684,4.674,19.852,19.852,0,0,1,.149,3.451A12.317,12.317,0,0,1,551.642,140.479Z" transform="translate(-461.753 -94.044)" fill="#455a64"/>
        </g>
        <g id="Grupo_2551" data-name="Grupo 2551" transform="translate(11.417 17.022)">
          <path id="Caminho_1374" data-name="Caminho 1374" d="M538.551,106.482c.1.138-.7.833-2.247,1.982-.847.608-1.794,1.287-2.854,2.048-.565.386-1.157.825-1.815,1.238l-2.183,1.141a50.055,50.055,0,0,1-26.07,6.565l-3.946-.176-3.787-.592c-.619-.1-1.238-.187-1.84-.309l-1.767-.471c-1.163-.322-2.315-.595-3.41-.947a56.973,56.973,0,0,1-11.06-5.1c-5.943-3.592-8.835-6.862-8.61-7.071.24-.274,3.47,2.461,9.454,5.569a66.657,66.657,0,0,0,10.888,4.455c1.06.308,2.17.541,3.289.83l1.7.42,1.763.267,3.619.533,3.762.152a54,54,0,0,0,25.243-5.669l2.209-.96c.673-.351,1.283-.728,1.871-1.053l3.027-1.667C537.467,106.778,538.452,106.345,538.551,106.482Z" transform="translate(-468.949 -104.773)" fill="#455a64"/>
        </g>
        <g id="Grupo_2552" data-name="Grupo 2552" transform="translate(10.071 59.646)">
          <path id="Caminho_1375" data-name="Caminho 1375" d="M468.109,144.638c-.1-.136.7-.833,2.245-1.982l2.854-2.047c.565-.387,1.157-.827,1.815-1.239q1.047-.545,2.185-1.141a50.045,50.045,0,0,1,26.069-6.565l3.946.176,3.787.592c.619.1,1.238.187,1.84.309l1.769.471c1.161.322,2.313.6,3.408.947a57.127,57.127,0,0,1,11.061,5.1c5.942,3.592,8.834,6.862,8.61,7.071-.241.274-3.47-2.461-9.456-5.569a66.546,66.546,0,0,0-10.889-4.455c-1.06-.308-2.17-.541-3.289-.83l-1.7-.42-1.763-.267-3.619-.533-3.762-.152a54,54,0,0,0-25.242,5.669l-2.21.96c-.673.351-1.284.728-1.871,1.053l-3.026,1.667C469.191,144.341,468.206,144.774,468.109,144.638Z" transform="translate(-468.101 -131.638)" fill="#455a64"/>
        </g>
        <g id="Grupo_2553" data-name="Grupo 2553" transform="translate(1.199 44.763)">
          <path id="Caminho_1376" data-name="Caminho 1376" d="M551.173,124.96c-.016.673-19.879.736-44.36.143s-44.32-1.623-44.3-2.3,19.875-.736,44.363-.143S551.189,124.287,551.173,124.96Z" transform="translate(-462.509 -122.258)" fill="#455a64"/>
        </g>
        <g id="Grupo_2554" data-name="Grupo 2554" transform="translate(42.938 1.014)">
          <path id="Caminho_1377" data-name="Caminho 1377" d="M489.366,183.318c-.673-.016-.736-19.873-.143-44.346s1.621-44.306,2.3-44.29.736,19.87.141,44.35S490.039,183.334,489.366,183.318Z" transform="translate(-488.817 -94.683)" fill="#455a64"/>
        </g>
        <g id="Grupo_2555" data-name="Grupo 2555" transform="translate(21.431 0.989)">
          <path id="Caminho_1378" data-name="Caminho 1378" d="M497.319,183.261c-.167.257-5.051-3.054-10.69-10.554a59.636,59.636,0,0,1-7.925-14.388,53.487,53.487,0,0,1-3.432-19.868,50.869,50.869,0,0,1,4.477-19.667,61.636,61.636,0,0,1,8.659-13.946c5.972-7.216,10.9-10.414,11.061-10.157.24.276-4.222,3.906-9.7,11.218a66.411,66.411,0,0,0-7.956,13.776,51.084,51.084,0,0,0-4.1,18.823,53.965,53.965,0,0,0,3.1,19.048,64.025,64.025,0,0,0,7.22,14.165C493.167,179.269,497.566,182.993,497.319,183.261Z" transform="translate(-475.261 -94.667)" fill="#455a64"/>
        </g>
        <g id="Grupo_2556" data-name="Grupo 2556" transform="translate(44.473 1.013)">
          <path id="Caminho_1379" data-name="Caminho 1379" d="M491.945,94.7c.167-.257,5.052,3.054,10.69,10.554a59.638,59.638,0,0,1,7.925,14.388,53.486,53.486,0,0,1,3.43,19.868,50.837,50.837,0,0,1-4.476,19.667,61.635,61.635,0,0,1-8.659,13.946c-5.972,7.216-10.9,10.414-11.061,10.157-.24-.276,4.222-3.906,9.7-11.218a66.548,66.548,0,0,0,7.956-13.776,51.114,51.114,0,0,0,4.1-18.821,54.013,54.013,0,0,0-3.1-19.05,63.96,63.96,0,0,0-7.222-14.165C496.1,98.688,491.7,94.964,491.945,94.7Z" transform="translate(-489.784 -94.682)" fill="#455a64"/>
        </g>
      </g>
      <g id="Grupo_2559" data-name="Grupo 2559">
        <g id="Grupo_2558" data-name="Grupo 2558">
          <path id="Caminho_1380" data-name="Caminho 1380" d="M475.607,218.281l0,.011h0s-.186.06-.539.149l-1.574.381-6.149,1.437-23.574,5.407-.322.073.089-.319L452.21,194.1l.06-.214.224.019h0l-.254.409a79.605,79.605,0,0,1-11.912-38.2,80.635,80.635,0,0,1,.255-11.361c.578-3.824.9-7.774,2.029-11.645a84.853,84.853,0,0,1,3.727-11.672q1.326-2.825,2.673-5.694a22.269,22.269,0,0,1,1.52-2.792l1.642-2.756A82.161,82.161,0,0,1,469.487,90.3a78.747,78.747,0,0,1,24.15-13.6,79.947,79.947,0,0,1,106.089,85.621,79.755,79.755,0,0,1-81.4,69.781,75.949,75.949,0,0,1-24.117-4.334,77.78,77.78,0,0,1-14.066-6.54c-1.521-.917-2.672-1.64-3.392-2.155l-1.145-.795,1.152.711c.789.5,1.937,1.206,3.47,2.094a80.524,80.524,0,0,0,14.087,6.381,76.128,76.128,0,0,0,24.023,4.174,79.5,79.5,0,0,0,71.6-117.487,79.26,79.26,0,0,0-96.03-36.692,78.087,78.087,0,0,0-23.922,13.443,81.521,81.521,0,0,0-17.171,19.681q-.819,1.368-1.629,2.727a21.854,21.854,0,0,0-1.51,2.764l-2.659,5.637a84.62,84.62,0,0,0-3.714,11.561c-1.125,3.835-1.452,7.75-2.034,11.541a79.3,79.3,0,0,0,11.434,49.21l.284.46-.536-.049h0l.282-.2c-3.4,12.075-6.378,22.643-8.812,31.285l-.233-.244,23.616-5.224,6.172-1.339,1.587-.33c.357-.071.551-.1.551-.1h0Z" transform="translate(-440.238 -72.154)" fill="#263238"/>
        </g>
      </g>
    </g>
    <g id="Grupo_2596" data-name="Grupo 2596" transform="translate(684.329 260.031)">
      <path id="Caminho_1381" data-name="Caminho 1381" d="M514.765,188.981c-7.757,1.805-12.727,9.667-14.384,17.455s-.849,15.878-1.591,23.808-3.522,16.356-10.194,20.7l6.643,1.923a18.133,18.133,0,0,1-7.8,10,14.8,14.8,0,0,0,9.075,3.092c-3.909,1.036-4.99,6.613-2.83,10.032s6.265,5.028,10.184,6.026c4.62,1.174,9.551,1.79,14.12.428,6.433-1.918,11.234-7.568,13.7-13.812s2.911-13.081,3.1-19.791c.477-16.808-.5-33.782-4.791-50.041-1.038-3.933-2.472-8.107-5.816-10.424s-9.064-1.377-10.068,2.564" transform="translate(-435.492 -178.783)" fill="#e8505b"/>
      <path id="Caminho_1382" data-name="Caminho 1382" d="M709.339,385.381c-1.841-7.02-12.572-46.514-22.159-72.318-10.639-28.64-32.594-34.547-32.594-34.547-49.419-16.863-93.83-16.96-141.255-.522-1.517.471-2.992.976-4.406,1.526-.051.019-.1.035-.154.054v0c-35.172,13.806-38.8,50.957-38.8,50.957L455.19,420.7a19.573,19.573,0,0,0-.355,2.162l-.14.855.062,0a21.11,21.11,0,0,0,12.085,20.359c20.655,9.507,40.366,7.25,57.3.255l-12.305,17.93H658.414l-9.8-23.7,3.259-14.25,22.705,27.322a21.126,21.126,0,0,0,10.451,6.814c26.172,3.043,30.409-35.943,25.486-58.623h0" transform="translate(-454.695 -132.661)" fill="#cbefd9"/>
      <path id="Caminho_1383" data-name="Caminho 1383" d="M586.006,269.23s-23.641,118.961-31.978,118.077-47.406-115.829-47.406-115.829S556.565,258.158,586.006,269.23Z" transform="translate(-424.238 -133.209)" fill="#ffbe9d"/>
      <g id="Grupo_2584" data-name="Grupo 2584" transform="translate(68.391)">
        <g id="Grupo_2583" data-name="Grupo 2583">
          <g id="Grupo_2582" data-name="Grupo 2582">
            <g id="Grupo_2576" data-name="Grupo 2576" transform="translate(2.646 13.309)">
              <g id="Grupo_2561" data-name="Grupo 2561">
                <path id="Caminho_1384" data-name="Caminho 1384" d="M523.127,321.757c-.125-13.7-.508-28.11-.508-28.11s-17.661-2.822-21.456-25.819c-3.619-21.931-.311-72.646-.311-72.646h0c25.329-10.511,55.453-3.8,73.684,16.414h0l-.815,111.245c-.094,12.914-11.274,23.119-25.1,22.911h0C534.653,345.542,523.246,334.8,523.127,321.757Z" transform="translate(-499.47 -190.258)" fill="#ffbe9d"/>
              </g>
              <g id="Grupo_2565" data-name="Grupo 2565" transform="translate(3.299 38.063)">
                <g id="Grupo_2562" data-name="Grupo 2562" transform="translate(3.938 2.55)">
                  <path id="Caminho_1385" data-name="Caminho 1385" d="M504.033,218.543a2.951,2.951,0,0,0,2.864,2.96,2.823,2.823,0,0,0,3.027-2.68,2.954,2.954,0,0,0-2.861-2.964A2.826,2.826,0,0,0,504.033,218.543Z" transform="translate(-504.031 -215.857)" fill="#263238"/>
                </g>
                <g id="Grupo_2564" data-name="Grupo 2564">
                  <g id="Grupo_2563" data-name="Grupo 2563">
                    <path id="Caminho_1386" data-name="Caminho 1386" d="M501.6,217.388c.37.382,2.6-1.287,5.772-1.3,3.173-.056,5.515,1.564,5.857,1.172.168-.173-.209-.865-1.229-1.6a8.093,8.093,0,0,0-4.69-1.415,7.768,7.768,0,0,0-4.591,1.514C501.743,216.519,501.416,217.217,501.6,217.388Z" transform="translate(-501.549 -214.25)" fill="#263238"/>
                  </g>
                </g>
              </g>
              <g id="Grupo_2569" data-name="Grupo 2569" transform="translate(36.453 39.015)">
                <g id="Grupo_2566" data-name="Grupo 2566" transform="translate(2.911 3.14)">
                  <path id="Caminho_1387" data-name="Caminho 1387" d="M524.282,219.515a2.95,2.95,0,0,0,2.864,2.96,2.823,2.823,0,0,0,3.027-2.68,2.954,2.954,0,0,0-2.862-2.964A2.824,2.824,0,0,0,524.282,219.515Z" transform="translate(-524.281 -216.829)" fill="#263238"/>
                </g>
                <g id="Grupo_2568" data-name="Grupo 2568">
                  <g id="Grupo_2567" data-name="Grupo 2567">
                    <path id="Caminho_1388" data-name="Caminho 1388" d="M522.494,217.988c.368.382,2.6-1.285,5.772-1.3,3.173-.057,5.515,1.563,5.858,1.172.168-.173-.206-.866-1.23-1.6a8.1,8.1,0,0,0-4.69-1.415,7.778,7.778,0,0,0-4.591,1.514C522.643,217.119,522.313,217.817,522.494,217.988Z" transform="translate(-522.446 -214.85)" fill="#263238"/>
                  </g>
                </g>
              </g>
              <g id="Grupo_2571" data-name="Grupo 2571" transform="translate(17.007 39.304)">
                <g id="Grupo_2570" data-name="Grupo 2570">
                  <path id="Caminho_1389" data-name="Caminho 1389" d="M518.3,241.51c.013-.181-1.964-.509-5.166-.9-.811-.078-1.58-.235-1.72-.787a4.129,4.129,0,0,1,.527-2.408q1.126-2.951,2.361-6.191c3.278-8.815,5.645-16.061,5.289-16.191s-3.3,6.911-6.579,15.727q-1.183,3.258-2.261,6.227a4.69,4.69,0,0,0-.4,3.186,2.035,2.035,0,0,0,1.341,1.177,5.544,5.544,0,0,0,1.379.184C516.289,241.689,518.287,241.691,518.3,241.51Z" transform="translate(-510.189 -215.032)" fill="#263238"/>
                </g>
              </g>
              <g id="Grupo_2572" data-name="Grupo 2572" transform="translate(23.15 94.976)">
                <path id="Caminho_1390" data-name="Caminho 1390" d="M514.061,258.534a58.556,58.556,0,0,0,30.777-8.412s-7.382,15.859-30.435,13.844Z" transform="translate(-514.061 -250.122)" fill="#eb996e"/>
              </g>
              <g id="Grupo_2573" data-name="Grupo 2573" transform="translate(26.191 71.244)">
                <path id="Caminho_1391" data-name="Caminho 1391" d="M516.292,237.351a5.721,5.721,0,0,1,5.118-2.158,5.224,5.224,0,0,1,3.621,1.913,3.312,3.312,0,0,1,.274,3.785,3.843,3.843,0,0,1-4.158,1.079,12.032,12.032,0,0,1-4.074-2.4,3.529,3.529,0,0,1-.914-.934,1.061,1.061,0,0,1,0-1.182" transform="translate(-515.978 -235.163)" fill="#eb996e"/>
              </g>
              <g id="Grupo_2575" data-name="Grupo 2575" transform="translate(24.403 67.924)">
                <g id="Grupo_2574" data-name="Grupo 2574">
                  <path id="Caminho_1392" data-name="Caminho 1392" d="M524.926,233.071c-.517-.027-.5,3.421-3.44,5.886s-6.61,2.109-6.633,2.591c-.046.216.823.665,2.375.7a8.586,8.586,0,0,0,5.539-1.967,7.48,7.48,0,0,0,2.662-4.934C525.551,233.9,525.16,233.049,524.926,233.071Z" transform="translate(-514.851 -233.071)" fill="#263238"/>
                </g>
              </g>
            </g>
            <g id="Grupo_2577" data-name="Grupo 2577">
              <path id="Caminho_1393" data-name="Caminho 1393" d="M563.11,197.974c-8.209,12.159-30.285,24.9-46.2,28.049,1.82-2.486,11.52-8.705,13.341-11.192-7.143,5.532-17.371,12.945-26.962,13.6a5.845,5.845,0,0,1-3.31-.455c-1.287-.754-1.572-2.256-1.744-3.587a96.084,96.084,0,0,1,.3-20.866,23.085,23.085,0,0,1,8.044-15.028c6.067-4.86,14.848-6.188,23.14-6.533,6.954-.29,14.131,0,20.535,2.393s11.929,7.263,12.964,13.213" transform="translate(-497.802 -181.869)" fill="#e8505b"/>
            </g>
            <g id="Grupo_2578" data-name="Grupo 2578" transform="translate(57.687 5.506)">
              <path id="Caminho_1394" data-name="Caminho 1394" d="M568.995,251.608a130.12,130.12,0,0,0,2.028-15.424c.469-11.89,4.027-54.8-36.86-50.549l2.315,11.539s-7.622,26.711,9.933,44.733c0,0-5,37.639,7.212,49.8,0,0,13.108-27.266,15.372-40.1" transform="translate(-534.162 -185.34)" fill="#e8505b"/>
            </g>
            <g id="Grupo_2579" data-name="Grupo 2579" transform="translate(68.648 59.775)">
              <path id="Caminho_1395" data-name="Caminho 1395" d="M541.836,219.857a13.732,13.732,0,0,1,7.412.43,9.57,9.57,0,0,1,5.453,4.888,10.009,10.009,0,0,1,.108,7.357,16.934,16.934,0,0,1-4.155,6.216,11.487,11.487,0,0,1-4.45,2.994,5.486,5.486,0,0,1-5.132-.765" transform="translate(-541.071 -219.546)" fill="#ffbe9d"/>
            </g>
            <g id="Grupo_2581" data-name="Grupo 2581" transform="translate(70.751 63.202)">
              <g id="Grupo_2580" data-name="Grupo 2580">
                <path id="Caminho_1396" data-name="Caminho 1396" d="M542.508,233.505c-.281.092.8,1.575,3.046.955a4.846,4.846,0,0,0,2.767-2.445,10.965,10.965,0,0,0,1.2-4.093,6.429,6.429,0,0,0-1.066-4.326,4.278,4.278,0,0,0-3.246-1.89c-2.315-.038-3.022,1.571-2.76,1.615.187.186,1.079-.646,2.6-.29,1.453.257,2.892,2.25,2.6,4.739-.26,2.534-1.22,4.858-2.564,5.445C543.679,233.937,542.662,233.3,542.508,233.505Z" transform="translate(-542.397 -221.706)" fill="#eb996e"/>
              </g>
            </g>
          </g>
        </g>
      </g>
      <g id="Grupo_2585" data-name="Grupo 2585" transform="translate(56.732 213.875)">
        <path id="Caminho_1397" data-name="Caminho 1397" d="M490.867,358.42c-.228,0-.414-9.346-.414-20.873s.186-20.873.414-20.873.413,9.343.413,20.873S491.094,358.42,490.867,358.42Z" transform="translate(-490.453 -316.675)" fill="#263238"/>
      </g>
      <g id="Grupo_2587" data-name="Grupo 2587" transform="translate(94.186 164.281)">
        <g id="Grupo_2586" data-name="Grupo 2586" transform="translate(0 48.458)">
          <path id="Caminho_1398" data-name="Caminho 1398" d="M536.592,316.233s-20.576.225-21.875,4.782c-2.156,7.561,1.7,49.008,1.7,49.008l18.953,6.3s9.143-2.109,4.923-19.691a128.489,128.489,0,0,0-12.532-31.647s25.191.7,24.488-4.923S536.592,316.233,536.592,316.233Z" transform="translate(-514.061 -315.959)" fill="#ffbe9d"/>
          <path id="Caminho_1399" data-name="Caminho 1399" d="M523.1,324.11c1.133-.216,26.314-2.3,24.733,1.725s-24.733,5.034-24.733,5.034Z" transform="translate(-508.758 -311.607)" fill="#ffbe9d"/>
        </g>
        <path id="Caminho_1400" data-name="Caminho 1400" d="M606.631,285.416l-3.11,78.638-11.487,30.18L521.461,395.7l-2.851-97.4Z" transform="translate(-511.392 -285.416)" fill="#263238"/>
      </g>
      <g id="Grupo_2588" data-name="Grupo 2588" transform="translate(8.637 240.723)">
        <path id="Caminho_1401" data-name="Caminho 1401" d="M544.71,333.6a4.35,4.35,0,0,1-.863.446l-2.54,1.133-9.4,4.025-31.131,12.987L483.6,359.251a99.474,99.474,0,0,0-13.717,6.308,26.647,26.647,0,0,0-7.674,6.529c-1.452,1.907-1.977,3.154-2.063,3.108a4.316,4.316,0,0,1,.376-.9,14.928,14.928,0,0,1,1.428-2.4,25.66,25.66,0,0,1,7.628-6.835c3.682-2.329,8.466-4.337,13.732-6.514,5.283-2.191,11.072-4.595,17.154-7.119l31.223-12.764,9.5-3.781,2.6-.99A4.223,4.223,0,0,1,544.71,333.6Z" transform="translate(-460.139 -333.597)" fill="#263238"/>
      </g>
      <g id="Grupo_2589" data-name="Grupo 2589" transform="translate(69.45 271.538)">
        <path id="Caminho_1402" data-name="Caminho 1402" d="M545.557,353.022a13.682,13.682,0,0,1-1.542,1.893c-1.038,1.179-2.578,2.849-4.563,4.836-3.941,4-9.654,9.256-16.221,14.753s-12.732,10.208-17.27,13.508c-2.264,1.658-4.125,2.959-5.423,3.839a13.591,13.591,0,0,1-2.069,1.293,13.9,13.9,0,0,1,1.88-1.555l5.261-4.044c4.441-3.416,10.528-8.2,17.089-13.676s12.308-10.654,16.343-14.536c2.031-1.926,3.632-3.532,4.737-4.639A14.021,14.021,0,0,1,545.557,353.022Z" transform="translate(-498.469 -353.02)" fill="#263238"/>
      </g>
      <g id="Grupo_2590" data-name="Grupo 2590" transform="translate(177.208 268.335)">
        <path id="Caminho_1403" data-name="Caminho 1403" d="M612.011,404.531c-.175.149-10.528-11.715-23.124-26.5s-22.67-26.886-22.5-27.033,10.525,11.713,23.125,26.5S612.184,404.383,612.011,404.531Z" transform="translate(-566.39 -351.001)" fill="#263238"/>
      </g>
      <g id="Grupo_2591" data-name="Grupo 2591" transform="translate(189.392 233.864)">
        <path id="Caminho_1404" data-name="Caminho 1404" d="M627.453,360.139a13.662,13.662,0,0,1-2.294-.816c-1.46-.57-3.546-1.455-6.1-2.6-5.11-2.289-12.058-5.719-19.462-10s-13.843-8.6-18.377-11.882c-2.269-1.64-4.077-3.006-5.3-3.987a13.81,13.81,0,0,1-1.85-1.58,13.816,13.816,0,0,1,2.042,1.322l5.442,3.768c4.61,3.156,11.079,7.373,18.456,11.644s14.26,7.761,19.3,10.181c2.421,1.149,4.433,2.1,5.981,2.837A13.7,13.7,0,0,1,627.453,360.139Z" transform="translate(-574.069 -329.274)" fill="#263238"/>
      </g>
      <g id="Grupo_2592" data-name="Grupo 2592" transform="translate(201.504 209.875)">
        <path id="Caminho_1405" data-name="Caminho 1405" d="M586.451,351.754c-.227.029-1.466-8.366-2.767-18.747s-2.172-18.824-1.945-18.853,1.464,8.364,2.765,18.75S586.677,351.725,586.451,351.754Z" transform="translate(-581.703 -314.154)" fill="#263238"/>
      </g>
      <g id="Grupo_2593" data-name="Grupo 2593" transform="translate(135.791 74.848)">
        <path id="Caminho_1406" data-name="Caminho 1406" d="M551.049,229.048a4.928,4.928,0,0,1-.652,1.006c-.539.725-1.206,1.62-2.009,2.7-1.864,2.416-4.36,5.654-7.309,9.48l-.059-.509,11.915,9.361,1.079.854-.581.067c3.8-4.766,7.328-9.181,10.309-12.918l.057.479-7.765-6.326c-.842-.716-1.547-1.311-2.126-1.8-.482-.424-.728-.662-.706-.69a3.667,3.667,0,0,1,.833.53c.611.451,1.353,1,2.242,1.655,2.029,1.556,4.73,3.63,7.944,6.1l.27.206-.214.273c-2.949,3.762-6.433,8.207-10.2,13.007l-.254.325-.325-.257-1.079-.854c-4.3-3.428-8.353-6.652-11.853-9.438l-.286-.23.227-.281,7.542-9.294c.866-1.031,1.585-1.886,2.167-2.577A4.727,4.727,0,0,1,551.049,229.048Z" transform="translate(-540.284 -229.046)" fill="#263238"/>
      </g>
      <g id="Grupo_2595" data-name="Grupo 2595" transform="translate(122.551 207.7)">
        <g id="Grupo_2594" data-name="Grupo 2594">
          <path id="Caminho_1407" data-name="Caminho 1407" d="M586.216,372.242c-11.529-.217-26.9-2.5-34.071-3.651-13.351-2.134-13.206-3.344-12.732-4.871,1.275-4.1,23.608,2.857,19.6-1.437s-28.218-5.315-26.708-9.541c1.966-5.5,25.223,2.21,27.236,2.716,1.955.492,2.737-2.405.9-2.764-2.643-.517-30.29-6.637-28.41-12.064,1.042-3.008,6.251-.487,6.251-.487s25.494,7.644,26.3,5.05c.815-2.634-14.016-7.628-19.127-8.959-5.048-1.314-6.54-4.265-4.158-6.032,1.623-1.206,17.362,2.492,22.388,3.927s18.748,5.61,13.513-1.983c-.083-.119-.144-.238-.225-.359-5.358-7.336-7.057-14.766-6.086-17.247.949-2.423,4.36-2.264,5.648.016a3.229,3.229,0,0,1,.517,1.215c.036.2.135.446.192.66a45.179,45.179,0,0,0,4.628,8.076,24.472,24.472,0,0,0,5.78,5.973c2.608,1.9,9.181,8.847,11.166,10.083" transform="translate(-531.939 -312.783)" fill="#ffbe9d"/>
        </g>
      </g>
    </g>
    <g id="Grupo_2637" data-name="Grupo 2637" transform="translate(199.202 261.286)">
      <g id="Grupo_2622" data-name="Grupo 2622" transform="translate(116.748)">
        <g id="Grupo_2609" data-name="Grupo 2609" transform="translate(19.604 13.794)">
          <g id="Grupo_2608" data-name="Grupo 2608">
            <g id="Grupo_2603" data-name="Grupo 2603">
              <g id="Grupo_2602" data-name="Grupo 2602">
                <g id="Grupo_2597" data-name="Grupo 2597">
                  <path id="Caminho_1408" data-name="Caminho 1408" d="M288.316,349.932h0a27.842,27.842,0,0,1-27.328-27c-.373-12.367-.655-24.274-.655-24.274s-22.7-2.108-24.368-24.574-.952-74.333-.952-74.333h0a78.289,78.289,0,0,1,79.123,5.025l3.49,2.359-.965,115.188A27.844,27.844,0,0,1,288.316,349.932Z" transform="translate(-234.862 -191.355)" fill="#b78876"/>
                </g>
                <g id="Grupo_2599" data-name="Grupo 2599" transform="translate(16.715 41.856)">
                  <g id="Grupo_2598" data-name="Grupo 2598">
                    <path id="Caminho_1409" data-name="Caminho 1409" d="M253.585,244.77c.006-.244-1.932-.514-5.072-.752-.815-.038-1.463-.182-1.548-.614a4.412,4.412,0,0,1,.436-2.356c.671-2.1,1.35-4.219,2.061-6.443,2.83-9.173,4.745-16.724,4.28-16.867s-3.137,7.173-5.967,16.346c-.665,2.239-1.3,4.374-1.928,6.484a5.173,5.173,0,0,0-.235,3.394,2.126,2.126,0,0,0,1.475,1.207,5.159,5.159,0,0,0,1.393.1C251.629,245.184,253.579,245.013,253.585,244.77Z" transform="translate(-245.397 -217.737)" fill="#263238"/>
                  </g>
                </g>
                <g id="Grupo_2600" data-name="Grupo 2600" transform="translate(20.261 71.69)">
                  <path id="Caminho_1410" data-name="Caminho 1410" d="M262.546,236.541a75.73,75.73,0,0,1-14.914,5.348s3.973,5.556,10.308,2.783C264.518,241.794,262.546,236.541,262.546,236.541Z" transform="translate(-247.632 -236.541)" fill="#fff"/>
                </g>
                <g id="Grupo_2601" data-name="Grupo 2601" transform="translate(25.414 96.848)">
                  <path id="Caminho_1411" data-name="Caminho 1411" d="M250.88,262.536s14.28.279,28.8-10.138c0,0-5.931,16.608-28.49,15.967Z" transform="translate(-250.88 -252.398)" fill="#a36957"/>
                </g>
              </g>
            </g>
            <g id="Grupo_2607" data-name="Grupo 2607" transform="translate(81.41 40.159)">
              <g id="Grupo_2604" data-name="Grupo 2604">
                <path id="Caminho_1412" data-name="Caminho 1412" d="M286.282,220.075a3.394,3.394,0,0,1,3.245-3.4c4.195-.116,11.057,1.55,11.7,13.127.922,16.538-14.987,12.412-15.042,11.94C286.142,241.368,286.237,226.5,286.282,220.075Z" transform="translate(-286.174 -216.667)" fill="#b78876"/>
              </g>
              <g id="Grupo_2606" data-name="Grupo 2606" transform="translate(3.642 5.311)">
                <g id="Grupo_2605" data-name="Grupo 2605">
                  <path id="Caminho_1413" data-name="Caminho 1413" d="M288.483,233.276c.07-.057.3.186.8.381a2.892,2.892,0,0,0,2.156-.075c1.712-.739,3.029-3.6,2.943-6.579a9.515,9.515,0,0,0-1.036-4.081,3.336,3.336,0,0,0-2.291-2.091,1.47,1.47,0,0,0-1.656.884c-.2.476-.073.8-.159.833-.043.044-.37-.257-.274-.949a1.846,1.846,0,0,1,.593-1.073,2.183,2.183,0,0,1,1.569-.509,4.054,4.054,0,0,1,3.152,2.4,9.778,9.778,0,0,1,1.255,4.553c.081,3.338-1.452,6.552-3.8,7.376a3.088,3.088,0,0,1-2.659-.29C288.535,233.674,288.427,233.308,288.483,233.276Z" transform="translate(-288.47 -220.014)" fill="#a36957"/>
                </g>
              </g>
            </g>
          </g>
        </g>
        <g id="Grupo_2613" data-name="Grupo 2613" transform="translate(21.553 53.577)">
          <g id="Grupo_2610" data-name="Grupo 2610" transform="translate(5.237 3.731)">
            <path id="Caminho_1414" data-name="Caminho 1414" d="M239.393,221.754a3.053,3.053,0,0,0,3.154,2.864,2.92,2.92,0,0,0,2.945-2.968,3.057,3.057,0,0,0-3.152-2.867A2.922,2.922,0,0,0,239.393,221.754Z" transform="translate(-239.391 -218.782)" fill="#263238"/>
          </g>
          <g id="Grupo_2612" data-name="Grupo 2612">
            <g id="Grupo_2611" data-name="Grupo 2611">
              <path id="Caminho_1415" data-name="Caminho 1415" d="M236.149,220.074c.4.37,2.591-1.5,5.869-1.725,3.271-.271,5.8,1.244,6.122.817.162-.19-.273-.879-1.374-1.568a8.37,8.37,0,0,0-4.937-1.145,8.04,8.04,0,0,0-4.636,1.869C236.241,219.167,235.951,219.909,236.149,220.074Z" transform="translate(-236.09 -216.43)" fill="#263238"/>
            </g>
          </g>
        </g>
        <g id="Grupo_2617" data-name="Grupo 2617" transform="translate(54.818 53.577)">
          <g id="Grupo_2614" data-name="Grupo 2614" transform="translate(4.547 3.166)">
            <path id="Caminho_1416" data-name="Caminho 1416" d="M259.925,221.4a3.054,3.054,0,0,0,3.154,2.864,2.922,2.922,0,0,0,2.945-2.97,3.055,3.055,0,0,0-3.152-2.865A2.921,2.921,0,0,0,259.925,221.4Z" transform="translate(-259.923 -218.426)" fill="#263238"/>
          </g>
          <g id="Grupo_2616" data-name="Grupo 2616">
            <g id="Grupo_2615" data-name="Grupo 2615">
              <path id="Caminho_1417" data-name="Caminho 1417" d="M257.116,220.074c.406.37,2.594-1.5,5.869-1.725,3.271-.271,5.8,1.244,6.124.817.16-.19-.271-.879-1.377-1.568a8.359,8.359,0,0,0-4.934-1.145,8.045,8.045,0,0,0-4.637,1.869C257.209,219.167,256.917,219.909,257.116,220.074Z" transform="translate(-257.057 -216.43)" fill="#263238"/>
            </g>
          </g>
        </g>
        <g id="Grupo_2618" data-name="Grupo 2618" transform="translate(7.222)">
          <path id="Caminho_1418" data-name="Caminho 1418" d="M227.057,182.66" transform="translate(-227.057 -182.66)" fill="none" stroke="#4e585d" stroke-miterlimit="10" stroke-width="0.05"/>
        </g>
        <path id="Caminho_1419" data-name="Caminho 1419" d="M271.338,193.968a19.679,19.679,0,0,0,3.743,21.1c2.215,2.294,5,4.038,6.919,6.586,3.974,5.283,3.327,12.545,3.947,19.127.286,3.045,1,6.28,3.245,8.358s6.43,2.221,7.991-.409a7.98,7.98,0,0,0,.823-2.642q2.068-10.99,4.135-21.982c1.033-5.5,2.069-11.134,1.117-16.644A23.5,23.5,0,0,0,273.9,188.8" transform="translate(-194.78 -179.537)" fill="#263238"/>
        <path id="Caminho_1420" data-name="Caminho 1420" d="M302.511,192.3c-7.628-1.461-11.912-3.9-17.308-6.33s-11.5-3.567-17.193-1.955c-3.839,1.087-7.477,3.394-11.434,3.356-3.925-.038-7.449-2.373-11.2-3.56a19.978,19.978,0,0,0-15.527,1.588c-3.692,2.029-7.011,5.664-7.322,10.1s3.649,9.034,7.62,7.772c-4.149,1.444-5.838,7.554-3.765,11.64s6.878,5.942,11.184,5.259,8.122-3.484,11.2-6.827c.1,4.947,5.059,8.426,9.654,8.277s8.759-2.9,12.553-5.74,7.634-5.93,12.145-6.935c3.141-.7,6.391-.327,9.575-.7s6.584-1.764,8.123-4.806,7.642-6.524,4.444-6.611" transform="translate(-222.505 -182.51)" fill="#263238"/>
        <g id="Grupo_2619" data-name="Grupo 2619" transform="translate(34.833 17.825)">
          <path id="Caminho_1421" data-name="Caminho 1421" d="M244.463,210.209a18.2,18.2,0,0,0,1.694.9,8.113,8.113,0,0,0,5.09-.016,13.608,13.608,0,0,0,3.278-1.442c1.111-.668,2.235-1.515,3.44-2.389a28.6,28.6,0,0,1,3.981-2.545,11.478,11.478,0,0,1,4.985-1.249c3.532-.063,6.729.89,9.621.628a8.705,8.705,0,0,0,6.473-3.516,9.572,9.572,0,0,0,1.926-4.756c.127-1.23,0-1.924.084-1.934.027,0,.075.163.138.493a6.237,6.237,0,0,1,.1,1.464,9.334,9.334,0,0,1-1.775,5.079,9.46,9.46,0,0,1-2.743,2.6,9.233,9.233,0,0,1-4.136,1.331c-3.076.306-6.321-.635-9.662-.562-3.381,0-6.159,1.885-8.547,3.587-1.212.854-2.364,1.691-3.535,2.361a13.67,13.67,0,0,1-3.475,1.415,8.063,8.063,0,0,1-5.366-.251,4.872,4.872,0,0,1-1.231-.814C244.558,210.36,244.442,210.229,244.463,210.209Z" transform="translate(-244.461 -193.895)" fill="#263238"/>
        </g>
        <g id="Grupo_2620" data-name="Grupo 2620" transform="translate(77.045 1.944)">
          <path id="Caminho_1422" data-name="Caminho 1422" d="M271.718,183.888c.244.048-.271,2.445.458,5.267.682,2.837,2.262,4.709,2.07,4.866-.121.176-2.123-1.591-2.872-4.666C270.591,186.29,271.529,183.79,271.718,183.888Z" transform="translate(-271.067 -183.885)" fill="#263238"/>
        </g>
        <g id="Grupo_2621" data-name="Grupo 2621" transform="translate(80.461 1.587)">
          <path id="Caminho_1423" data-name="Caminho 1423" d="M278.909,183.672c.173.182-1.874,2.12-3.4,5.151-1.569,3.016-1.945,5.807-2.194,5.772-.208.013-.192-2.964,1.458-6.148C276.392,185.249,278.8,183.5,278.909,183.672Z" transform="translate(-273.22 -183.661)" fill="#263238"/>
        </g>
      </g>
      <path id="Caminho_1424" data-name="Caminho 1424" d="M359.555,331.944l34.536,88.865H341.227l-24.637-63.262Z" transform="translate(-50.573 -95.099)" fill="#b78876"/>
      <path id="Caminho_1425" data-name="Caminho 1425" d="M270.7,330.958s-45.51,46.886-65.224,46.886c-6.44,0-11.49-78.087-11.566-100.6h0c1.753-4.131,2.532-5.7,4.43-8.083a37.619,37.619,0,0,1,5.718-6.319c2.719-2.162,6.443-4.888,8.931-5.764,3.079-1.082,3.333-5.294.535-6.134s-11.352,1.94-19,9.2-5.359-8.98-4.633-14.909,2.121-24.36.471-25.98c-2.418-2.375-5.486-.17-6.076,5.766-.6,6.007-3.613,23.641-6.732,23.187-3.072-.446,1.049-30.593,1.049-30.593s1.925-6.329-1.658-6.973c-6.464-1.163-8.48,31.145-8.6,34.222-.079,2.14-3.489,1.769-3.279-.525.216-2.364,4.81-30-1.756-31.241-5.04-.957-1.907,26.567-6.046,31.853s-.238-21.168-5.094-21.885c-1.807-.265-3.2-.214-3.246,15.242-.024,8.307,3.167,20.858,1.939,36.857h0c2.1,47.209-.219,179.809,52.323,164.09,57.776-17.287,97.247-55.131,97.247-55.131Z" transform="translate(-148.919 -166.265)" fill="#b78876"/>
      <g id="Grupo_2623" data-name="Grupo 2623" transform="translate(249.276 206.712)">
        <path id="Caminho_1426" data-name="Caminho 1426" d="M306.056,312.951a8.834,8.834,0,0,1,.516,1.867c.282,1.212.646,2.975,1.055,5.161.82,4.371,1.782,10.444,2.529,17.192s1.133,12.887,1.285,17.333c.078,2.223.109,4.022.1,5.266a8.893,8.893,0,0,1-.1,1.934,8.686,8.686,0,0,1-.225-1.923c-.1-1.41-.217-3.165-.36-5.247-.3-4.428-.782-10.541-1.525-17.273s-1.612-12.8-2.283-17.185c-.316-2.062-.581-3.8-.795-5.2A8.72,8.72,0,0,1,306.056,312.951Z" transform="translate(-306.038 -312.951)" fill="#263238"/>
      </g>
      <g id="Grupo_2636" data-name="Grupo 2636" transform="translate(64.006 131.718)">
        <g id="Grupo_2629" data-name="Grupo 2629" transform="translate(0 9.521)">
          <g id="Grupo_2628" data-name="Grupo 2628">
            <g id="Grupo_2627" data-name="Grupo 2627">
              <g id="Grupo_2626" data-name="Grupo 2626">
                <g id="Grupo_2625" data-name="Grupo 2625">
                  <g id="Grupo_2624" data-name="Grupo 2624">
                    <path id="Caminho_1427" data-name="Caminho 1427" d="M239.316,456.155l145.524.741-4.9-30.722c2.246-21.141-.216-43.811-.216-43.811l7.368,19.981,60.147-30.073s-21.867-58.305-40.168-78.05c-23.127-24.952-64.731-22.47-64.731-22.47l-28.115,19.1-25.878-18.225s-20.563,1.871-39.986,11.629l-1.333.387.013.278c-15.263,7.979-37.033,27.408-57.777,46.268L213.2,354.5l26.521,24.7s4.477-.5,4.531-.2C244.7,381.613,239.316,456.155,239.316,456.155Z" transform="translate(-189.262 -271.683)" fill="#384c73"/>
                  </g>
                </g>
              </g>
            </g>
          </g>
          <path id="Caminho_1428" data-name="Caminho 1428" d="M306.719,307.084l19.773,70.527-7.941,3.97L311.184,361.6S304.024,319.789,306.719,307.084Z" transform="translate(-120.724 -250.919)" opacity="0.2"/>
        </g>
        <path id="Caminho_1429" data-name="Caminho 1429" d="M250.7,275.809v-7.615s22.724-1.761,27.325,25.082c0,0,7.406-25.082,29.454-27.593l3.143,11.725s-10.446,32.662-11.963,32.941-20.635,5.862-20.635,5.862L266.954,313.7l-12.305-14Z" transform="translate(-153.225 -265.682)" fill="#384c73"/>
        <g id="Grupo_2630" data-name="Grupo 2630" transform="translate(129.857 10.824)">
          <path id="Caminho_1430" data-name="Caminho 1430" d="M299.172,272.507a7.9,7.9,0,0,1-1.255,1.328c-.828.828-2.039,2.012-3.463,3.54a80.952,80.952,0,0,0-9.851,12.959c-.7,1.134-1.339,2.27-1.945,3.363l-.363.66-.352-.658-6.464-12.105a5.316,5.316,0,0,0-1.453-1.655,3.242,3.242,0,0,0-1.528-.557,3.41,3.41,0,0,0-1.385.246c-.035,0,.365-.509,1.395-.536a3.387,3.387,0,0,1,1.745.493,5.578,5.578,0,0,1,1.677,1.72c1.793,2.992,4.079,7.2,6.729,12.005h-.716c.6-1.109,1.25-2.259,1.955-3.406a69.979,69.979,0,0,1,10.136-12.934c1.49-1.488,2.77-2.615,3.668-3.373A7.7,7.7,0,0,1,299.172,272.507Z" transform="translate(-271.111 -272.504)" fill="#263238"/>
        </g>
        <g id="Grupo_2631" data-name="Grupo 2631" transform="translate(96.001 12.178)">
          <path id="Caminho_1431" data-name="Caminho 1431" d="M249.776,273.36c.046-.035.43.374,1.085,1.144s1.582,1.9,2.711,3.308c2.262,2.816,5.342,6.741,8.7,11.106l.538.7-.689.052c1.211-2.245,1.31-4.826,1.872-7.074.511-2.256,1.564-4.295,3.14-5.294a4.637,4.637,0,0,1,4.093-.524,2.986,2.986,0,0,1,.958.617c.173.2.249.306.228.325a6.9,6.9,0,0,0-1.29-.646,4.445,4.445,0,0,0-3.673.7,7.98,7.98,0,0,0-2.726,4.986c-.511,2.166-.555,4.8-1.88,7.3l-.3.562-.392-.509-.538-.7c-3.36-4.366-6.367-8.347-8.51-11.253-1.072-1.453-1.928-2.638-2.505-3.468A5.862,5.862,0,0,1,249.776,273.36Z" transform="translate(-249.771 -273.358)" fill="#263238"/>
        </g>
        <g id="Grupo_2632" data-name="Grupo 2632" transform="translate(112.143 27.752)">
          <path id="Caminho_1432" data-name="Caminho 1432" d="M259.96,449.415a1.7,1.7,0,0,1-.011-.431c.013-.333.029-.747.048-1.263.065-1.171.152-2.792.265-4.847.271-4.274.655-10.346,1.13-17.822,1.036-15.1,2.461-35.854,4.036-58.78,1.669-22.927,3.179-43.678,4.277-58.773.584-7.47,1.058-13.535,1.391-17.8.178-2.051.319-3.67.42-4.837.052-.512.1-.926.13-1.257a1.718,1.718,0,0,1,.071-.427,1.642,1.642,0,0,1,.013.432l-.049,1.263c-.063,1.171-.152,2.792-.265,4.848-.27,4.273-.655,10.344-1.128,17.82-1.038,15.1-2.462,35.854-4.038,58.786-1.668,22.919-3.178,43.666-4.277,58.762-.582,7.47-1.057,13.536-1.39,17.806-.179,2.051-.319,3.67-.42,4.839-.054.512-.1.927-.13,1.258A1.66,1.66,0,0,1,259.96,449.415Z" transform="translate(-259.946 -283.174)" fill="#263238"/>
        </g>
        <g id="Grupo_2633" data-name="Grupo 2633" transform="translate(54.969 52.854)">
          <path id="Caminho_1433" data-name="Caminho 1433" d="M228.867,299a14.613,14.613,0,0,1-.14,2.523c-.14,1.763-.324,4.07-.546,6.851-.435,5.786-.874,13.793-1.369,22.642s-1.028,16.863-1.614,22.648c-.281,2.892-.573,5.229-.809,6.838a14.818,14.818,0,0,1-.459,2.484,14.616,14.616,0,0,1,.14-2.523c.14-1.763.324-4.069.546-6.851.435-5.786.874-13.793,1.371-22.645s1.026-16.859,1.612-22.643c.281-2.894.573-5.229.809-6.838A14.613,14.613,0,0,1,228.867,299Z" transform="translate(-223.909 -298.996)" fill="#263238"/>
        </g>
        <g id="Grupo_2634" data-name="Grupo 2634" transform="translate(109.869 17.729)">
          <path id="Caminho_1434" data-name="Caminho 1434" d="M269.412,280.663s-7.8,10.192-6.66,11.723,6.66,8.888,6.66,8.888h4.739s4.445-12.469,3.3-14.052S269.412,280.663,269.412,280.663Z" transform="translate(-256.093 -274.624)" fill="#e63c70"/>
          <path id="Caminho_1435" data-name="Caminho 1435" d="M277.642,278.926l-8.611,6.74,3.3,6.321,8.86-6.531Z" transform="translate(-252.343 -275.643)" fill="#e63c70"/>
          <path id="Caminho_1436" data-name="Caminho 1436" d="M258.512,284.391l7.853,6.56,4.353-6.56-9.917-7.534Z" transform="translate(-258.512 -276.857)" fill="#e63c70"/>
          <path id="Caminho_1437" data-name="Caminho 1437" d="M271.339,294.127,259.353,401.458l11.792,37.328L286.869,401.8,276.52,292.848Z" transform="translate(-258.019 -267.477)" fill="#e63c70"/>
        </g>
        <g id="Grupo_2635" data-name="Grupo 2635" transform="translate(183.403 22.241)">
          <path id="Caminho_1438" data-name="Caminho 1438" d="M328.454,281.881a10.971,10.971,0,0,0-1.555-1.063,6.7,6.7,0,0,0-4.928-.279,15.3,15.3,0,0,0-6.143,4.334,36.194,36.194,0,0,0-5.615,7.5,37.963,37.963,0,0,0-4.758,16.27c-.262,4.387.3,7.1.127,7.116a8.58,8.58,0,0,1-.414-1.885,31.374,31.374,0,0,1-.3-5.256,36.19,36.19,0,0,1,4.622-16.649,35.107,35.107,0,0,1,5.794-7.633,15.4,15.4,0,0,1,6.519-4.36,6.815,6.815,0,0,1,5.247.557,4.576,4.576,0,0,1,1.125.922C328.389,281.713,328.473,281.867,328.454,281.881Z" transform="translate(-304.861 -279.701)" fill="#263238"/>
        </g>
      </g>
    </g>
    <g id="Grupo_2676" data-name="Grupo 2676" transform="translate(453.584 278.113)">
      <path id="Caminho_1439" data-name="Caminho 1439" d="M403.077,197.368c-10.16,6.232-17.219,16.663-21.414,27.82s-5.777,23.1-7.016,34.959a680.9,680.9,0,0,0-3.289,94.287c38.453,4.864,77.2,9.741,115.867,7.108-6.7-44.155-10.952-88.258-5.58-132.6" transform="translate(-273.067 -190.86)" fill="#263238"/>
      <g id="Grupo_2651" data-name="Grupo 2651" transform="translate(0 131.38)">
        <g id="Grupo_2639" data-name="Grupo 2639" transform="translate(6.456 3.144)">
          <g id="Grupo_2638" data-name="Grupo 2638">
            <path id="Caminho_1440" data-name="Caminho 1440" d="M523.242,517.016,495.252,460.4l10.685-41.4c1.255,8.774,2.372,16.389,2.372,16.389l60.054-3.176a3.811,3.811,0,0,0,3.571-4.341L560.2,345.038s-3.754-38.421-40.129-52.7l0,0-.16-.055c-1.463-.57-2.987-1.09-4.557-1.579-49.045-17-94.972-16.9-146.081.541,0,0-22.705,6.108-33.708,35.726s-22.242,73.162-22.242,73.162l50.987,18.006.338-8.609,11.269,43.087L351.2,515.377l86.227,2.131Z" transform="translate(-313.325 -278.056)" fill="#e63c70"/>
          </g>
        </g>
        <path id="Caminho_1441" data-name="Caminho 1441" d="M315.821,354.675,310.1,381.718c-4.917,23.248,12.293,47.109,35.9,49.779L471.5,444.38a49.872,49.872,0,0,0,55.288-45.2h0L368.55,384.088l.992-15.185Z" transform="translate(-309.256 -229.972)" fill="#e63c70"/>
        <path id="Caminho_1442" data-name="Caminho 1442" d="M412.6,382.273l9.748-1.805s23.1-25.272,27.438-25.632c3.565-.3,23.222-.1,30.068-.029a2.379,2.379,0,0,1,2.351,2.383h0a2.382,2.382,0,0,1-2.289,2.38l-23.224.9-.109,1.869,23.256.309c2.367.181,3.885,3.931-3.7,4.607l-19.451.692v1.209l19.724,2.757c1,.14,3.617.649,3.643,1.655,0,0,1.193,2.472-4.427,3.175-1.929.24-19.05-.328-19.05-.328l.66,1.541,17.725,3.822a2.523,2.523,0,0,1,1.964,2.815h0a2.518,2.518,0,0,1-2.729,2.158l-18.94-1.756-18.585,14.845H411.829Z" transform="translate(-249.093 -229.973)" fill="#ffbe9d"/>
        <path id="Caminho_1443" data-name="Caminho 1443" d="M373.439,280.245s24.449,125.015,33.071,124.1S455.536,284.56,455.536,284.56,403.886,268.793,373.439,280.245Z" transform="translate(-271.61 -276.075)" fill="#fafafa"/>
        <g id="Grupo_2640" data-name="Grupo 2640" transform="translate(209.614 86.673)">
          <path id="Caminho_1444" data-name="Caminho 1444" d="M441.79,369.215c-.228,0-.414-8.621-.414-19.254s.186-19.256.414-19.256.412,8.62.412,19.256S442.017,369.215,441.79,369.215Z" transform="translate(-441.376 -330.705)" fill="#263238"/>
        </g>
        <g id="Grupo_2641" data-name="Grupo 2641" transform="translate(59.903 88.399)">
          <path id="Caminho_1445" data-name="Caminho 1445" d="M347.045,369.385a36.86,36.86,0,0,1,.511-5.542c.422-3.411,1.061-8.118,1.817-13.31s1.487-9.887,2.056-13.279a37.02,37.02,0,0,1,1.092-5.461,37.208,37.208,0,0,1-.514,5.547c-.42,3.413-1.06,8.117-1.815,13.306s-1.485,9.879-2.055,13.27A37.39,37.39,0,0,1,347.045,369.385Z" transform="translate(-347.013 -331.793)" fill="#263238"/>
        </g>
        <g id="Grupo_2642" data-name="Grupo 2642" transform="translate(130.422 128.728)">
          <path id="Caminho_1446" data-name="Caminho 1446" d="M391.6,471.08a6.1,6.1,0,0,1-.076-1.158c-.014-.839-.032-1.944-.054-3.321-.024-2.883,0-7.057.1-12.212.192-10.312.749-24.545,1.456-40.259s1.358-29.944,1.7-40.244c.154-5.082.278-9.226.368-12.2.041-1.376.075-2.478.1-3.317a6.124,6.124,0,0,1,.09-1.158,6.091,6.091,0,0,1,.076,1.158c.013.839.032,1.943.054,3.321.024,2.883,0,7.057-.1,12.212-.192,10.311-.749,24.547-1.456,40.265s-1.358,29.936-1.7,40.238c-.154,5.082-.278,9.226-.368,12.2-.041,1.376-.075,2.478-.1,3.319A6.122,6.122,0,0,1,391.6,471.08Z" transform="translate(-391.461 -357.212)" fill="#263238"/>
        </g>
        <g id="Grupo_2643" data-name="Grupo 2643" transform="translate(133.818 8.236)">
          <path id="Caminho_1447" data-name="Caminho 1447" d="M443.5,281.266c.04,0,.083.541.268,1.553a22.776,22.776,0,0,0,1.25,4.317,48.306,48.306,0,0,0,3.167,6.384,87.305,87.305,0,0,1,4.5,8.379c1.374,3.214,2.621,7.125,1.9,11.355a14.64,14.64,0,0,1-2.55,5.98,40,40,0,0,1-4.479,5.177,79.476,79.476,0,0,0-9.515,10.92,25.958,25.958,0,0,0-4.91,14.363,17.769,17.769,0,0,0,1.68,7.525,67.04,67.04,0,0,1,3.08,7.117,10.658,10.658,0,0,1,.5,3.852,7.958,7.958,0,0,1-1.2,3.646,19.814,19.814,0,0,1-5.277,4.955c-7.471,5.5-14.2,10.465-19.878,14.647L398.6,401.252l-3.681,2.635-.969.67a1.528,1.528,0,0,1-.346.2c-.009-.011.092-.1.3-.273.244-.2.547-.438.92-.735l3.587-2.761c3.194-2.408,7.719-5.824,13.287-10.027l19.772-14.788a19.247,19.247,0,0,0,5.061-4.761,7.176,7.176,0,0,0,1.073-3.287,9.871,9.871,0,0,0-.476-3.559,68.055,68.055,0,0,0-3.057-7.022,18.564,18.564,0,0,1-1.755-7.855,26.659,26.659,0,0,1,5.067-14.817,79.086,79.086,0,0,1,9.641-11c3.249-3.233,6.251-6.687,6.9-10.741.714-4.008-.443-7.826-1.767-11.006a90.873,90.873,0,0,0-4.363-8.383,45.781,45.781,0,0,1-3.065-6.5,20.548,20.548,0,0,1-1.114-4.4,11.112,11.112,0,0,1-.106-1.177A1.43,1.43,0,0,1,443.5,281.266Z" transform="translate(-393.602 -281.266)" fill="#263238"/>
        </g>
        <g id="Grupo_2644" data-name="Grupo 2644" transform="translate(86.167 4.212)">
          <path id="Caminho_1448" data-name="Caminho 1448" d="M412.206,401.514a1.322,1.322,0,0,1-.387-.043l-1.122-.209a38.051,38.051,0,0,1-4.231-1.16,42.466,42.466,0,0,1-13.95-8,41.18,41.18,0,0,1-12.8-19.979,42.576,42.576,0,0,1-1.656-14.061,48.169,48.169,0,0,1,1-7.435c.438-2.45.863-5.025.208-7.419a6.035,6.035,0,0,0-1.924-3,10.1,10.1,0,0,0-3.256-1.633c-1.179-.4-2.4-.723-3.587-1.214a10.337,10.337,0,0,1-3.213-2.083,12.63,12.63,0,0,1-3.265-6.557,26.851,26.851,0,0,1-.387-6.973,95.82,95.82,0,0,1,5.2-23.33,96.922,96.922,0,0,1,6.665-14.671c.944-1.653,1.7-2.921,2.255-3.759.252-.382.457-.695.625-.952a1.379,1.379,0,0,1,.236-.308,1.315,1.315,0,0,1-.165.352c-.149.268-.332.593-.555.995-.5.863-1.217,2.153-2.113,3.825a105.358,105.358,0,0,0-6.4,14.71,97.616,97.616,0,0,0-5,23.184,26.2,26.2,0,0,0,.4,6.765,11.875,11.875,0,0,0,3.059,6.14,9.53,9.53,0,0,0,2.959,1.905c1.117.463,2.323.782,3.536,1.19a10.87,10.87,0,0,1,3.519,1.774,6.871,6.871,0,0,1,2.194,3.4c.719,2.667.241,5.321-.194,7.8a47.618,47.618,0,0,0-1,7.327,42.166,42.166,0,0,0,1.58,13.811,41.1,41.1,0,0,0,12.45,19.748,43.615,43.615,0,0,0,13.676,8.142c1.78.639,3.2,1.05,4.163,1.3l1.1.289A1.39,1.39,0,0,1,412.206,401.514Z" transform="translate(-363.567 -278.73)" fill="#263238"/>
        </g>
        <path id="Caminho_1449" data-name="Caminho 1449" d="M474.706,373.436l-105.129-3.4.159,34.883,69.608,15.307,48.975,7.818c30.439,0,54.787-27.937,50.073-58.009l-.13.035Z" transform="translate(-273.875 -220.961)" fill="#e63c70"/>
        <g id="Grupo_2645" data-name="Grupo 2645" transform="translate(95.702 149.063)">
          <path id="Caminho_1450" data-name="Caminho 1450" d="M503.648,372.774a8.447,8.447,0,0,1-1.361.1q-1.452.04-3.909.111L484,373.24c-12.139.176-28.908.382-47.434.206s-35.3-.852-47.419-1.672c-6.059-.4-10.957-.8-14.334-1.136q-2.447-.252-3.89-.4a8.291,8.291,0,0,1-1.35-.2,8.455,8.455,0,0,1,1.364.029l3.9.244c3.384.241,8.287.543,14.344.873,12.115.671,28.872,1.247,47.392,1.429s35.281.064,47.42.036l14.377,0,3.909.044A8.41,8.41,0,0,1,503.648,372.774Z" transform="translate(-369.577 -370.029)" fill="#263238"/>
        </g>
        <path id="Caminho_1451" data-name="Caminho 1451" d="M394.748,382.273,385,380.468s-23.1-25.272-27.438-25.632c-3.565-.3-23.222-.1-30.068-.029a2.379,2.379,0,0,0-2.351,2.383h0a2.382,2.382,0,0,0,2.289,2.38l23.224.9.109,1.869-23.256.309c-2.367.181-3.885,3.931,3.7,4.607l19.451.692v1.209l-19.724,2.757c-1,.14-3.617.649-3.643,1.655,0,0-1.193,2.472,4.426,3.175,1.929.24,19.05-.328,19.05-.328l-.66,1.541-17.725,3.822a2.523,2.523,0,0,0-1.964,2.815h0a2.519,2.519,0,0,0,2.729,2.158l18.94-1.756,18.585,14.845h24.853Z" transform="translate(-299.938 -229.973)" fill="#ffbe9d"/>
        <g id="Grupo_2646" data-name="Grupo 2646" transform="translate(97.46 183.956)">
          <path id="Caminho_1452" data-name="Caminho 1452" d="M485.8,414.6a6.418,6.418,0,0,1-1.193-.071l-3.4-.365c-2.954-.327-7.22-.869-12.483-1.6-10.527-1.455-25.031-3.76-40.945-6.876s-30.22-6.468-40.516-9.1c-5.15-1.312-9.3-2.421-12.162-3.232l-3.287-.947a6.522,6.522,0,0,1-1.131-.384,6.335,6.335,0,0,1,1.174.222l3.327.8,12.22,2.976c10.325,2.481,24.633,5.731,40.536,8.853s30.373,5.507,40.869,7.108l12.44,1.859,3.381.519A6.513,6.513,0,0,1,485.8,414.6Z" transform="translate(-370.685 -392.022)" fill="#263238"/>
        </g>
        <g id="Grupo_2647" data-name="Grupo 2647" transform="translate(94.572 149.791)">
          <path id="Caminho_1453" data-name="Caminho 1453" d="M371.094,404.819a27.17,27.17,0,0,1-.909-4.969c-.425-3.091-.868-7.382-1.115-12.137s-.243-9.072-.14-12.19a26.943,26.943,0,0,1,.4-5.036,35.46,35.46,0,0,1,.19,5.04c.044,3.111.138,7.4.381,12.142s.595,9.016.869,12.115A35.134,35.134,0,0,1,371.094,404.819Z" transform="translate(-368.865 -370.488)" fill="#263238"/>
        </g>
        <g id="Grupo_2648" data-name="Grupo 2648" transform="translate(105.154 150.265)">
          <path id="Caminho_1454" data-name="Caminho 1454" d="M378.678,406.008a4.633,4.633,0,0,1-.46-1.325c-.249-.866-.554-2.132-.881-3.706a90.05,90.05,0,0,1-1.523-25.034c.135-1.6.282-2.9.425-3.785a4.571,4.571,0,0,1,.3-1.371,44.84,44.84,0,0,1-.138,5.191c-.122,3.2-.165,7.617.127,12.486s.879,9.25,1.387,12.408A44.032,44.032,0,0,1,378.678,406.008Z" transform="translate(-375.535 -370.787)" fill="#263238"/>
        </g>
        <g id="Grupo_2649" data-name="Grupo 2649" transform="translate(97.493 154.846)">
          <path id="Caminho_1455" data-name="Caminho 1455" d="M371.8,374.2c.087.1-.519.531-.5,1.533a1.889,1.889,0,0,0,.641,1.415,1.7,1.7,0,0,0,2.6-1.5,1.887,1.887,0,0,0-.9-1.265c-.855-.519-1.536-.212-1.574-.338-.1-.052.639-.682,1.839-.181a2.381,2.381,0,0,1,1.387,1.65,2.41,2.41,0,0,1-3.843,2.215,2.38,2.38,0,0,1-.733-2.028C370.889,374.415,371.8,374.1,371.8,374.2Z" transform="translate(-370.706 -373.675)" fill="#263238"/>
        </g>
        <g id="Grupo_2650" data-name="Grupo 2650" transform="translate(15.649 190.364)">
          <path id="Caminho_1456" data-name="Caminho 1456" d="M421.172,396.345a5.213,5.213,0,0,1-1.08.037c-.706-.017-1.747-.011-3.087.01a84.059,84.059,0,0,0-11.282,1.06A166.39,166.39,0,0,0,389.3,401.1c-6.132,1.618-12.84,3.584-20.019,5.147a85.636,85.636,0,0,1-20.584,2.232,51.5,51.5,0,0,1-16.6-3.175,37.09,37.09,0,0,1-9.93-5.594,25.874,25.874,0,0,1-2.307-2.075,5.457,5.457,0,0,1-.733-.795c.068-.073,1.1,1.011,3.237,2.616a39.109,39.109,0,0,0,9.938,5.3,52.159,52.159,0,0,0,16.419,2.96,87.175,87.175,0,0,0,20.389-2.278c7.141-1.555,13.846-3.5,20-5.075a154.02,154.02,0,0,1,16.53-3.489,74.115,74.115,0,0,1,11.368-.8c1.347.03,2.391.075,3.1.146A5.219,5.219,0,0,1,421.172,396.345Z" transform="translate(-319.119 -396.061)" fill="#263238"/>
        </g>
      </g>
      <g id="Grupo_2675" data-name="Grupo 2675" transform="translate(90.995)">
        <g id="Grupo_2674" data-name="Grupo 2674" transform="translate(18.08)">
          <g id="Grupo_2673" data-name="Grupo 2673">
            <g id="Grupo_2667" data-name="Grupo 2667" transform="translate(2.801 14.767)">
              <g id="Grupo_2652" data-name="Grupo 2652">
                <path id="Caminho_1457" data-name="Caminho 1457" d="M431.841,338.079c2.5-13.941,5.386-28.572,5.386-28.572s18.494.181,26.348-22.608c7.488-21.732,12.9-74.014,12.9-74.014h0c-24-15.1-55.881-13.478-77.969,3.974h0L380.069,330.423c-2.14,13.183,7.49,25.523,21.625,27.707h0C415.968,360.335,429.46,351.362,431.841,338.079Z" transform="translate(-379.771 -202.574)" fill="#ffbe9d"/>
              </g>
              <g id="Grupo_2656" data-name="Grupo 2656" transform="translate(76.558 42.637)">
                <g id="Grupo_2653" data-name="Grupo 2653" transform="translate(0.307 3.548)">
                  <path id="Caminho_1458" data-name="Caminho 1458" d="M434.3,234.968a3.053,3.053,0,0,1-3.433,2.523,2.92,2.92,0,0,1-2.621-3.257,3.055,3.055,0,0,1,3.43-2.526A2.923,2.923,0,0,1,434.3,234.968Z" transform="translate(-428.22 -231.684)" fill="#263238"/>
                </g>
                <g id="Grupo_2655" data-name="Grupo 2655">
                  <g id="Grupo_2654" data-name="Grupo 2654">
                    <path id="Caminho_1459" data-name="Caminho 1459" d="M439.884,233.771c-.443.327-2.423-1.761-5.661-2.323-3.224-.606-5.892.639-6.173.181-.143-.2.362-.846,1.529-1.417a8.381,8.381,0,0,1,5.028-.63,8.047,8.047,0,0,1,4.419,2.339C439.885,232.859,440.1,233.629,439.884,233.771Z" transform="translate(-428.026 -229.448)" fill="#263238"/>
                  </g>
                </g>
              </g>
              <g id="Grupo_2660" data-name="Grupo 2660" transform="translate(42.591 37.866)">
                <g id="Grupo_2657" data-name="Grupo 2657" transform="translate(1.051 3.056)">
                  <path id="Caminho_1460" data-name="Caminho 1460" d="M413.362,231.651a3.053,3.053,0,0,1-3.433,2.523,2.92,2.92,0,0,1-2.623-3.257,3.056,3.056,0,0,1,3.432-2.526A2.923,2.923,0,0,1,413.362,231.651Z" transform="translate(-407.279 -228.367)" fill="#263238"/>
                </g>
                <g id="Grupo_2659" data-name="Grupo 2659">
                  <g id="Grupo_2658" data-name="Grupo 2658">
                    <path id="Caminho_1461" data-name="Caminho 1461" d="M418.474,230.764c-.441.325-2.426-1.761-5.659-2.323-3.225-.606-5.894.639-6.175.181-.141-.2.358-.846,1.529-1.417a8.384,8.384,0,0,1,5.028-.63,8.046,8.046,0,0,1,4.418,2.337C418.474,229.852,418.688,230.62,418.474,230.764Z" transform="translate(-406.616 -226.441)" fill="#263238"/>
                  </g>
                </g>
              </g>
              <g id="Grupo_2662" data-name="Grupo 2662" transform="translate(61.965 41.035)">
                <g id="Grupo_2661" data-name="Grupo 2661">
                  <path id="Caminho_1462" data-name="Caminho 1462" d="M418.828,255.655c.017-.186,2.089-.179,5.421-.022.841.06,1.653.033,1.891-.506a4.263,4.263,0,0,0-.121-2.545q-.635-3.206-1.336-6.722c-1.815-9.554-2.973-17.352-2.588-17.422s2.169,7.617,3.985,17.173q.64,3.529,1.225,6.741a4.846,4.846,0,0,1-.143,3.317,2.1,2.1,0,0,1-1.571.969,5.69,5.69,0,0,1-1.437-.052C420.845,256.185,418.807,255.841,418.828,255.655Z" transform="translate(-418.828 -228.438)" fill="#263238"/>
                </g>
              </g>
              <g id="Grupo_2663" data-name="Grupo 2663" transform="translate(27.532 93.028)">
                <path id="Caminho_1463" data-name="Caminho 1463" d="M427.049,275.115a60.565,60.565,0,0,1-29.924-13.906s4.782,17.447,28.632,19.386Z" transform="translate(-397.125 -261.209)" fill="#eb996e"/>
              </g>
              <g id="Grupo_2664" data-name="Grupo 2664" transform="translate(49.165 72.71)">
                <path id="Caminho_1464" data-name="Caminho 1464" d="M420.819,251.5a5.923,5.923,0,0,0-4.845-3.086,5.4,5.4,0,0,0-4.023,1.325,3.425,3.425,0,0,0-.936,3.811,3.974,3.974,0,0,0,4.054,1.82,12.41,12.41,0,0,0,4.569-1.74,3.612,3.612,0,0,0,1.093-.793,1.1,1.1,0,0,0,.208-1.206" transform="translate(-410.76 -248.403)" fill="#eb996e"/>
              </g>
              <g id="Grupo_2666" data-name="Grupo 2666" transform="translate(51.12 68.81)">
                <g id="Grupo_2665" data-name="Grupo 2665">
                  <path id="Caminho_1465" data-name="Caminho 1465" d="M412.922,245.948c.531.062-.081,3.574,2.486,6.6s6.373,3.3,6.314,3.79c.009.228-.954.536-2.542.3a8.867,8.867,0,0,1-5.306-2.965,7.73,7.73,0,0,1-1.859-5.493C412.139,246.686,412.684,245.885,412.922,245.948Z" transform="translate(-411.992 -245.945)" fill="#263238"/>
                </g>
              </g>
            </g>
            <g id="Grupo_2668" data-name="Grupo 2668" transform="translate(37.354)">
              <path id="Caminho_1466" data-name="Caminho 1466" d="M401.588,205.563c6.264,13.817,26.565,30.633,42.245,36.6-1.425-2.851-10.238-10.871-11.663-13.722,6.324,6.878,15.467,16.2,25.132,18.537a6.025,6.025,0,0,0,3.454.108c1.442-.544,1.993-2.028,2.4-3.354a99.318,99.318,0,0,0,3.313-21.326c.157-5.846-1.388-11.983-5.6-16.714-5.345-6.005-14.069-8.882-22.462-10.67-7.038-1.5-14.407-2.453-21.35-1.117s-13.421,5.339-15.507,11.225" transform="translate(-401.55 -193.266)" fill="#263238"/>
            </g>
            <g id="Grupo_2669" data-name="Grupo 2669" transform="translate(0 1.251)">
              <path id="Caminho_1467" data-name="Caminho 1467" d="M378.012,257.146a134.913,134.913,0,0,1,.6-16.078c1.582-12.2,5.386-56.568,46.337-45.153L420.6,207.279s3.145,28.555-17.874,43.887c0,0,.09,28.5-14.468,38.783,0,0-10.154-19.327-10.241-32.8" transform="translate(-378.006 -194.055)" fill="#263238"/>
            </g>
            <g id="Grupo_2670" data-name="Grupo 2670" transform="translate(9.992 55.379)">
              <path id="Caminho_1468" data-name="Caminho 1468" d="M399.9,229.221a14.2,14.2,0,0,0-7.633-.846,9.9,9.9,0,0,0-6.407,4.039,10.355,10.355,0,0,0-1.385,7.482,17.551,17.551,0,0,0,3.16,7.057,11.883,11.883,0,0,0,4.02,3.822,5.674,5.674,0,0,0,5.364.111" transform="translate(-384.304 -228.171)" fill="#ffbe9d"/>
            </g>
            <g id="Grupo_2672" data-name="Grupo 2672" transform="translate(15.313 58.851)">
              <g id="Grupo_2671" data-name="Grupo 2671">
                <path id="Caminho_1469" data-name="Caminho 1469" d="M393.873,242.892c.271.143-1.087,1.468-3.27.447a5.011,5.011,0,0,1-2.4-2.973,11.3,11.3,0,0,1-.516-4.38,6.656,6.656,0,0,1,1.837-4.227,4.423,4.423,0,0,1,3.636-1.364c2.367.362,2.811,2.124,2.535,2.124-.222.159-.988-.846-2.6-.746-1.526.011-3.338,1.793-3.465,4.382-.175,2.629.4,5.164,1.671,6C392.6,243.13,393.752,242.657,393.873,242.892Z" transform="translate(-387.658 -230.36)" fill="#eb996e"/>
              </g>
            </g>
          </g>
        </g>
        <path id="Caminho_1470" data-name="Caminho 1470" d="M406.177,242.455c-6.362,37.939-1.177,76.716-.044,115.167.109,3.686.143,7.547-1.533,10.831-2.534,4.969-8.425,7.381-13.992,7.723s-11.088-.958-16.646-1.412q-.9-5.533-1.8-11.066L366.61,376.45q3.67-40.474,8.033-80.879" transform="translate(-366.61 -164.415)" fill="#263238"/>
      </g>
    </g>
  </g>
</svg>
