<svg xmlns="http://www.w3.org/2000/svg" width="624.936" height="93.591" viewBox="0 0 624.936 93.591">
  <g id="Grupo_149" data-name="Grupo 149" transform="translate(-302.073 -533.914)">
    <g id="Grupo_146" data-name="Grupo 146" transform="translate(302.073 533.914)">
      <g id="Grupo_145" data-name="Grupo 145">
        <path id="Caminho_142" data-name="Caminho 142" d="M302.5,539.31a4.078,4.078,0,0,1-.024-3.58q.8-1.489,3.58-1.489h12.906a2.943,2.943,0,0,1,2.142.811,5.092,5.092,0,0,1,1.256,2.009l10.095,28.726a4.92,4.92,0,0,0,9.293-.03l9.874-28.7a4.219,4.219,0,0,1,1.464-2.248,4.531,4.531,0,0,1,2.454-.572h13.429a5.6,5.6,0,0,1,2.3.39,2.276,2.276,0,0,1,1.407,2.512,6.567,6.567,0,0,1-.415,1.595q-1.993,4.911-4.339,10.736T363.038,561.6q-2.537,6.3-5.147,12.8t-5.1,12.779q-2.483,6.264-4.778,12.043t-4.206,10.609q-1.915,4.83-3.319,8.488t-2.143,5.646l.157-.26a4.512,4.512,0,0,1-1.307,2.272,3.291,3.291,0,0,1-2.3.863H322.826a4.36,4.36,0,0,1-3.214-.917,3.759,3.759,0,0,1-.859-2.687,2.337,2.337,0,0,1,.182-1.05,2.207,2.207,0,0,1,.285-.469l7.5-19.5a4.935,4.935,0,0,0-.036-3.625Z" transform="translate(-302.073 -533.249)" fill="#fff"/>
        <path id="Caminho_143" data-name="Caminho 143" d="M326.372,568.2a34.111,34.111,0,0,1,10.007-24.38,33.421,33.421,0,0,1,6.924-5.3,34.64,34.64,0,0,1,8.231-3.4,35.09,35.09,0,0,1,9.223-1.2,34.074,34.074,0,0,1,24.22,9.9,34.561,34.561,0,0,1,7.317,10.869,33.779,33.779,0,0,1,2.69,13.511,34.3,34.3,0,0,1-10.007,24.377,34,34,0,0,1-15.1,8.751,34.3,34.3,0,0,1-9.12,1.2,35.084,35.084,0,0,1-9.223-1.2,33.837,33.837,0,0,1-20.486-15.678,34.771,34.771,0,0,1-3.447-8.231A34.208,34.208,0,0,1,326.372,568.2Zm19.073,0a19.152,19.152,0,0,0,1.071,6.451,15.537,15.537,0,0,0,3.032,5.2,14.3,14.3,0,0,0,4.754,3.48,15.006,15.006,0,0,0,6.3,1.274,14.387,14.387,0,0,0,6.14-1.274,13.868,13.868,0,0,0,4.654-3.48,15.316,15.316,0,0,0,2.923-5.2,20.686,20.686,0,0,0,0-12.83,16.534,16.534,0,0,0-2.923-5.332,13.694,13.694,0,0,0-10.794-4.959,14.441,14.441,0,0,0-6.3,1.331,14.25,14.25,0,0,0-4.754,3.628,16.772,16.772,0,0,0-3.032,5.332A19.114,19.114,0,0,0,345.445,568.2Z" transform="translate(-252.843 -533.914)" fill="#fff"/>
        <path id="Caminho_144" data-name="Caminho 144" d="M351.808,568.2a34.516,34.516,0,0,1,1.232-9.251,33.88,33.88,0,0,1,8.775-15.13,33.364,33.364,0,0,1,6.926-5.3,34.59,34.59,0,0,1,8.231-3.4,35.074,35.074,0,0,1,9.223-1.2,34.088,34.088,0,0,1,24.22,9.9,34.5,34.5,0,0,1,7.314,10.869,33.726,33.726,0,0,1,2.693,13.511,34.335,34.335,0,0,1-10.007,24.377,33.842,33.842,0,0,1-6.923,5.329,34.079,34.079,0,0,1-17.3,4.621,35.068,35.068,0,0,1-9.223-1.2,33.807,33.807,0,0,1-20.486-15.678,34.647,34.647,0,0,1-4.678-17.451Zm19.073,0a19.078,19.078,0,0,0,1.074,6.451,15.491,15.491,0,0,0,3.032,5.2,14.266,14.266,0,0,0,4.754,3.48,15,15,0,0,0,6.3,1.274,14.4,14.4,0,0,0,6.14-1.274,13.857,13.857,0,0,0,4.651-3.48,15.274,15.274,0,0,0,2.926-5.2,20.747,20.747,0,0,0,0-12.83,16.486,16.486,0,0,0-2.926-5.332,13.682,13.682,0,0,0-10.791-4.959,14.432,14.432,0,0,0-6.3,1.331,14.221,14.221,0,0,0-4.754,3.628,16.72,16.72,0,0,0-3.032,5.332A19.04,19.04,0,0,0,370.881,568.2Z" transform="translate(-201.31 -533.914)" fill="#fff"/>
        <path id="Caminho_145" data-name="Caminho 145" d="M439.528,599.745a3.247,3.247,0,0,1-1.44.729,6.922,6.922,0,0,1-1.431.157h-7.892a3.422,3.422,0,0,1-2.775-1.25,5.561,5.561,0,0,1-.778-1.307,10.986,10.986,0,0,1-.527-1.51l-1.092-5.1a13.024,13.024,0,0,1-2.617,3.41,21.082,21.082,0,0,1-4.521,3.31,28.286,28.286,0,0,1-13.82,3.489,23.258,23.258,0,0,1-10.555-2.3,22.9,22.9,0,0,1-7.765-6.27,27.734,27.734,0,0,1-4.778-9.275,38.418,38.418,0,0,1-1.619-11.314V538.284a4.583,4.583,0,0,1,.859-3.008,3.411,3.411,0,0,1,2.745-1.017H393.6a4.666,4.666,0,0,1,3.08.76,3.964,3.964,0,0,1,.835,2.956v34.055a10.76,10.76,0,0,0,.862,4.264,12.011,12.011,0,0,0,2.327,3.559,10.837,10.837,0,0,0,3.422,2.43,9.944,9.944,0,0,0,4.155.89,14.785,14.785,0,0,0,4.076-.626,13.388,13.388,0,0,0,4.076-1.964,11.143,11.143,0,0,0,3.138-3.428,9.581,9.581,0,0,0,1.25-5.02v-34a4.907,4.907,0,0,1,.345-1.782,2.74,2.74,0,0,1,1.017-1.356,4.842,4.842,0,0,1,1.28-.578,5.42,5.42,0,0,1,1.383-.157h11.813a3.675,3.675,0,0,1,4.23,4.025v58.48a3.858,3.858,0,0,1-.445,1.828,3.253,3.253,0,0,1-1.228,1.3Z" transform="translate(-148.41 -533.215)" fill="#fff"/>
      </g>
    </g>
    <g id="Grupo_148" data-name="Grupo 148" transform="translate(618.643 533.914)">
      <g id="Grupo_147" data-name="Grupo 147">
        <path id="Caminho_146" data-name="Caminho 146" d="M469.758,549.979c.033-.536.048-1.083.048-1.649a13.428,13.428,0,0,1,.112-1.7v-9.68a1.865,1.865,0,0,1,.56-1.431,2.059,2.059,0,0,1,1.477-.532h2.2a1.893,1.893,0,0,1,1.5.608,2.094,2.094,0,0,1,.538,1.413v55.354a1.043,1.043,0,0,1-.027.215.681.681,0,0,0-.027.157,46.454,46.454,0,0,1-1.528,11.169,33.4,33.4,0,0,1-3.7,8.718,27.635,27.635,0,0,1-5.432,6.46,29.111,29.111,0,0,1-6.784,4.388,33.7,33.7,0,0,1-7.686,2.5,41.677,41.677,0,0,1-8.158.8,39.419,39.419,0,0,1-10.452-1.274,34.571,34.571,0,0,1-8.642-3.668,2.594,2.594,0,0,1-.823-.611,1.408,1.408,0,0,1-.291-.932,3.677,3.677,0,0,1,.055-.744,1.858,1.858,0,0,1,.263-.614c.142-.23.372-.554.693-.983s.741-1.044,1.274-1.861a.684.684,0,0,1,.747-.342,3.841,3.841,0,0,1,.85.236,14.761,14.761,0,0,0,2.285,1.274,32.611,32.611,0,0,0,3.858,1.546,40.956,40.956,0,0,0,4.811,1.28,26.229,26.229,0,0,0,5.208.526,31.991,31.991,0,0,0,10.8-1.779,23.8,23.8,0,0,0,14.437-13.771,30.487,30.487,0,0,0,2.1-11.729v-5.795a29.922,29.922,0,0,1-5.208,6.86,31.5,31.5,0,0,1-6.812,5.1,34.134,34.134,0,0,1-7.895,3.193,32.546,32.546,0,0,1-8.479,1.116,34.059,34.059,0,0,1-9.229-1.247,34.916,34.916,0,0,1-8.325-3.54,35.8,35.8,0,0,1-7.1-5.474,34.61,34.61,0,0,1-5.5-7.072,35.072,35.072,0,0,1-3.537-8.349,34.355,34.355,0,0,1-1.247-9.256,33.5,33.5,0,0,1,1.274-9.25,35.642,35.642,0,0,1,3.565-8.349,34.6,34.6,0,0,1,5.5-7.072,35.716,35.716,0,0,1,7.1-5.477,35.12,35.12,0,0,1,8.294-3.537,33.546,33.546,0,0,1,9.2-1.253,32.325,32.325,0,0,1,8.536,1.144A33.579,33.579,0,0,1,458,538.3a32.016,32.016,0,0,1,6.675,5.075A31.071,31.071,0,0,1,469.758,549.979Zm-56.74,18.9a27.932,27.932,0,0,0,1.011,7.52,29.91,29.91,0,0,0,7.256,12.752A28.859,28.859,0,0,0,427,593.768a28.264,28.264,0,0,0,6.751,3.035,25.967,25.967,0,0,0,7.5,1.086,27.72,27.72,0,0,0,10.4-1.967,29.451,29.451,0,0,0,8.745-5.4,29.892,29.892,0,0,0,6.355-8.073,27.7,27.7,0,0,0,3.165-9.958v-6.96a28.277,28.277,0,0,0-3.111-9.965,30.366,30.366,0,0,0-6.252-8.125,28.553,28.553,0,0,0-8.612-5.471,26.783,26.783,0,0,0-10.316-1.994,27.974,27.974,0,0,0-7.6,1.032,28.252,28.252,0,0,0-12.606,7.465,30.3,30.3,0,0,0-4.494,5.874,28.241,28.241,0,0,0-2.9,6.9A28.731,28.731,0,0,0,413.017,568.879Z" transform="translate(-406.69 -533.914)" fill="#d6c929"/>
        <path id="Caminho_147" data-name="Caminho 147" d="M476.535,545.646a.809.809,0,0,1-.587.269,2.359,2.359,0,0,1-.881-.215,7.083,7.083,0,0,1-1.3-.8,26.219,26.219,0,0,0-2.63-1.628q-1.516-.822-3.192-1.537a24.44,24.44,0,0,0-3.4-1.171,13.268,13.268,0,0,0-3.377-.454,20.742,20.742,0,0,0-7.713,1.437,19.109,19.109,0,0,0-6.327,4.067,18.794,18.794,0,0,0-4.279,6.436,22.073,22.073,0,0,0-1.567,8.482v39.722a1.484,1.484,0,0,1-1.7,1.649h-2.817c-1.168,0-1.758-.551-1.758-1.649V536.4a1.3,1.3,0,0,1,1.489-1.44.616.616,0,0,1,.269.055.941.941,0,0,1,.369-.055h2.179a1.887,1.887,0,0,1,1.468.56,2.032,2.032,0,0,1,.505,1.413v8.663A21.212,21.212,0,0,1,444.2,541.5a21.855,21.855,0,0,1,4.252-3.64,22.889,22.889,0,0,1,5.456-2.633,20.064,20.064,0,0,1,6.46-1.011,33.442,33.442,0,0,1,5.129.372,25.9,25.9,0,0,1,4.494,1.117,23.477,23.477,0,0,1,4.091,1.888,34.388,34.388,0,0,1,3.94,2.681,8.555,8.555,0,0,1,.956.908,1.635,1.635,0,0,1,.424,1.113c0,.321-.3.808-.9,1.462A22.486,22.486,0,0,1,476.535,545.646Z" transform="translate(-349.334 -533.306)" fill="#d6c929"/>
        <path id="Caminho_148" data-name="Caminho 148" d="M452.4,568.886a34.134,34.134,0,0,1,1.253-9.256,34.955,34.955,0,0,1,3.531-8.349,35.475,35.475,0,0,1,12.552-12.546,34.933,34.933,0,0,1,8.321-3.537,34.762,34.762,0,0,1,18.452,0,34.937,34.937,0,0,1,8.322,3.537,35.824,35.824,0,0,1,7.1,5.477,34.614,34.614,0,0,1,5.5,7.069,35.1,35.1,0,0,1,3.537,8.349,34.968,34.968,0,0,1,0,18.507,34.963,34.963,0,0,1-3.537,8.352,34.6,34.6,0,0,1-5.5,7.069,35.708,35.708,0,0,1-7.1,5.477,34.69,34.69,0,0,1-8.322,3.537,34.6,34.6,0,0,1-18.452,0,34.686,34.686,0,0,1-8.321-3.537,35.474,35.474,0,0,1-12.552-12.546,34.821,34.821,0,0,1-3.531-8.352A34.1,34.1,0,0,1,452.4,568.886Zm6.382-.027a27.9,27.9,0,0,0,1.011,7.517,29.9,29.9,0,0,0,7.256,12.754,28.232,28.232,0,0,0,5.74,4.594,28.84,28.84,0,0,0,6.757,2.975,26.271,26.271,0,0,0,7.526,1.062A27.885,27.885,0,0,0,498.21,595.5a29.509,29.509,0,0,0,9.172-6.164A29.181,29.181,0,0,0,513.6,580.2a27.7,27.7,0,0,0,2.288-11.239,28.368,28.368,0,0,0-2.23-11.129,29.908,29.908,0,0,0-6.094-9.272,29.472,29.472,0,0,0-9.036-6.346,26.41,26.41,0,0,0-11.09-2.369,27.323,27.323,0,0,0-11.142,2.315,28.791,28.791,0,0,0-9.117,6.294,30.223,30.223,0,0,0-6.143,9.244A27.99,27.99,0,0,0,458.779,568.859Z" transform="translate(-314.088 -533.839)" fill="#d6c929"/>
        <path id="Caminho_149" data-name="Caminho 149" d="M526.8,540.238q1.112-2.5,2.285-5.047a1.833,1.833,0,0,1,1.253-.72,10.9,10.9,0,0,1,1.725-.133,7.428,7.428,0,0,1,2.4.266,1.158,1.158,0,0,1,.69,1.222,2.155,2.155,0,0,1-.082.53,3.408,3.408,0,0,1-.13.427v-.055q-1.647,3.99-3.3,7.928t-3.3,7.919q3.931,9.627,8,19.624t8.058,19.62q1.493-3.618,3.326-8.079t3.828-9.39q1.993-4.916,4.07-10.073t4.121-10.185q2.042-5.025,3.931-9.7t3.483-8.615a1.614,1.614,0,0,1,.775-.693,5.916,5.916,0,0,1,1.247-.421,8.542,8.542,0,0,1,1.434-.215c.5-.033.962-.055,1.386-.055a1.652,1.652,0,0,1,1.253.427,1.43,1.43,0,0,1,.393,1.011,2.436,2.436,0,0,1-.076.53,1.166,1.166,0,0,1-.133.372L547.11,600.7a1.776,1.776,0,0,1-.72.714,2.541,2.541,0,0,1-1.3.3h-1.758a1.967,1.967,0,0,1-1.247-.4,1.161,1.161,0,0,1-.505-.929q-4.144-10-8.24-19.863t-8.246-19.863q-1.8,4.417-3.725,9.069t-3.849,9.359q-1.947,4.707-3.855,9.384t-3.725,9.1l-1.331,3.138a2.073,2.073,0,0,1-2.021,1.011h-1.752a2.138,2.138,0,0,1-1.253-.4,1.142,1.142,0,0,1-.554-.929L476.6,536.728a2.39,2.39,0,0,1-.109-.9,1.121,1.121,0,0,1,.935-1.253,12.836,12.836,0,0,1,2.36-.184,7.821,7.821,0,0,1,1.891.215,1.648,1.648,0,0,1,1.2.953q1.589,3.94,3.51,8.594c1.274,3.1,2.59,6.327,3.958,9.671s2.748,6.769,4.149,10.24,2.784,6.863,4.149,10.158,2.657,6.442,3.882,9.438,2.345,5.716,3.374,8.161q3.4-8.238,8.085-19.941t10.688-26.586h-.054C525.326,543.587,526.05,541.908,526.8,540.238Z" transform="translate(-265.276 -533.057)" fill="#d6c929"/>
      </g>
    </g>
  </g>
</svg>
