<svg xmlns="http://www.w3.org/2000/svg" width="196.349" height="227.306" viewBox="0 0 196.349 227.306">
  <g id="Grupo_86" data-name="Grupo 86" transform="translate(1.114 10.276)">
    <g id="Grupo_83" data-name="Grupo 83" transform="translate(0)">
      <path id="Caminho_95" data-name="Caminho 95" d="M398.54,480.363a85.6,85.6,0,0,0-60.862-24.88A88.04,88.04,0,0,0,314.5,458.5a86.913,86.913,0,0,0-20.682,8.534,83.612,83.612,0,0,0-17.4,13.33,87.489,87.489,0,0,0-22.055,84.431,87.16,87.16,0,0,0,8.662,20.682A84.952,84.952,0,0,0,314.5,624.867a88.073,88.073,0,0,0,23.174,3.014,85.675,85.675,0,0,0,43.462-11.612,85.111,85.111,0,0,0,30.794-30.794,87.01,87.01,0,0,0,11.753-43.856,84.746,84.746,0,0,0-6.767-33.948A86.694,86.694,0,0,0,398.54,480.363Zm-26.786,77.473A38.468,38.468,0,0,1,364.4,570.9a34.839,34.839,0,0,1-11.689,8.738,36.153,36.153,0,0,1-15.428,3.205,37.688,37.688,0,0,1-15.823-3.205,35.848,35.848,0,0,1-11.943-8.738,39.017,39.017,0,0,1-7.619-13.063,49.547,49.547,0,0,1,0-32.243,42.049,42.049,0,0,1,7.619-13.393,35.686,35.686,0,0,1,11.943-9.12,36.228,36.228,0,0,1,15.823-3.345A34.372,34.372,0,0,1,364.4,512.2a41.455,41.455,0,0,1,7.352,13.393,52.112,52.112,0,0,1,0,32.243Z" transform="translate(-228.452 -420.556)" fill="#ffeff4"/>
      <path id="Caminho_96" data-name="Caminho 96" d="M398.54,480.363a85.6,85.6,0,0,0-60.862-24.88A88.04,88.04,0,0,0,314.5,458.5a86.913,86.913,0,0,0-20.682,8.534,83.612,83.612,0,0,0-17.4,13.33,87.489,87.489,0,0,0-22.055,84.431,87.16,87.16,0,0,0,8.662,20.682A84.952,84.952,0,0,0,314.5,624.867a88.073,88.073,0,0,0,23.174,3.014,85.675,85.675,0,0,0,43.462-11.612,85.111,85.111,0,0,0,30.794-30.794,87.01,87.01,0,0,0,11.753-43.856,84.746,84.746,0,0,0-6.767-33.948A86.694,86.694,0,0,0,398.54,480.363Z" transform="translate(-245.05 -433.465)" fill="none" stroke="#9eebc2" stroke-width="4"/>
      <text id="_4." data-name="4." transform="translate(26.886 58.724)" fill="#eb3c70" font-size="64" font-family="SegoeUI-Bold, Segoe UI" font-weight="700"><tspan x="-27.078" y="0">4.</tspan></text>
    </g>
    <g id="Grupo_87" data-name="Grupo 87" transform="translate(56.01 113.5)">
      <path id="Caminho_97" data-name="Caminho 97" d="M352.867,398.11a15.333,15.333,0,0,1-15.338,15.338H249.338A15.337,15.337,0,0,1,234,398.11a3.831,3.831,0,0,1,3.834-3.834h111.2a3.835,3.835,0,0,1,3.834,3.834Zm0,0" transform="translate(-232.083 -311.836)" fill="#cb3360"/>
      <path id="Caminho_98" data-name="Caminho 98" d="M353.211,396.612a15.337,15.337,0,0,1-15.033,12.282H249.986a15.343,15.343,0,0,1-15.033-12.282,3.828,3.828,0,0,1,3.53-2.336h111.2a3.833,3.833,0,0,1,3.53,2.336Zm0,0" transform="translate(-232.731 -311.836)" fill="#eb3c70"/>
      <path id="Caminho_99" data-name="Caminho 99" d="M372,394.276h30.675l-3.834,7.669H375.834Zm0,0" transform="translate(-325.987 -311.836)" fill="#ffeff4"/>
      <path id="Caminho_100" data-name="Caminho 100" d="M359.364,150.9v63.268a8.628,8.628,0,0,1-8.627,8.627H260.627A8.628,8.628,0,0,1,252,214.171V150.9a8.628,8.628,0,0,1,8.627-8.627h90.109a8.627,8.627,0,0,1,8.627,8.627Zm0,0" transform="translate(-244.331 -140.359)" fill="#eb3c70"/>
      <path id="Caminho_101" data-name="Caminho 101" d="M359.141,148.942a71.9,71.9,0,0,1-71.672,66.188H260.627A8.628,8.628,0,0,1,252,206.5V150.9a8.628,8.628,0,0,1,8.627-8.627h90.109a8.633,8.633,0,0,1,8.4,6.666Zm0,0" transform="translate(-244.331 -140.359)" fill="#fa6392"/>
      <path id="Caminho_102" data-name="Caminho 102" d="M366.109,231.461H277.917A1.918,1.918,0,0,1,276,229.544V168.193a1.918,1.918,0,0,1,1.917-1.917h88.192a1.918,1.918,0,0,1,1.917,1.917v61.351a1.918,1.918,0,0,1-1.917,1.917Zm0,0" transform="translate(-260.662 -156.69)" fill="#83d3f2"/>
      <rect id="Retângulo_73" data-name="Retângulo 73" width="83" height="56" transform="translate(19.876 13.224)" fill="#aeecff"/>
      <path id="Caminho_103" data-name="Caminho 103" d="M412.191,178.276v15.338l-42.179,42.179H346.539l57.514-57.516Zm0,0" transform="translate(-308.662 -164.855)" fill="#bef0fc"/>
      <path id="Caminho_104" data-name="Caminho 104" d="M362.607,178.276,305.09,235.792h-4.3L358.3,178.276Zm0,0" transform="translate(-277.53 -164.855)" fill="#bef0fc"/>
      <path id="Caminho_105" data-name="Caminho 105" d="M328.741,178.276,288,219.017v-13.9l26.841-26.841Zm0,0" transform="translate(-268.828 -164.855)" fill="#bef0fc"/>
      <path id="Caminho_106" data-name="Caminho 106" d="M344.95,216.8h-2.416a10.5,10.5,0,0,0,2.416-6.71V146.821a10.557,10.557,0,0,0-10.545-10.545H244.3a10.557,10.557,0,0,0-10.545,10.545v63.268a10.5,10.5,0,0,0,2.416,6.71h-2.416A5.758,5.758,0,0,0,228,222.551a17.274,17.274,0,0,0,17.255,17.255h88.192A17.274,17.274,0,0,0,350.7,222.551a5.758,5.758,0,0,0-5.752-5.752Zm-107.364-6.71V146.821a6.718,6.718,0,0,1,6.71-6.71h90.109a6.718,6.718,0,0,1,6.71,6.71v63.268a6.718,6.718,0,0,1-6.71,6.71H244.3a6.718,6.718,0,0,1-6.71-6.71Zm64,10.545-1.917,3.834H279.032l-1.917-3.834Zm31.86,15.338H245.255a13.435,13.435,0,0,1-13.421-13.42,1.919,1.919,0,0,1,1.917-1.917h39.077l3.3,6.609a1.918,1.918,0,0,0,1.715,1.06h23.007a1.918,1.918,0,0,0,1.715-1.06l3.3-6.609H344.95a1.919,1.919,0,0,1,1.917,1.917,13.435,13.435,0,0,1-13.421,13.42Zm0,0" transform="translate(-228 -136.276)"/>
      <path id="Caminho_107" data-name="Caminho 107" d="M561.514,299.134a1.917,1.917,0,1,0-.237,2.42,1.917,1.917,0,0,0,.237-2.42Zm0,0" transform="translate(-452.556 -246.515)"/>
      <path id="Caminho_108" data-name="Caminho 108" d="M365.861,225.461v-11.5a1.917,1.917,0,1,0-3.834,0v11.5H273.834V164.11h88.192V196.7a1.917,1.917,0,1,0,3.834,0V164.11a3.839,3.839,0,0,0-3.834-3.834H273.834A3.839,3.839,0,0,0,270,164.11v61.351a3.839,3.839,0,0,0,3.834,3.834h88.192a3.839,3.839,0,0,0,3.834-3.834Zm0,0" transform="translate(-256.58 -152.607)"/>
      <g id="Grupo_381" data-name="Grupo 381" transform="translate(18.518 5.296)">
        <path id="Caminho_630" data-name="Caminho 630" d="M383.915,176.717a15.392,15.392,0,0,0-9.544,27.47v-3.909a5.031,5.031,0,0,1,4.775-5.227h9.536a5.032,5.032,0,0,1,4.777,5.227v3.909a15.392,15.392,0,0,0-9.544-27.47Zm0,0" transform="translate(-340.736 -156.011)" fill="#aeecff"/>
        <path id="Caminho_631" data-name="Caminho 631" d="M375.409,192.112a15.4,15.4,0,0,1,11.951-15,15.392,15.392,0,0,0-12.989,27.079v-3.909A5.44,5.44,0,0,1,376,196.354a15.4,15.4,0,0,1-.594-4.242Zm0,0" transform="translate(-340.736 -156.011)" fill="#83d3f2"/>
        <path id="Caminho_632" data-name="Caminho 632" d="M413,205.1a5.629,5.629,0,1,1-5.628-5.629A5.629,5.629,0,0,1,413,205.1Zm0,0" transform="translate(-364.193 -172.074)" fill="#ffcebe"/>
        <path id="Caminho_633" data-name="Caminho 633" d="M406.6,205.1a5.629,5.629,0,0,1,3.2-5.081,5.628,5.628,0,1,0,0,10.162,5.629,5.629,0,0,1-3.2-5.081Zm0,0" transform="translate(-364.196 -172.074)" fill="#ffb1a0"/>
        <path id="Caminho_634" data-name="Caminho 634" d="M402.17,237.764h-9.835a4.94,4.94,0,0,0-4.925,4.926v4.361a15.388,15.388,0,0,0,19.685,0V242.69a4.94,4.94,0,0,0-4.926-4.926Zm0,0" transform="translate(-354.074 -199.114)" fill="#f45687"/>
        <path id="Caminho_635" data-name="Caminho 635" d="M392.261,242.249a4.941,4.941,0,0,1,2.9-4.485h-2.822a4.94,4.94,0,0,0-4.926,4.926v4.361a15.373,15.373,0,0,0,4.85,2.727Zm0,0" transform="translate(-354.074 -199.114)" fill="#eb3c70"/>
        <path id="Caminho_649" data-name="Caminho 649" d="M379.944,206.347a17.051,17.051,0,0,0,4.271-33.558,1.654,1.654,0,0,0-.827,3.2,13.731,13.731,0,0,1,8.051,20.821v-.039a6.589,6.589,0,0,0-5.462-6.483,7.282,7.282,0,1,0-12.069,0,6.59,6.59,0,0,0-5.462,6.483v.039a13.733,13.733,0,0,1,8.051-20.821,1.653,1.653,0,0,0-.825-3.2,17.051,17.051,0,0,0,4.271,33.558Zm0-24.1a3.975,3.975,0,1,1-3.975,3.975,3.979,3.979,0,0,1,3.975-3.975Zm-8.189,14.529a3.276,3.276,0,0,1,3.272-3.272h9.835a3.276,3.276,0,0,1,3.271,3.272v3.553a13.709,13.709,0,0,1-16.378,0Zm0,0" transform="translate(-336.765 -153.201)"/>
      </g>
    </g>
  </g>
</svg>
