<svg xmlns="http://www.w3.org/2000/svg" xmlns:xlink="http://www.w3.org/1999/xlink" width="195.935" height="224" viewBox="0 0 195.935 224">
  <defs>
    <clipPath id="clip-path">
      <rect id="Ret창ngulo_81" data-name="Ret창ngulo 81" width="89" height="133" transform="translate(0.447 -0.18)" fill="none"/>
    </clipPath>
    <clipPath id="clip-path-2">
      <rect id="Ret창ngulo_80" data-name="Ret창ngulo 80" width="101" height="133" transform="translate(0.096 0)" fill="none"/>
    </clipPath>
  </defs>
  <g id="Grupo_96" data-name="Grupo 96" transform="translate(0.904 10.231)">
    <path id="Caminho_80" data-name="Caminho 80" d="M398.54,480.363a85.6,85.6,0,0,0-60.862-24.88A88.04,88.04,0,0,0,314.5,458.5a86.913,86.913,0,0,0-20.682,8.534,83.612,83.612,0,0,0-17.4,13.33,87.489,87.489,0,0,0-22.055,84.431,87.16,87.16,0,0,0,8.662,20.682A84.952,84.952,0,0,0,314.5,624.867a88.073,88.073,0,0,0,23.174,3.014,85.675,85.675,0,0,0,43.462-11.612,85.111,85.111,0,0,0,30.794-30.794,87.01,87.01,0,0,0,11.753-43.856,84.746,84.746,0,0,0-6.767-33.948A86.694,86.694,0,0,0,398.54,480.363Zm-26.786,77.473A38.468,38.468,0,0,1,364.4,570.9a34.839,34.839,0,0,1-11.689,8.738,36.153,36.153,0,0,1-15.428,3.205,37.688,37.688,0,0,1-15.823-3.205,35.848,35.848,0,0,1-11.943-8.738,39.017,39.017,0,0,1-7.619-13.063,49.547,49.547,0,0,1,0-32.243,42.049,42.049,0,0,1,7.619-13.393,35.686,35.686,0,0,1,11.943-9.12,36.228,36.228,0,0,1,15.823-3.345A34.372,34.372,0,0,1,364.4,512.2a41.455,41.455,0,0,1,7.352,13.393,52.112,52.112,0,0,1,0,32.243Z" transform="translate(-228.656 -420.6)" fill="#ffeff4"/>
    <path id="Caminho_81" data-name="Caminho 81" d="M398.54,480.363a85.6,85.6,0,0,0-60.862-24.88A88.04,88.04,0,0,0,314.5,458.5a86.913,86.913,0,0,0-20.682,8.534,83.612,83.612,0,0,0-17.4,13.33,87.489,87.489,0,0,0-22.055,84.431,87.16,87.16,0,0,0,8.662,20.682A84.952,84.952,0,0,0,314.5,624.867a88.073,88.073,0,0,0,23.174,3.014,85.675,85.675,0,0,0,43.462-11.612,85.111,85.111,0,0,0,30.794-30.794,87.01,87.01,0,0,0,11.753-43.856,84.746,84.746,0,0,0-6.767-33.948A86.694,86.694,0,0,0,398.54,480.363Z" transform="translate(-245.254 -433.51)" fill="none" stroke="#9eebc2" stroke-width="4"/>
    <text id="_1." data-name="1." transform="translate(27.096 58.769)" fill="#eb3c70" font-size="64" font-family="SegoeUI-Bold, Segoe UI" font-weight="700"><tspan x="-27.078" y="0">1.</tspan></text>
    <g id="Grupo_158" data-name="Grupo 158" transform="translate(88.649 68.949)">
      <path id="Caminho_193" data-name="Caminho 193" d="M382.227,228.177v10.949a2.218,2.218,0,0,1-2.218,2.219h-80.99a2.218,2.218,0,0,1-2.218-2.219V228.177a20.78,20.78,0,0,1,20.8-20.622,11.493,11.493,0,0,0,9.311-4.9c2.3-3.281,2.067-6.238,2.067-8.46l.041-.1a27.463,27.463,0,0,1-16.96-25.378v-.868a6.893,6.893,0,0,1-5.608-2.791s0,0,0-.006a6.727,6.727,0,0,1-1.323-4.01V134.008a7.489,7.489,0,0,1,7.488-7.489,22.06,22.06,0,0,1,20.484-13.868c13.2,0,21.681-.1,22.388.256.166.024,1.7.3,1.817.357a22.057,22.057,0,0,1,16.885,21.448v25.923a7.212,7.212,0,0,1-7.212,7.212v.868a27.463,27.463,0,0,1-16.96,25.378l.041.1c0,2.159-.249,5.152,2.067,8.46a11.489,11.489,0,0,0,9.311,4.9,20.78,20.78,0,0,1,20.8,20.622Zm0,0" transform="translate(-294.877 -110.443)" fill="#ffdfba"/>
      <path id="Caminho_194" data-name="Caminho 194" d="M389.849,134.712v25.923a7.212,7.212,0,0,1-7.212,7.212V152.488a2.217,2.217,0,0,0-2.083-2.214A79.384,79.384,0,0,1,342.8,138.132a2.224,2.224,0,0,0-3.343,1.317,10.94,10.94,0,0,1-4.8,6.762c-2.687,1.617-4.766,1.3-5.547,1.62a2.209,2.209,0,0,0-1.387,2.053v17.962a6.893,6.893,0,0,1-5.608-2.791s0,0,0-.006a6.707,6.707,0,0,1-1.2-2.718c-.179-.907-.124,1.14-.124-28.324a7.489,7.489,0,0,1,7.488-7.489,22.067,22.067,0,0,1,20.484-13.868c13.2,0,21.681-.1,22.388.256a21.983,21.983,0,0,1,5.966,1.808c.034.016.562.261.584.283a22.059,22.059,0,0,1,12.154,19.714Zm0,0" transform="translate(-310.542 -110.443)" fill="#ede040"/>
      <path id="Caminho_195" data-name="Caminho 195" d="M382.227,397.8v10.949a2.218,2.218,0,0,1-2.218,2.219h-80.99a2.218,2.218,0,0,1-2.218-2.219V397.8a20.78,20.78,0,0,1,20.8-20.622,11.493,11.493,0,0,0,9.311-4.9c9.641,10.714,7.423,8.249,10.955,12.176a2.222,2.222,0,0,0,3.3,0c3.168-3.522.582-.649,10.956-12.176a11.489,11.489,0,0,0,9.311,4.9,20.78,20.78,0,0,1,20.8,20.622Zm0,0" transform="translate(-294.877 -280.065)" fill="#d6f4fc"/>
      <path id="Caminho_196" data-name="Caminho 196" d="M445.372,376.251c-.035.073-2.772,12.526-2.755,12.447a2.042,2.042,0,0,1-3.535.9c-7.284-8.387-6.289-7.293-7.027-7.958l8.426-9.364a11.528,11.528,0,0,0,4.891,3.975Zm0,0" transform="translate(-383.239 -280.065)" fill="#e8f8fc"/>
      <path id="Caminho_197" data-name="Caminho 197" d="M374.426,372.276l8.226,9.141-6.824,8.086a2.04,2.04,0,0,1-3.552-.877c-.018-.078-2.7-12.3-2.74-12.377a11.523,11.523,0,0,0,4.891-3.974Zm0,0" transform="translate(-342.395 -280.065)" fill="#e8f8fc"/>
      <path id="Caminho_198" data-name="Caminho 198" d="M395.718,216.1a27.458,27.458,0,1,1-54.917,0V197.271a2.221,2.221,0,0,1,2.1-2.216c4.494-.256,8.277-3.071,9.64-8.221a2.223,2.223,0,0,1,3.341-1.317,79.374,79.374,0,0,0,37.754,12.142,2.217,2.217,0,0,1,2.083,2.214Zm0,0" transform="translate(-323.623 -157.829)" fill="#ffebd2"/>
      <path id="Caminho_199" data-name="Caminho 199" d="M376.225,120.971H357.076a22.059,22.059,0,0,0-19.825,12.388,3.062,3.062,0,0,1-2.167,1.633,7.491,7.491,0,0,0-5.979,7.336v5.5a2.209,2.209,0,0,0-1.387,2.053v13.172a3.158,3.158,0,0,1-5.737,1.824,6.873,6.873,0,0,1-1.017-2.3c-.25-1.075-.18,1.008-.18-28.576a7.489,7.489,0,0,1,7.488-7.489,22.066,22.066,0,0,1,20.484-13.868c13.11,0,21.68-.1,22.388.256a22.239,22.239,0,0,1,5.459,1.58c.087.037,1.048.469,1.09.511a3.157,3.157,0,0,1-1.468,5.974Zm0,0" transform="translate(-310.539 -110.443)" fill="#d8ce59"/>
      <path id="Caminho_200" data-name="Caminho 200" d="M410.4,352.237a27.535,27.535,0,0,1-21.707,0,17.164,17.164,0,0,0,.314-4.554l.041-.1a27.521,27.521,0,0,0,21,0l.041.1a17.163,17.163,0,0,0,.314,4.554Zm0,0" transform="translate(-354.912 -263.932)" fill="#ffd6a6"/>
      <path id="Caminho_201" data-name="Caminho 201" d="M323.46,390.236A20.684,20.684,0,0,0,303.735,410.9v7.56h-4.716a2.218,2.218,0,0,1-2.218-2.219V405.305a20.8,20.8,0,0,1,20.8-20.639,11.5,11.5,0,0,0,4.413-.925c.035.073,1.425,6.417,1.442,6.5Zm0,0" transform="translate(-294.877 -287.555)" fill="#e8f8fc"/>
      <path id="Caminho_202" data-name="Caminho 202" d="M466.3,390.236A20.684,20.684,0,0,1,486.03,410.9v7.56h4.716a2.219,2.219,0,0,0,2.218-2.219V405.305a20.8,20.8,0,0,0-20.8-20.639,11.5,11.5,0,0,1-4.413-.925c-.035.073-1.425,6.417-1.442,6.5Zm0,0" transform="translate(-405.614 -287.555)" fill="#bdeffc"/>
      <path id="Caminho_203" data-name="Caminho 203" d="M374.6,383.924c.413,1.878.854,3.879,1.228,5.578a2.041,2.041,0,0,1-3.554-.876c-1.066-4.843-2.717-12.327-2.74-12.375a11.536,11.536,0,0,0,4.891-3.975l2.369,2.634a10.71,10.71,0,0,0-2.194,9.014Zm0,0" transform="translate(-342.395 -280.065)" fill="#f1fafc"/>
      <path id="Caminho_204" data-name="Caminho 204" d="M362.2,191.62a13.863,13.863,0,0,1-5.088,9.6,20.263,20.263,0,0,0-7.993,16.308v6.894a3.387,3.387,0,0,1-6.537,1.436A27.4,27.4,0,0,1,340.8,216.1V197.268a2.221,2.221,0,0,1,2.1-2.216c4.507-.257,8.282-3.082,9.64-8.222a2.222,2.222,0,0,1,3.337-1.319c1.4.887,2.928,1.789,4.576,2.68a3.412,3.412,0,0,1,1.75,3.428Zm0,0" transform="translate(-323.623 -157.826)" fill="#fff3e4"/>
      <path id="Caminho_205" data-name="Caminho 205" d="M408.5,398.865l4.141,29.327H396l3.941-29.55,2.73,3.034a2.22,2.22,0,0,0,3.3,0Zm0,0" transform="translate(-359.684 -297.29)" fill="#cb3360"/>
      <g id="Grupo_157" data-name="Grupo 157" transform="translate(0 0)">
        <g id="Grupo_156" data-name="Grupo 156" transform="translate(0 0)" clip-path="url(#clip-path)">
          <path id="Caminho_206" data-name="Caminho 206" d="M402.839,401.863l-3.51,26.329H396l3.941-29.55Zm0,0" transform="translate(-359.684 -297.29)" fill="#e84857"/>
          <path id="Caminho_207" data-name="Caminho 207" d="M357.361,201.181a9.219,9.219,0,0,1-7.932-4.453,2.219,2.219,0,1,0-3.789,2.309,13.713,13.713,0,0,0,4.641,4.625l-2.3,10.436-5.544-6.384a2.222,2.222,0,1,0-3.234-3.044l-3.9,4.485-9.828-10.918a13.548,13.548,0,0,0,1.488-5.206,29.709,29.709,0,0,0,38.045-28.474V146.215a2.218,2.218,0,0,0-4.437,0v18.341a25.24,25.24,0,0,1-50.48,0V145.725c5.409-.308,10.011-3.7,11.651-9.858a75.9,75.9,0,0,0,30.462,11.27,2.219,2.219,0,1,0,.616-4.394,71.5,71.5,0,0,1-31.462-12.484,2.221,2.221,0,0,0-3.5,1.825c0,.056-.022,5.558-4.2,8.069a9.139,9.139,0,0,1-5.768,1.071,2.22,2.22,0,0,0-2.225,1.962c-.024.214-.016-.516-.016,17.755a4.582,4.582,0,0,1-2.5-4.059V129.852a5.276,5.276,0,0,1,5.269-5.269,2.221,2.221,0,0,0,2.061-1.4,19.746,19.746,0,0,1,18.422-12.473h19.029a19.864,19.864,0,0,1,19.842,19.842v26.328a2.219,2.219,0,0,0,4.438,0V130.556a24.307,24.307,0,0,0-24.28-24.28H328.91a24.152,24.152,0,0,0-21.989,13.985,9.725,9.725,0,0,0-8.2,9.591v27.032a9.055,9.055,0,0,0,6.957,8.77,29.722,29.722,0,0,0,16.9,25.694v.585a9.254,9.254,0,0,1-9.271,9.249,22.89,22.89,0,0,0-22.9,22.9v13.107a2.219,2.219,0,1,0,4.438,0V224.082A18.455,18.455,0,0,1,313.3,205.618a13.879,13.879,0,0,0,2.9-.308l3.1,14.051a2.22,2.22,0,0,0,3.842.978l4.372-5.034-2.7,21.609a2.219,2.219,0,0,0,4.4.551l3.121-24.975c.141.157,1.375,1.54,1.533,1.679a2.216,2.216,0,0,0,3.124-.2c.439-.5-.7.8,1.331-1.528l3.127,25.018a2.219,2.219,0,0,0,4.4-.55l-2.7-21.609,4.372,5.034a2.221,2.221,0,0,0,3.842-.978l3.1-14.052a13.891,13.891,0,0,0,2.9.309,18.455,18.455,0,0,1,18.465,18.465v13.107a2.218,2.218,0,1,0,4.437,0V224.082a22.888,22.888,0,0,0-22.9-22.9ZM322.681,214.1l-2.3-10.44a13.777,13.777,0,0,0,2.37-1.815l5.38,5.978Zm0,0" transform="translate(-290.694 -106.287)"/>
        </g>
      </g>
    </g>
    <g id="Grupo_155" data-name="Grupo 155" transform="translate(0 80.769)">
      <path id="Caminho_181" data-name="Caminho 181" d="M372.171,196.637a8.259,8.259,0,0,1,1.989-5.164,12.854,12.854,0,0,0-.748-15.878,8.851,8.851,0,0,1-2.134-5.732c0-1.682.294-2.27,1.927-7.453a8.912,8.912,0,0,0-3.855-10.188,9.05,9.05,0,0,1-4.258-7.588c0-4.063,2.262-4.6,2.262-7.972a7.026,7.026,0,0,0-5.413-6.7,11.107,11.107,0,0,1-8.011-7.7l-.482-1.785c-1.176-4.336-6.441-6.422-10.579-4.194a7.581,7.581,0,0,1-8.69-1.084,9.827,9.827,0,0,0-13.258,0,7.583,7.583,0,0,1-8.689,1.084c-4.158-2.234-9.407-.131-10.58,4.194l-.481,1.785a11.107,11.107,0,0,1-8.009,7.7c-4.637,1.222-6.824,6.2-4.438,10.124a8.854,8.854,0,0,1-2.97,12.134,9.046,9.046,0,0,0-4.257,7.583c0,1.674.293,2.261,1.928,7.456a8.756,8.756,0,0,1-1.735,8.334,12.854,12.854,0,0,0-.748,15.878l.613.865a7.409,7.409,0,0,1-.414,9.132,7.444,7.444,0,0,0,.647,10.349c5.959,5.961,5.868,5.878,5.9,5.893a20.569,20.569,0,0,0-2.816,10.421v10.881a2.218,2.218,0,0,0,2.218,2.218h80.929a2.217,2.217,0,0,0,2.218-2.218V228.133a20.569,20.569,0,0,0-2.816-10.421c.027-.015-.282.287,5.9-5.893a7.445,7.445,0,0,0,.646-10.349,7.483,7.483,0,0,1-1.79-4.833Zm0,0" transform="translate(-276.709 -110.502)" fill="#c79a83"/>
      <path id="Caminho_182" data-name="Caminho 182" d="M393.571,211.266a2.219,2.219,0,0,1,2.1,2.214v13.272a27.439,27.439,0,1,1-54.877,0v-13.08a2.213,2.213,0,0,1,2.407-2.208,57.361,57.361,0,0,0,37.394-9.563,2.21,2.21,0,0,1,3.368,1.238c1.368,5.042,5.1,7.87,9.609,8.127Zm0,0" transform="translate(-317.389 -168.601)" fill="#e0b7a3"/>
      <path id="Caminho_183" data-name="Caminho 183" d="M373.412,175.6a12.854,12.854,0,0,1,.748,15.878,8.251,8.251,0,0,0-1.989,5.164,7.482,7.482,0,0,0,1.79,4.833,7.445,7.445,0,0,1-.646,10.349c-5.961,5.961-5.87,5.878-5.9,5.893a20.664,20.664,0,0,0-17.852-10.247,11.468,11.468,0,0,1-11.483-11.457v-1.893l-.041-.1a27.44,27.44,0,0,0,16.948-25.359V155.382a2.219,2.219,0,0,0-2.1-2.214c-4.481-.256-8.231-3.053-9.609-8.127a2.209,2.209,0,0,0-3.368-1.237,57.376,57.376,0,0,1-37.394,9.561,2.213,2.213,0,0,0-2.407,2.208v13.08a27.438,27.438,0,0,0,16.948,25.359l-.042.1v1.893a11.47,11.47,0,0,1-11.483,11.458,20.663,20.663,0,0,0-17.852,10.246c-.027-.014.283.287-5.9-5.893a7.445,7.445,0,0,1-.647-10.349,7.409,7.409,0,0,0,.414-9.132l-.613-.865a12.855,12.855,0,0,1,.748-15.878,8.756,8.756,0,0,0,1.735-8.334c-1.635-5.192-1.928-5.78-1.928-7.456a9.047,9.047,0,0,1,4.257-7.583,8.854,8.854,0,0,0,2.97-12.134c-2.386-3.928-.2-8.9,4.438-10.124a11.1,11.1,0,0,0,8.009-7.7l.481-1.785c1.173-4.325,6.423-6.428,10.58-4.194a7.583,7.583,0,0,0,8.689-1.084,9.829,9.829,0,0,1,13.258,0,7.586,7.586,0,0,0,8.69,1.084c4.138-2.228,9.4-.142,10.579,4.194l.482,1.785a11.107,11.107,0,0,0,8.011,7.7,7.026,7.026,0,0,1,5.413,6.7c0,3.374-2.262,3.908-2.262,7.972a9.05,9.05,0,0,0,4.258,7.588,8.912,8.912,0,0,1,3.855,10.188c-1.632,5.183-1.927,5.773-1.927,7.453a8.851,8.851,0,0,0,2.134,5.732Zm0,0" transform="translate(-276.709 -110.503)" fill="#42434d"/>
      <path id="Caminho_184" data-name="Caminho 184" d="M382.15,402.893v10.881a2.217,2.217,0,0,1-2.218,2.218H299a2.217,2.217,0,0,1-2.218-2.218V402.893a20.669,20.669,0,0,1,20.668-20.668,11.444,11.444,0,0,0,6.782-2.211l.5,3.229L338.109,393.6a2.222,2.222,0,0,0,2.717,0L354.2,383.243l.5-3.229a11.444,11.444,0,0,0,6.782,2.211,20.672,20.672,0,0,1,20.668,20.668Zm0,0" transform="translate(-288.626 -285.263)" fill="#ea3c70"/>
      <path id="Caminho_185" data-name="Caminho 185" d="M406.936,389.335l-5.044,32.749h-19.38l-5.043-32.749,13.376,10.357a2.218,2.218,0,0,0,2.715,0Zm0,0" transform="translate(-341.361 -291.355)" fill="#ffbd7b"/>
      <path id="Caminho_186" data-name="Caminho 186" d="M325.814,390.258c-13,.334-20.992,10.119-20.992,20.673v5.061H299a2.218,2.218,0,0,1-2.218-2.218V402.893a20.669,20.669,0,0,1,20.668-20.668,11.444,11.444,0,0,0,6.782-2.211c.631,4.08.3,1.931,1.579,10.244Zm0,0" transform="translate(-288.626 -285.263)" fill="#f45687"/>
      <path id="Caminho_187" data-name="Caminho 187" d="M459.414,390.258c13,.334,20.992,10.119,20.992,20.673v5.061h5.82a2.218,2.218,0,0,0,2.218-2.218V402.893a20.669,20.669,0,0,0-20.668-20.668,11.444,11.444,0,0,1-6.782-2.211c-.631,4.08-.3,1.931-1.579,10.244Zm0,0" transform="translate(-394.919 -285.263)" fill="#cb3360"/>
      <path id="Caminho_188" data-name="Caminho 188" d="M388.056,422.084h-5.544l-5.043-32.749,6.293,4.873Zm0,0" transform="translate(-341.361 -291.355)" fill="#faa157"/>
      <path id="Caminho_189" data-name="Caminho 189" d="M410.382,352.215a27.514,27.514,0,0,1-21.691,0,17.15,17.15,0,0,0,.314-4.551l.042-.1a27.487,27.487,0,0,0,20.98,0l.04.1a17.151,17.151,0,0,0,.314,4.551Zm0,0" transform="translate(-348.695 -264.052)" fill="#a07765"/>
      <path id="Caminho_190" data-name="Caminho 190" d="M353.449,120.481a2.985,2.985,0,0,1-1.92,3.61,7.487,7.487,0,0,0-1.176.51,7.579,7.579,0,0,1-8.689-1.084,9.831,9.831,0,0,0-13.259,0,7.583,7.583,0,0,1-8.689,1.084c-4.158-2.234-9.407-.13-10.579,4.194l-.483,1.785a11.1,11.1,0,0,1-8.009,7.7c-4.637,1.223-6.824,6.2-4.437,10.124a8.856,8.856,0,0,1-2.972,12.135,9.048,9.048,0,0,0-4.257,7.583c0,1.674.294,2.261,1.928,7.454a8.756,8.756,0,0,1-1.735,8.334,12.857,12.857,0,0,0-.748,15.879l.613.865a7.411,7.411,0,0,1-.413,9.132,7.776,7.776,0,0,0-.815,1.165,3.808,3.808,0,0,1-6.023.868,7.444,7.444,0,0,1-.647-10.349,7.409,7.409,0,0,0,.414-9.132l-.613-.865a12.854,12.854,0,0,1,.748-15.878,8.756,8.756,0,0,0,1.735-8.334c-1.635-5.195-1.928-5.782-1.928-7.456a9.046,9.046,0,0,1,4.257-7.583,8.854,8.854,0,0,0,2.97-12.134c-2.386-3.928-.2-8.9,4.438-10.124a11.107,11.107,0,0,0,8.009-7.7l.481-1.785c1.173-4.325,6.422-6.428,10.58-4.194a7.583,7.583,0,0,0,8.689-1.084,9.827,9.827,0,0,1,13.258,0,7.581,7.581,0,0,0,8.69,1.084c4.138-2.228,9.4-.142,10.579,4.194Zm0,0" transform="translate(-276.709 -110.502)" fill="#4d4e59"/>
      <g id="Grupo_154" data-name="Grupo 154" transform="translate(0 0)">
        <g id="Grupo_153" data-name="Grupo 153" transform="translate(0 0)" clip-path="url(#clip-path-2)">
          <path id="Caminho_191" data-name="Caminho 191" d="M362.971,263.873c4.141,2.771.984,9.181-3.717,7.532a27.264,27.264,0,0,1-18.461-25.913v-13.08A2.214,2.214,0,0,1,343.2,230.2c1.062.1,2.229.172,3.487.21a4.225,4.225,0,0,1,4.082,4.23v6.414a27.342,27.342,0,0,0,12.2,22.816Zm0,0" transform="translate(-317.389 -187.342)" fill="#f2d1c2"/>
          <path id="Caminho_192" data-name="Caminho 192" d="M368.238,223.98v13.1a2.218,2.218,0,0,1-4.436,0v-13.1a18.44,18.44,0,0,0-18.45-18.452,13.763,13.763,0,0,1-5.073-.961l-5.061,32.846a2.217,2.217,0,0,1-4.383-.674l5.349-34.719a13.814,13.814,0,0,1-2.545-3.069,2.217,2.217,0,1,1,3.788-2.306,9.236,9.236,0,0,0,7.925,4.448,22.873,22.873,0,0,1,22.886,22.886Zm3.206-28.091a5.2,5.2,0,0,1-.295-6.426l.61-.867a15.01,15.01,0,0,0-.87-18.59,6.554,6.554,0,0,1-1.309-6.233l1.526-4.851a11.086,11.086,0,0,0-4.768-12.718,6.625,6.625,0,0,1-2.277-9.12,9.038,9.038,0,0,0-5.767-13.417,8.914,8.914,0,0,1-6.436-6.137l-.483-1.783c-1.535-5.664-8.318-8.5-13.771-5.568a5.347,5.347,0,0,1-6.122-.747,12.084,12.084,0,0,0-16.289,0,5.347,5.347,0,0,1-6.122.747,9.766,9.766,0,0,0-8.529-.367c-4.559,1.962-5.213,5.832-5.725,7.718a8.914,8.914,0,0,1-6.436,6.137,9.038,9.038,0,0,0-5.767,13.417,6.625,6.625,0,0,1-2.277,9.12,11.086,11.086,0,0,0-4.768,12.718l1.528,4.851a6.555,6.555,0,0,1-1.31,6.233,15.012,15.012,0,0,0-.87,18.59l.61.867a5.2,5.2,0,0,1-.295,6.426,9.634,9.634,0,0,0,.827,13.395,2.217,2.217,0,0,0,3.032-3.235,5.253,5.253,0,0,1-.468-7.3,9.587,9.587,0,0,0,.529-11.837l-.61-.867a10.633,10.633,0,0,1,.626-13.166,10.969,10.969,0,0,0,2.158-10.434l-1.528-4.85a6.7,6.7,0,0,1,2.941-7.659,11.113,11.113,0,0,0,3.667-15.148c-1.642-2.7-.045-6,3.106-6.828a13.353,13.353,0,0,0,9.585-9.265l.483-1.784a5.133,5.133,0,0,1,7.388-2.824,9.834,9.834,0,0,0,11.257-1.415,7.586,7.586,0,0,1,10.226,0,9.833,9.833,0,0,0,11.257,1.415,5.131,5.131,0,0,1,7.387,2.824l.484,1.784a13.354,13.354,0,0,0,9.586,9.265c3.152.829,4.746,4.126,3.106,6.828a11.114,11.114,0,0,0,3.666,15.148,6.7,6.7,0,0,1,2.942,7.659l-1.528,4.85a10.969,10.969,0,0,0,2.158,10.434,10.633,10.633,0,0,1,.626,13.166l-.611.867a9.587,9.587,0,0,0,.53,11.837,5.346,5.346,0,0,1,1.141,2.264,2.217,2.217,0,1,0,4.323-.987,9.859,9.859,0,0,0-2.074-4.134Zm-39.83,13.441a2.217,2.217,0,0,0-3.111-.4l-5.165,4-12.679-9.815-.169-1.1a13.569,13.569,0,0,0,4.486-9.068A29.689,29.689,0,0,0,352.994,164.5c0-16.28.008-15.6-.015-15.809a2.222,2.222,0,0,0-2.218-1.963,9.138,9.138,0,0,1-5.77-1.069c-4.172-2.509-4.192-8.01-4.192-8.065a2.219,2.219,0,0,0-3.5-1.822,71.443,71.443,0,0,1-31.438,12.474,2.218,2.218,0,0,0,.614,4.392,75.878,75.878,0,0,0,30.442-11.264c1.632,6.126,6.21,9.542,11.641,9.851V164.5a25.222,25.222,0,1,1-50.443,0V148.942a2.217,2.217,0,1,0-4.434,0V164.5a29.694,29.694,0,0,0,16.906,26.772v.585a9.249,9.249,0,0,1-9.265,9.241,22.872,22.872,0,0,0-22.886,22.884v13.1a2.217,2.217,0,0,0,4.434,0v-13.1a18.441,18.441,0,0,1,18.451-18.45,13.693,13.693,0,0,0,5.072-.966l5.062,32.852a2.217,2.217,0,1,0,4.383-.675l-4.2-27.255,10.34,8.005a2.218,2.218,0,0,0,2.714,0l6.522-5.05a2.216,2.216,0,0,0,.4-3.11Zm0,0" transform="translate(-272.497 -106.349)"/>
        </g>
      </g>
    </g>
  </g>
</svg>
