<svg xmlns="http://www.w3.org/2000/svg" id="instagram-sketched" width="32" height="32" viewBox="0 0 32 32">
    <defs>
        <style>
            .cls-1{fill:#fff}
        </style>
    </defs>
    <g id="Grupo_501" data-name="Grupo 501">
        <path id="Caminho_733" d="M215.179 211.089a4.089 4.089 0 1 1-4.09-4.089 4.089 4.089 0 0 1 4.09 4.089zm0 0" class="cls-1" data-name="Caminho 733" transform="translate(-195.089 -195.09)"/>
        <path id="Caminho_734" d="M151.021 137.723a3.217 3.217 0 0 0-1.844-1.844 5.375 5.375 0 0 0-1.8-.334c-1.025-.047-1.332-.057-3.925-.057s-2.9.01-3.925.057a5.378 5.378 0 0 0-1.8.335 3.218 3.218 0 0 0-1.844 1.844 5.377 5.377 0 0 0-.334 1.8c-.047 1.024-.057 1.331-.057 3.925s.01 2.9.057 3.925a5.375 5.375 0 0 0 .334 1.8 3.217 3.217 0 0 0 1.844 1.844 5.368 5.368 0 0 0 1.8.335c1.024.047 1.331.057 3.925.057s2.9-.01 3.925-.057a5.368 5.368 0 0 0 1.8-.335 3.217 3.217 0 0 0 1.844-1.844 5.38 5.38 0 0 0 .335-1.8c.047-1.025.057-1.332.057-3.925s-.01-2.9-.057-3.925a5.367 5.367 0 0 0-.335-1.801zm-7.573 10.717a4.988 4.988 0 1 1 4.988-4.988 4.988 4.988 0 0 1-4.988 4.988zm5.185-9.008a1.166 1.166 0 1 1 1.166-1.166 1.166 1.166 0 0 1-1.165 1.166zm0 0" class="cls-1" data-name="Caminho 734" transform="translate(-127.448 -127.452)"/>
        <path id="Caminho_735" d="M16 0a16 16 0 1 0 16 16A16 16 0 0 0 16 0zm9.132 19.788a6.741 6.741 0 0 1-.427 2.23 4.7 4.7 0 0 1-2.687 2.687 6.745 6.745 0 0 1-2.23.427c-.98.045-1.293.055-3.788.055s-2.808-.011-3.788-.055a6.745 6.745 0 0 1-2.23-.427A4.7 4.7 0 0 1 7.3 22.018a6.739 6.739 0 0 1-.427-2.23c-.045-.98-.056-1.293-.056-3.788s.01-2.808.055-3.788a6.741 6.741 0 0 1 .427-2.23 4.7 4.7 0 0 1 2.683-2.687 6.747 6.747 0 0 1 2.23-.427c.98-.045 1.293-.055 3.788-.055s2.808.011 3.788.056a6.748 6.748 0 0 1 2.23.427 4.7 4.7 0 0 1 2.687 2.687 6.74 6.74 0 0 1 .427 2.23c.045.98.055 1.293.055 3.788s-.01 2.807-.055 3.787zm0 0" class="cls-1" data-name="Caminho 735"/>
    </g>
</svg>
