<svg xmlns="http://www.w3.org/2000/svg" width="36.677" height="108.807" viewBox="0 0 36.677 108.807">
    <defs>
        <style>
            .cls-1{fill:#fff}
        </style>
    </defs>
    <g id="noun_scroll-down_54414" transform="translate(-106.323 -.5)">
        <circle id="Elipse_72" cx="3.668" cy="3.668" r="3.668" class="cls-1" data-name="Elipse 72" transform="translate(120.994 12.114)"/>
        <path id="Caminho_746" d="M48.338.5A18.34 18.34 0 0 0 30 18.841V49.4a18.338 18.338 0 1 0 36.677 0V18.841A18.34 18.34 0 0 0 48.338.5zm15.893 48.9a15.893 15.893 0 1 1-31.786 0V18.841a15.893 15.893 0 1 1 31.786 0z" class="cls-1" data-name="Caminho 746" transform="translate(76.323)"/>
        <path id="Caminho_747" d="M64.59 59.858L48.338 76.11 32.087 59.858a1.222 1.222 0 1 0-1.729 1.729L47.474 78.7a1.222 1.222 0 0 0 1.729 0l17.115-17.113a1.222 1.222 0 1 0-1.729-1.729z" class="cls-1" data-name="Caminho 747" transform="translate(76.323 13.13)"/>
        <path id="Caminho_748" d="M64.59 73.858L48.338 90.11 32.087 73.858a1.222 1.222 0 0 0-1.729 1.729L47.474 92.7a1.222 1.222 0 0 0 1.729 0l17.115-17.113a1.222 1.222 0 0 0-1.729-1.729z" class="cls-1" data-name="Caminho 748" transform="translate(76.323 16.246)"/>
    </g>
</svg>
