<svg xmlns="http://www.w3.org/2000/svg" width="236.277" height="86.353" viewBox="0 0 236.277 86.353">
    <defs>
        <style>
            .prefix__cls-1{fill:#ea3c70}.prefix__cls-2{fill:#84d4a9}
        </style>
    </defs>
    <g id="prefix__Grupo_103" data-name="Grupo 103" transform="translate(-98.39 -414.048)">
        <g id="prefix__Grupo_7" data-name="Grupo 7">
            <g id="prefix__Grupo_6" data-name="Grupo 6">
                <path id="prefix__Caminho_12" d="M98.571 434.737a1.741 1.741 0 0 1-.01-1.53q.344-.636 1.53-.636h5.518a1.257 1.257 0 0 1 .916.346 2.175 2.175 0 0 1 .536.859l4.317 12.281a2.1 2.1 0 0 0 3.972-.013l4.222-12.268a1.808 1.808 0 0 1 .626-.961 1.936 1.936 0 0 1 1.049-.244h5.742a2.394 2.394 0 0 1 .984.166 1.041 1.041 0 0 1 .5.448 1.027 1.027 0 0 1 .1.626 2.759 2.759 0 0 1-.178.682q-.851 2.1-1.854 4.59t-2.089 5.183l-2.2 5.473q-1.116 2.781-2.179 5.464t-2.043 5.149q-.982 2.466-1.8 4.536t-1.42 3.629q-.6 1.564-.915 2.413l.067-.11a1.94 1.94 0 0 1-.558.971 1.41 1.41 0 0 1-.983.368h-5.161a1.863 1.863 0 0 1-1.375-.392 1.609 1.609 0 0 1-.368-1.149 1 1 0 0 1 .078-.448.931.931 0 0 1 .122-.2l3.208-8.337a2.107 2.107 0 0 0-.015-1.55z" class="prefix__cls-1" data-name="Caminho 12"/>
                <path id="prefix__Caminho_13" d="M129.826 446.8a14.584 14.584 0 0 1 4.274-10.42 14.224 14.224 0 0 1 2.961-2.268 14.75 14.75 0 0 1 3.519-1.453 15.015 15.015 0 0 1 3.943-.512 14.557 14.557 0 0 1 10.355 4.233 14.748 14.748 0 0 1 3.127 4.646 14.425 14.425 0 0 1 1.152 5.776 14.672 14.672 0 0 1-4.279 10.423 14.471 14.471 0 0 1-2.96 2.278 14.585 14.585 0 0 1-7.4 1.976 14.974 14.974 0 0 1-3.943-.513 14.461 14.461 0 0 1-8.759-6.7 14.8 14.8 0 0 1-1.473-3.519 14.613 14.613 0 0 1-.517-3.947zm8.154 0a8.167 8.167 0 0 0 .459 2.759 6.65 6.65 0 0 0 1.3 2.223 6.121 6.121 0 0 0 2.032 1.487 6.427 6.427 0 0 0 2.693.545 6.164 6.164 0 0 0 2.625-.545 5.95 5.95 0 0 0 1.989-1.487 6.556 6.556 0 0 0 1.25-2.223 8.866 8.866 0 0 0 0-5.486 7.066 7.066 0 0 0-1.25-2.279 5.851 5.851 0 0 0-4.614-2.12 6.167 6.167 0 0 0-2.693.569 6.078 6.078 0 0 0-2.032 1.551 7.169 7.169 0 0 0-1.3 2.279 8.15 8.15 0 0 0-.459 2.727z" class="prefix__cls-1" data-name="Caminho 13"/>
                <path id="prefix__Caminho_14" d="M162.733 446.8a14.589 14.589 0 0 1 4.279-10.422 14.2 14.2 0 0 1 2.961-2.268 14.759 14.759 0 0 1 3.518-1.453 15.026 15.026 0 0 1 3.943-.512 14.561 14.561 0 0 1 10.356 4.233 14.747 14.747 0 0 1 3.127 4.646 14.425 14.425 0 0 1 1.151 5.776 14.667 14.667 0 0 1-4.278 10.423 14.45 14.45 0 0 1-2.961 2.278 14.578 14.578 0 0 1-7.395 1.976 14.985 14.985 0 0 1-3.943-.513 14.462 14.462 0 0 1-8.758-6.7 14.841 14.841 0 0 1-1.474-3.519 14.652 14.652 0 0 1-.526-3.945zm8.155 0a8.167 8.167 0 0 0 .459 2.759 6.65 6.65 0 0 0 1.3 2.223 6.11 6.11 0 0 0 2.032 1.487 6.426 6.426 0 0 0 2.692.545 6.158 6.158 0 0 0 2.625-.545 5.929 5.929 0 0 0 1.989-1.487 6.557 6.557 0 0 0 1.251-2.223 8.865 8.865 0 0 0 0-5.486 7.068 7.068 0 0 0-1.251-2.279 5.851 5.851 0 0 0-4.614-2.12 6.166 6.166 0 0 0-2.692.569 6.068 6.068 0 0 0-2.032 1.551 7.168 7.168 0 0 0-1.3 2.279 8.15 8.15 0 0 0-.459 2.727z" class="prefix__cls-1" data-name="Caminho 14"/>
                <path id="prefix__Caminho_15" d="M222.853 460.59a1.373 1.373 0 0 1-.615.311 2.914 2.914 0 0 1-.612.067h-3.374a1.463 1.463 0 0 1-1.186-.534 2.418 2.418 0 0 1-.333-.558 4.552 4.552 0 0 1-.225-.645l-.468-2.184a5.549 5.549 0 0 1-1.119 1.459 9.033 9.033 0 0 1-1.932 1.415 12.072 12.072 0 0 1-5.908 1.491 9.952 9.952 0 0 1-4.512-.982 9.764 9.764 0 0 1-3.32-2.682 11.847 11.847 0 0 1-2.043-3.964 16.433 16.433 0 0 1-.693-4.837v-14.634a1.964 1.964 0 0 1 .368-1.286 1.458 1.458 0 0 1 1.173-.435h5.162a2 2 0 0 1 1.318.325 1.694 1.694 0 0 1 .357 1.264v14.56a4.589 4.589 0 0 0 .368 1.822 5.138 5.138 0 0 0 .995 1.522 4.649 4.649 0 0 0 1.463 1.039 4.256 4.256 0 0 0 1.777.38 6.31 6.31 0 0 0 1.742-.268 5.693 5.693 0 0 0 1.742-.84 4.729 4.729 0 0 0 1.342-1.465 4.1 4.1 0 0 0 .534-2.147v-14.536a2.105 2.105 0 0 1 .148-.762 1.184 1.184 0 0 1 .435-.58 2.077 2.077 0 0 1 .547-.247 2.334 2.334 0 0 1 .591-.067h5.051a1.573 1.573 0 0 1 1.809 1.721v25a1.652 1.652 0 0 1-.19.781 1.4 1.4 0 0 1-.526.559z" class="prefix__cls-1" data-name="Caminho 15"/>
            </g>
        </g>
        <g id="prefix__Grupo_9" data-name="Grupo 9">
            <g id="prefix__Grupo_8" data-name="Grupo 8">
                <path id="prefix__Caminho_16" d="M242.025 460.933a5.573 5.573 0 0 1-2.9-1.19 3.69 3.69 0 0 1-1.377-3.185 7.855 7.855 0 0 1 .855-3.52 48.819 48.819 0 0 1-7.8 3.376l-.284.049a.927.927 0 0 1-.9-1 .955.955 0 0 1 .664-.9 46.681 46.681 0 0 0 9.748-4.516 104.867 104.867 0 0 1 9.7-16.691 38.759 38.759 0 0 1 6.848-8.084 5.671 5.671 0 0 1 3.327-1.71c1.189 0 1.807.759 1.807 2.281a6.992 6.992 0 0 1-.476 2.426 38.917 38.917 0 0 1-5.229 9.557 50.367 50.367 0 0 1-14.5 13.552l-.332.713a10.827 10.827 0 0 0-1.522 4.516 2.025 2.025 0 0 0 1.332 2.14 8.08 8.08 0 0 0 2.708.43 19.862 19.862 0 0 0 5.232-.762 44.15 44.15 0 0 0 10.074-3.76.926.926 0 0 1 .477-.141 1 1 0 0 1 .95 1.045.711.711 0 0 1-.474.713 44.937 44.937 0 0 1-13.363 4.565 13.429 13.429 0 0 1-2.472.191c-.43 0-1.143-.049-2.093-.095zm16.548-31.2a11.7 11.7 0 0 0 1.094-2.994 3.19 3.19 0 0 0 .142-.855c0-.144-.047-.19-.188-.19a1.359 1.359 0 0 0-.43.1c-2.472 1.377-5.8 5.278-9.939 11.648a100.97 100.97 0 0 0-6.182 10.6 45.871 45.871 0 0 0 15.503-18.304z" class="prefix__cls-2" data-name="Caminho 16"/>
                <path id="prefix__Caminho_17" d="M268.9 459.506a13.745 13.745 0 0 1-4.71-.855 4.892 4.892 0 0 1-3.19-3.234 8.891 8.891 0 0 1-2.139 1.092l-.286.049c-.569 0-.855-.332-.855-.95a.972.972 0 0 1 .618-.953 5.331 5.331 0 0 0 2.567-1.712 1.076 1.076 0 0 1 .857-.427.786.786 0 0 1 .9.9v.237a3.161 3.161 0 0 0 1.429 2.853 9.965 9.965 0 0 0 5.371 1.094c.762 0 1.429-.046 2.046-.1a39.371 39.371 0 0 0 11.793-2.9l.286-.049c.569 0 .854.332.854.953a1.046 1.046 0 0 1-.569.95 39.28 39.28 0 0 1-14.552 3.043zm-5.755-11.746a1.393 1.393 0 0 1 .332-2.711 2.755 2.755 0 0 1 .9.144 1.367 1.367 0 0 1 .857 1.378 1.9 1.9 0 0 1-.144.713 1.255 1.255 0 0 1-1.19.716 1.561 1.561 0 0 1-.757-.24z" class="prefix__cls-2" data-name="Caminho 17"/>
                <path id="prefix__Caminho_18" d="M273.277 499.451a238.946 238.946 0 0 1 7.845-40.04v-.476a3.372 3.372 0 0 1-1-2.282c.1-1.094.618-1.666 1.617-1.666a1.264 1.264 0 0 1 .572.145c.046 0 .1-.049.142-.191 3.947-13.171 8.465-26.629 13.553-40.275a.909.909 0 0 1 .9-.618c.618 0 .95.381.95 1.14a320.376 320.376 0 0 1-12.6 41.275 1.079 1.079 0 0 1-1 .618c-.572-.142-.855-.381-.855-.809l-.19 1.571.237.569a8.78 8.78 0 0 0 4.374.953 14.169 14.169 0 0 0 3.188-.335 43.484 43.484 0 0 0 12.932-4.47l.333-.046a.883.883 0 0 1 1 1 .976.976 0 0 1-.428.759c-6.135 3.329-11.936 4.993-17.451 4.993a9.31 9.31 0 0 1-4.375-.95 49.661 49.661 0 0 1-.618 5.849 206.7 206.7 0 0 1-7.23 33.619 1.075 1.075 0 0 1-1 .618c-.61-.002-.896-.333-.896-.951zm6.942-29.2a169.472 169.472 0 0 0-4.516 22.063 183 183 0 0 0 4.516-22.061zm13.553-44.032c-2.616 6.751-6.087 16.594-10.319 29.575q5.634-14.049 10.319-29.573z" class="prefix__cls-2" data-name="Caminho 18"/>
                <path id="prefix__Caminho_19" d="M311.033 460.361l-.283-.046c-4.233-.523-6.8-1.854-7.7-4.089a8.269 8.269 0 0 1-.1-1.048c0-1.568 1.045-3.185 3.139-4.8a5.528 5.528 0 0 1 3.28-1.331 2.194 2.194 0 0 1 2.33 1.663l.046.523c0 1-.664 2-1.995 2.948a9.988 9.988 0 0 1-4.614 2l.239.237a4.521 4.521 0 0 0 1.759 1.094 9.706 9.706 0 0 0 2.235.572 34.194 34.194 0 0 0 23.87-3.425.938.938 0 0 1 1.427.9.751.751 0 0 1-.523.713 35.394 35.394 0 0 1-17.5 4.519 37.1 37.1 0 0 1-5.61-.43zm-4.279-6.656a13.153 13.153 0 0 0 2.757-1.761.821.821 0 0 0 .335-.664c0-.24-.144-.332-.381-.332a4.575 4.575 0 0 0-3.043 1.709 3.76 3.76 0 0 0-1.38 1.666 5.07 5.07 0 0 0 1.712-.623z" class="prefix__cls-2" data-name="Caminho 19"/>
            </g>
        </g>
    </g>
</svg>
